<?xml version="1.0" encoding="UTF-8"?>
<svg version="1.1" xmlns="http://www.w3.org/2000/svg" width="903" height="601">
<path d="M0 0 C0.82467773 0.66805664 0.82467773 0.66805664 1.66601562 1.34960938 C15.38199603 12.56602241 28.18501424 24.94257069 39 39 C39.77214844 39.95519531 40.54429687 40.91039063 41.33984375 41.89453125 C51.13741774 54.19954124 59.32303076 67.5947955 66.875 81.375 C67.32230469 82.16535645 67.76960937 82.95571289 68.23046875 83.77001953 C71.12257426 89.20449304 71.12257426 89.20449304 70.609375 92.53515625 C68.27692581 96.10742674 65.88342823 99.61107704 63.375 103.0625 C59.15749355 108.90675894 55.08853603 114.82752526 51.10595703 120.8347168 C47.52954129 126.21012024 43.88631481 131.54001593 40.25 136.875 C38.77578666 139.03888879 37.30182016 141.20294577 35.828125 143.3671875 C35.1877832 144.30675293 34.54744141 145.24631836 33.88769531 146.21435547 C32.51757036 148.23622894 31.18870979 150.28626034 29.88574219 152.35205078 C29.26344727 153.22587402 28.64115234 154.09969727 28 155 C27.34 155 26.68 155 26 155 C25.79020508 154.31301025 25.58041016 153.62602051 25.36425781 152.91821289 C16.36785468 123.83418187 4.30588666 97.03667832 -16 74 C-16.85078125 73.02804688 -17.7015625 72.05609375 -18.578125 71.0546875 C-34.09166749 53.58794068 -52.21266691 39.65847333 -73 29 C-73.66290039 28.65630371 -74.32580078 28.31260742 -75.00878906 27.95849609 C-120.08980074 4.85420656 -172.99950204 1.79294569 -221 17 C-232.18531217 20.62119643 -242.64229321 25.46344012 -253 31 C-253.61649414 31.32758301 -254.23298828 31.65516602 -254.86816406 31.99267578 C-263.48669683 36.61517585 -271.33647748 41.92384635 -279 48 C-280.30130859 48.99386719 -280.30130859 48.99386719 -281.62890625 50.0078125 C-321.03030202 80.89474868 -345.70631767 127.64640441 -351.98217773 177.0168457 C-357.57306787 226.24420011 -344.09343267 277.04918995 -313.5625 316.25 C-308.3510401 322.78645422 -302.76059506 328.94694396 -297 335 C-296.02160156 336.05767578 -296.02160156 336.05767578 -295.0234375 337.13671875 C-274.32523625 358.8478107 -245.43863602 374.46898993 -217 383 C-216.22769043 383.23799316 -215.45538086 383.47598633 -214.65966797 383.72119141 C-188.11907172 391.78224811 -160.48530446 392.57818601 -133 390 C-136.45422432 396.55880296 -140.37697497 402.60102944 -144.6875 408.625 C-145.94266425 410.3988501 -147.19656341 412.17359603 -148.44921875 413.94921875 C-149.05813965 414.81208496 -149.66706055 415.67495117 -150.29443359 416.56396484 C-152.17561074 419.25082221 -154.02166112 421.95754896 -155.83740234 424.68896484 C-156.61247851 425.85467159 -157.39539191 427.01520518 -158.18603516 428.17041016 C-160.70871262 431.89214428 -162.95578839 435.69156585 -165.12890625 439.62890625 C-173.38214141 454.08582716 -173.38214141 454.08582716 -179.69140625 456.2890625 C-183.47562716 456.13123005 -186.69098758 455.5909123 -190.33642578 454.64257812 C-193.36512566 453.91191469 -196.38306724 453.44119989 -199.46484375 452.984375 C-222.2599641 449.510848 -243.88442924 443.22130027 -265 434 C-266.10698242 433.51877686 -266.10698242 433.51877686 -267.23632812 433.02783203 C-288.99072395 423.45803637 -309.00993902 410.52252471 -327 395 C-327.75667969 394.35417969 -328.51335937 393.70835937 -329.29296875 393.04296875 C-341.44290701 382.39905299 -353.25935527 370.90863012 -363 358 C-363.61270752 357.20988525 -363.61270752 357.20988525 -364.23779297 356.40380859 C-382.647589 332.64462266 -396.54915574 305.45698556 -405.75 276.875 C-406.15424194 275.62565674 -406.15424194 275.62565674 -406.56665039 274.35107422 C-408.3357952 268.66823456 -409.75670072 262.9314166 -411.10253906 257.13720703 C-411.28591827 256.35257584 -411.46929749 255.56794464 -411.65823364 254.75953674 C-412.10668364 252.83996984 -412.55350778 250.92002323 -413 249 C-413.00089563 249.85444586 -413.00089563 249.85444586 -413.00180936 250.72615325 C-413.0377213 284.50441204 -413.09438787 318.2825677 -413.17792095 352.06074195 C-413.18793813 356.11861927 -413.19778231 360.176497 -413.20751953 364.234375 C-413.21043159 365.44612525 -413.21043159 365.44612525 -413.21340248 366.6823553 C-413.24440406 379.75414531 -413.26139798 392.82591777 -413.27319422 405.89773761 C-413.28561533 419.31560313 -413.31313839 432.73337672 -413.35461307 446.1511842 C-413.37972103 454.42739403 -413.39311926 462.70345135 -413.39142957 470.97969981 C-413.39139976 476.6588716 -413.40606968 482.33788831 -413.43216428 488.01699965 C-413.44677874 491.29118465 -413.45285784 494.56498885 -413.44580269 497.8392086 C-413.43915975 501.39622647 -413.45709258 504.9523218 -413.48101807 508.50924683 C-413.47325765 509.5345654 -413.46549723 510.55988397 -413.45750165 511.61627281 C-413.57219686 521.27384622 -416.33286073 529.1439832 -423 536.2421875 C-430.95485594 543.2337601 -438.85529455 544.47903704 -449.1640625 544.27734375 C-457.53407645 543.67217981 -464.38983471 540.23987772 -470 534 C-474.89374768 527.49235681 -477.24595136 521.36204281 -477.26171303 513.13970375 C-477.26770712 512.13655543 -477.26770712 512.13655543 -477.27382231 511.11314148 C-477.2847833 508.87423119 -477.28159722 506.6355686 -477.2784729 504.39663696 C-477.28347652 502.77453405 -477.2893525 501.15243364 -477.29602563 499.53033674 C-477.31183168 495.07446313 -477.31525665 490.61865256 -477.31667423 486.1627543 C-477.32036721 481.3570706 -477.33552219 476.55142154 -477.34928894 471.74575806 C-477.37156878 463.42011502 -477.38657772 455.0944843 -477.39665604 446.7688179 C-477.41123811 434.73128799 -477.43677363 422.69380095 -477.46498732 410.65629618 C-477.51046388 391.12650698 -477.54707512 371.59671161 -477.578125 352.06689453 C-477.608307 333.0948783 -477.64265567 314.12287717 -477.68261719 295.15087891 C-477.68507874 293.98155298 -477.68754028 292.81222706 -477.69007643 291.60746701 C-477.70245096 285.74133474 -477.71490751 279.87520265 -477.72740483 274.00907063 C-477.83098556 225.33940149 -477.92018456 176.66971352 -478 128 C-478.89678467 128.90566711 -479.79356934 129.81133423 -480.7175293 130.7444458 C-489.18098603 139.28908135 -497.65505491 147.8230653 -506.13955688 156.34680557 C-510.50091156 160.72901135 -514.85847666 165.11484996 -519.20751953 169.50927734 C-523.40677234 173.75207456 -527.61579533 177.98495107 -531.83169556 182.21120453 C-533.43630879 183.82319356 -535.03740437 185.43869224 -536.63485718 187.0577774 C-538.87749317 189.32955982 -541.13245138 191.58840243 -543.390625 193.84472656 C-544.04446671 194.51294937 -544.69830841 195.18117218 -545.3719635 195.86964417 C-552.35862402 202.79485975 -559.31945256 206.10852262 -569.1875 206.25 C-579.4780245 206.12352428 -586.57614051 203.2364611 -594 196 C-601.00260047 187.17433809 -601.88279238 178.01770744 -601 167 C-598.27217011 153.6537719 -585.20821407 144.04780428 -575.96948242 134.76074219 C-574.78551009 133.56720569 -573.60170241 132.37350584 -572.41804504 131.17965698 C-568.56768801 127.29824409 -564.71206912 123.42208329 -560.85546875 119.546875 C-560.19630156 118.88441049 -559.53713437 118.22194597 -558.85799241 117.53940678 C-552.62899547 111.27967192 -546.39796157 105.02197124 -540.16208935 98.76908493 C-532.22452767 90.80959734 -524.2972153 82.84019702 -516.38346976 74.85702777 C-510.79454135 69.22075822 -505.19407129 63.59612092 -499.58504945 57.97984815 C-496.24498659 54.63484998 -492.91008864 51.28506891 -489.58757591 47.92263031 C-486.4627087 44.76069809 -483.32368054 41.61352415 -480.17362785 38.47668839 C-479.02685512 37.32986205 -477.88511655 36.17797358 -476.74914169 35.02045059 C-468.742071 26.8697986 -459.61999388 18.38828427 -447.50927734 18.16601562 C-446.84621582 18.19373047 -446.1831543 18.22144531 -445.5 18.25 C-444.78150879 18.26740234 -444.06301758 18.28480469 -443.32275391 18.30273438 C-434.43921897 18.78603037 -427.17299991 22.34258237 -421 28.75 C-415.10632308 36.54445 -413.40396435 44.34367161 -413.45410156 53.95751953 C-413.44376389 55.00261185 -413.43342621 56.04770416 -413.42277527 57.12446594 C-413.39351589 60.54407523 -413.39185163 63.96308828 -413.390625 67.3828125 C-413.37563202 69.76749794 -413.35890254 72.15217304 -413.34051514 74.53683472 C-413.29695536 80.78715511 -413.27686758 87.03733544 -413.26177979 93.28778076 C-413.24216779 99.67631269 -413.20020233 106.06469427 -413.16015625 112.453125 C-413.08497719 124.9687035 -413.03461114 137.48424814 -413 150 C-412.70843521 148.80624756 -412.70843521 148.80624756 -412.41098022 147.58837891 C-411.67566932 144.58686524 -410.93643168 141.58635164 -410.19467163 138.58642578 C-409.72179419 136.66902127 -409.25330119 134.75053713 -408.78491211 132.83203125 C-406.23952138 122.55631913 -403.09048113 112.75743661 -399 103 C-398.66242676 102.19159668 -398.32485352 101.38319336 -397.97705078 100.55029297 C-390.20336041 82.16738306 -380.75755212 65.12818286 -369 49 C-368.5771875 48.41879395 -368.154375 47.83758789 -367.71875 47.23876953 C-362.4231226 40.02140859 -356.72327269 33.30920447 -350.59765625 26.78515625 C-348.27707802 24.29707763 -346.03741665 21.76074019 -343.8125 19.1875 C-340.84858509 15.84787756 -337.7662624 12.85852395 -334.3515625 9.984375 C-332.57141497 8.48219071 -330.8211947 6.9444478 -329.0859375 5.390625 C-313.70566142 -8.31445681 -296.80190844 -19.31974158 -278.49707031 -28.71728516 C-276.96221955 -29.50571944 -275.43179951 -30.30294295 -273.90917969 -31.11474609 C-251.63995191 -42.98675163 -225.80974237 -50.14112151 -201 -54 C-200.23993652 -54.12165527 -199.47987305 -54.24331055 -198.69677734 -54.36865234 C-194.14172638 -55.07805412 -189.59124001 -55.59282581 -185 -56 C-183.98752197 -56.0925708 -183.98752197 -56.0925708 -182.95458984 -56.18701172 C-117.12921973 -61.8748789 -51.22641075 -41.50999671 0 0 Z " fill="#c29964" transform="translate(601,57)"/>
<path d="M0 0 C30.36 0 60.72 0 92 0 C92 9.9 92 19.8 92 30 C73.19 30 54.38 30 35 30 C35 35.94 35 41.88 35 48 C52.16 48 69.32 48 87 48 C87 57.9 87 67.8 87 78 C69.84 78 52.68 78 35 78 C35 84.6 35 91.2 35 98 C54.14 98 73.28 98 93 98 C93 107.9 93 117.8 93 128 C62.31 128 31.62 128 0 128 C0 85.76 0 43.52 0 0 Z " fill="#c29964" transform="translate(679,237)"/>
<path d="M0 0 C30.36 0 60.72 0 92 0 C92 9.9 92 19.8 92 30 C72.86 30 53.72 30 34 30 C34 35.94 34 41.88 34 48 C51.16 48 68.32 48 86 48 C86 57.9 86 67.8 86 78 C68.84 78 51.68 78 34 78 C34 84.6 34 91.2 34 98 C53.47 98 72.94 98 93 98 C93 107.9 93 117.8 93 128 C62.31 128 31.62 128 0 128 C0 85.76 0 43.52 0 0 Z " fill="#c29964" transform="translate(372,237)"/>
<path d="M0 0 C5.40801818 4.58386446 5.40801818 4.58386446 7.69140625 7.28125 C7.49613315 11.31618646 4.98341152 13.3343769 2.21875 16.046875 C1.31962891 16.93632812 0.42050781 17.82578125 -0.50585938 18.7421875 C-1.45138672 19.66257812 -2.39691406 20.58296875 -3.37109375 21.53125 C-4.33076348 22.47586673 -5.28975604 23.42117195 -6.24804688 24.3671875 C-8.59498203 26.67874172 -10.94862766 28.9830134 -13.30859375 31.28125 C-16.00605822 30.06070306 -17.22855453 29.38701612 -19.05859375 26.96875 C-24.80305071 20.1073153 -33.28363534 16.91046597 -42.0390625 15.99609375 C-52.1862638 15.66691797 -61.70530771 18.33216639 -69.30859375 25.28125 C-75.38325921 33.16400647 -77.7044469 41.25523562 -77.68359375 51.09375 C-77.68198242 51.88620117 -77.68037109 52.67865234 -77.67871094 53.49511719 C-77.54787043 59.75750316 -76.45757751 64.79767484 -73.30859375 70.28125 C-72.38046875 71.9209375 -72.38046875 71.9209375 -71.43359375 73.59375 C-66.18917703 80.22639467 -59.75097314 84.26768947 -51.4140625 85.8203125 C-41.76395842 86.88566417 -32.51268929 85.7733888 -24.30859375 80.28125 C-19.41264563 76.25636014 -16.1758506 71.90107343 -13.30859375 66.28125 C-10.43865187 67.60004167 -8.22113628 69.05220302 -5.87109375 71.15625 C-4.85208984 72.06697266 -4.85208984 72.06697266 -3.8125 72.99609375 C1.37819901 77.73331516 6.54121421 82.50005037 11.69140625 87.28125 C7.50041719 98.58538562 -3.27392211 106.11576149 -13.87109375 111.15625 C-33.43143909 119.31812072 -55.82430457 119.79118159 -75.62109375 112.03125 C-91.56231106 104.78524213 -103.53426195 93.95922313 -109.88671875 77.35546875 C-115.97652804 60.16380871 -116.65501024 40.54231653 -109.49609375 23.46875 C-108.79181615 22.06019479 -108.06179541 20.66426192 -107.30859375 19.28125 C-106.89996094 18.48460937 -106.49132812 17.68796875 -106.0703125 16.8671875 C-98.1051186 2.37277832 -85.23963539 -6.62221787 -69.765625 -11.71875 C-45.79512784 -18.65258873 -19.90638788 -15.38343988 0 0 Z " fill="#c29964" transform="translate(891.30859375,249.71875)"/>
<path d="M0 0 C2.09050198 1.58893984 4.0333428 3.25523766 6 5 C5.43190752 8.78825786 4.39204456 11.36859535 2.3125 14.57421875 C1.77882813 15.40630859 1.24515625 16.23839844 0.6953125 17.09570312 C0.13585937 17.95099609 -0.42359375 18.80628906 -1 19.6875 C-2.1047545 21.39936037 -3.20894903 23.11158228 -4.3125 24.82421875 C-4.80363281 25.57791748 -5.29476562 26.33161621 -5.80078125 27.1081543 C-7.0325736 28.98086014 -7.0325736 28.98086014 -8 31 C-11.68693637 30.36402496 -14.12288437 28.72114402 -17.1875 26.625 C-24.83678933 21.67785006 -31.79240237 18.94719329 -41 20 C-43.9132056 20.72674137 -43.9132056 20.72674137 -46 22 C-47.35439668 24.70879335 -47.06501451 27.00933268 -47 30 C-41.35493379 33.50678356 -35.64782974 35.66971815 -29.375 37.8125 C-14.62560365 43.02563818 -1.50650942 48.44793618 6.73828125 62.33984375 C11.35277574 72.06885535 11.77455154 84.6560017 8.5625 94.9375 C4.15966257 105.13844024 -4.80178705 113.07366768 -14.98828125 117.21484375 C-31.55022594 123.01049314 -49.2580261 122.72603989 -65.27392578 115.28125 C-71.94721273 112.00586491 -77.82990736 108.44220278 -83 103 C-82.41279381 99.11470308 -81.25117945 96.30465526 -79.27734375 92.91796875 C-78.73916016 91.98662109 -78.20097656 91.05527344 -77.64648438 90.09570312 C-77.08251953 89.13599609 -76.51855469 88.17628906 -75.9375 87.1875 C-75.36966797 86.20845703 -74.80183594 85.22941406 -74.21679688 84.22070312 C-72.81745173 81.81006652 -71.41170071 79.4034149 -70 77 C-66.80987424 78.54429944 -64.1016081 80.32603858 -61.25 82.4375 C-52.69652795 88.43490533 -43.80617234 91.10101161 -33.23046875 89.609375 C-31.13578427 89.1475548 -29.06375195 88.58472972 -27 88 C-26.05728998 84.74360341 -26.05728998 84.74360341 -26 81 C-29.47140216 76.62388878 -33.26821113 74.74475212 -38.4375 73 C-39.13834717 72.74855225 -39.83919434 72.49710449 -40.5612793 72.23803711 C-43.95013788 71.02792152 -47.35640426 69.88230542 -50.7734375 68.75390625 C-61.88727287 65.01249368 -74.56889054 59.50989829 -80.27734375 48.546875 C-85.02506221 37.26048379 -85.398943 25.55835353 -81.29296875 14.01171875 C-77.07425744 4.3992213 -69.65303876 -2.58001241 -60.16015625 -6.81640625 C-39.38889422 -14.5960013 -18.59611517 -11.60413859 0 0 Z " fill="#c29964" transform="translate(556,246)"/>
<path d="M0 0 C35.31 0 70.62 0 107 0 C107 9.9 107 19.8 107 30 C95.12 30 83.24 30 71 30 C71 62.34 71 94.68 71 128 C59.45 128 47.9 128 36 128 C36 95.66 36 63.32 36 30 C24.12 30 12.24 30 0 30 C0 20.1 0 10.2 0 0 Z " fill="#c29964" transform="translate(565,237)"/>
<path d="M0 0 C11.55 0 23.1 0 35 0 C35 42.24 35 84.48 35 128 C23.45 128 11.9 128 0 128 C0 85.76 0 43.52 0 0 Z " fill="#c29964" transform="translate(318,237)"/>
</svg>
