<?xml version="1.0" encoding="UTF-8"?>
<svg id="Capa_2" data-name="Capa 2" xmlns="http://www.w3.org/2000/svg" viewBox="0 0 993.81 182.59">
  <defs>
    <style>
      .cls-1 {
        fill: #302781;
      }
    </style>
  </defs>
  <g id="Capa_1-2" data-name="Capa 1">
    <g>
      <g>
        <path d="M58.26,4.91h33v114.63c0,18.24-1.45,31.05-4.35,38.41-2.9,7.36-7.67,13.21-14.33,17.56-6.66,4.35-14.64,6.52-23.96,6.52-19.03,0-35.24-8.34-48.62-25.02l23.72-22.2c5.25,5.95,9.71,9.94,13.39,11.98,3.68,2.04,7.24,3.05,10.69,3.05s6.15-1.49,7.87-4.46,2.58-9.51,2.58-19.61V4.91Z"/>
        <path d="M128.37,4.91h32.65v172.77h-32.65V4.91Z"/>
        <g>
          <path class="cls-1" d="M458.45,135.57l-81.43-28.66c.99-5.21,1.58-10.59,1.58-16.15,0-17.07-6.05-33.77-16.35-47.87l-23.21,20.48c4.95,8.59,7.67,18.46,7.67,28.8,0,9.18-2.37,17.71-6.57,25.21l21.45,24.3c2.35-3.1,4.49-6.36,6.39-9.77l81.23,28.59c7.07,2.49,14.86-1.08,17.41-7.97,2.55-6.89-1.11-14.49-8.18-16.98Z"/>
          <path d="M307.76,145.08c-7.9,3.57-16.62,5.35-26.16,5.35-11.19,0-21.36-2.54-30.52-7.64-9.15-5.09-16.23-12.11-21.24-21.04-5-8.94-7.51-19.16-7.51-30.68,0-16.54,5.66-30.45,16.95-41.73,11.31-11.29,25.21-16.93,41.72-16.93s31.98,6.06,45.84,18.13l24.23-21.39c-8.28-8.17-17.74-14.68-28.39-19.55-13.19-6.01-26.92-9.02-41.17-9.02-16.76,0-32.4,4.07-46.92,12.21-14.52,8.14-25.68,18.91-33.47,32.3-7.79,13.39-11.69,28.7-11.69,45.92,0,26.62,8.55,48.45,25.66,65.48,17.11,17.03,39.09,25.55,65.95,25.55,14.56,0,27.52-2.41,38.88-7.22,9.42-3.99,19.32-10.63,29.71-19.88l-21.28-24.12c-7.37,6.65-14.24,11.41-20.6,14.28Z"/>
        </g>
      </g>
      <g>
        <g>
          <path class="cls-1" d="M499.51.98h7.44v25.85c0,4.11-.33,7-.98,8.66s-1.73,2.98-3.23,3.96c-1.5.98-3.3,1.47-5.4,1.47-4.29,0-7.95-1.88-10.97-5.64l5.35-5.01c1.18,1.34,2.19,2.24,3.02,2.7.83.46,1.63.69,2.41.69s1.39-.34,1.77-1.01.58-2.15.58-4.42V.98Z"/>
          <path class="cls-1" d="M534.24,0c5.51,0,10.25,2,14.22,5.99,3.97,3.99,5.95,8.86,5.95,14.59s-1.96,10.5-5.87,14.44c-3.91,3.94-8.66,5.91-14.25,5.91s-10.71-2.02-14.58-6.07c-3.87-4.04-5.81-8.85-5.81-14.41,0-3.73.9-7.15,2.7-10.28,1.8-3.13,4.28-5.6,7.43-7.43s6.55-2.74,10.19-2.74ZM534.17,7.26c-3.61,0-6.64,1.25-9.09,3.76-2.46,2.51-3.69,5.69-3.69,9.56,0,4.31,1.55,7.72,4.64,10.22,2.4,1.96,5.16,2.94,8.27,2.94,3.52,0,6.51-1.27,8.99-3.81,2.47-2.54,3.71-5.68,3.71-9.4s-1.25-6.85-3.74-9.42c-2.49-2.57-5.52-3.85-9.09-3.85Z"/>
          <path class="cls-1" d="M561.91.98h7.86c4.3,0,7.37.38,9.19,1.15,1.83.77,3.29,2.04,4.41,3.83,1.11,1.78,1.67,3.89,1.67,6.33,0,2.56-.61,4.7-1.84,6.42-1.23,1.72-3.08,3.02-5.55,3.91l9.23,17.32h-8.11l-8.76-16.5h-.68v16.5h-7.42V.98ZM569.33,16.21h2.32c2.36,0,3.98-.31,4.87-.93s1.33-1.65,1.33-3.08c0-.85-.22-1.59-.66-2.22-.44-.63-1.03-1.08-1.77-1.36-.74-.28-2.09-.41-4.07-.41h-2.03v8Z"/>
          <path class="cls-1" d="M592.9.98h7.11l16.67,25.64V.98h7.42v38.96h-7.13l-16.65-25.56v25.56h-7.42V.98Z"/>
          <path class="cls-1" d="M644.89.98h7.52l14.99,38.96h-7.71l-3.05-8.03h-15.9l-3.17,8.03h-7.71l15.03-38.96ZM648.7,11.31l-5.23,13.38h10.42l-5.2-13.38Z"/>
          <path class="cls-1" d="M673.16.98h8.79c5.66,0,9.87.7,12.62,2.11,2.75,1.4,5.02,3.69,6.8,6.85,1.78,3.16,2.67,6.85,2.67,11.07,0,3-.5,5.76-1.49,8.28-1,2.52-2.38,4.6-4.13,6.26s-3.66,2.81-5.7,3.44c-2.05.64-5.59.95-10.64.95h-8.92V.98ZM680.52,8.13v24.58h3.44c3.39,0,5.85-.39,7.38-1.17,1.53-.78,2.78-2.09,3.75-3.92.97-1.84,1.46-4.1,1.46-6.79,0-4.14-1.16-7.34-3.47-9.62-2.08-2.05-5.43-3.08-10.04-3.08h-2.52Z"/>
          <path class="cls-1" d="M723.01.98h7.51l14.99,38.96h-7.71l-3.05-8.03h-15.89l-3.17,8.03h-7.71l15.03-38.96ZM726.81,11.31l-5.23,13.38h10.42l-5.19-13.38Z"/>
          <path class="cls-1" d="M766.45.98h8.79c5.66,0,9.87.7,12.63,2.11,2.75,1.4,5.02,3.69,6.8,6.85,1.78,3.16,2.68,6.85,2.68,11.07,0,3-.5,5.76-1.5,8.28s-2.37,4.6-4.13,6.26c-1.76,1.66-3.66,2.81-5.7,3.44-2.04.64-5.59.95-10.64.95h-8.92V.98ZM773.81,8.13v24.58h3.44c3.39,0,5.85-.39,7.38-1.17,1.53-.78,2.78-2.09,3.75-3.92.97-1.84,1.46-4.1,1.46-6.79,0-4.14-1.16-7.34-3.47-9.62-2.08-2.05-5.43-3.08-10.04-3.08h-2.52Z"/>
          <path class="cls-1" d="M804.43.98h21.27v7.26h-13.91v7.05h13.91v7.13h-13.91v10.25h13.91v7.28h-21.27V.98Z"/>
        </g>
        <g>
          <path class="cls-1" d="M486.37,50.78h12.34v65.28h-12.34V50.78Z"/>
          <path class="cls-1" d="M512.73,50.78h11.92l27.93,42.96v-42.96h12.43v65.28h-11.95l-27.9-42.82v42.82h-12.43V50.78Z"/>
          <path class="cls-1" d="M579.03,50.78h12.34v65.28h-12.34V50.78Z"/>
          <path class="cls-1" d="M665.34,62.26l-8.69,8.28c-5.91-6.25-12.56-9.37-19.95-9.37-6.24,0-11.49,2.13-15.76,6.4-4.27,4.26-6.41,9.52-6.41,15.77,0,4.35.95,8.22,2.84,11.59,1.89,3.38,4.57,6.03,8.02,7.95,3.46,1.93,7.3,2.89,11.53,2.89,3.61,0,6.9-.67,9.88-2.02,2.99-1.35,6.27-3.8,9.84-7.35l8.42,8.79c-4.82,4.71-9.38,7.97-13.67,9.79-4.29,1.82-9.19,2.73-14.69,2.73-10.15,0-18.45-3.22-24.92-9.65-6.46-6.43-9.7-14.68-9.7-24.74,0-6.51,1.47-12.29,4.42-17.35,2.94-5.06,7.16-9.13,12.65-12.2,5.49-3.08,11.4-4.62,17.73-4.62,5.38,0,10.57,1.14,15.55,3.41,4.98,2.28,9.28,5.51,12.89,9.7Z"/>
          <path class="cls-1" d="M675.32,50.78h12.34v65.28h-12.34V50.78Z"/>
          <path class="cls-1" d="M721.55,50.78h12.6l25.11,65.28h-12.91l-5.11-13.45h-26.64l-5.31,13.45h-12.91l25.17-65.28ZM727.93,68.09l-8.76,22.41h17.46l-8.71-22.41Z"/>
          <path class="cls-1" d="M828.87,62.26l-8.69,8.28c-5.91-6.25-12.56-9.37-19.95-9.37-6.24,0-11.49,2.13-15.76,6.4-4.27,4.26-6.41,9.52-6.41,15.77,0,4.35.95,8.22,2.84,11.59,1.89,3.38,4.57,6.03,8.02,7.95,3.46,1.93,7.3,2.89,11.53,2.89,3.61,0,6.9-.67,9.88-2.02,2.99-1.35,6.27-3.8,9.84-7.35l8.42,8.79c-4.82,4.71-9.38,7.97-13.67,9.79-4.29,1.82-9.19,2.73-14.69,2.73-10.15,0-18.45-3.22-24.92-9.65-6.46-6.43-9.7-14.68-9.7-24.74,0-6.51,1.47-12.29,4.42-17.35,2.94-5.06,7.16-9.13,12.65-12.2,5.49-3.08,11.4-4.62,17.73-4.62,5.38,0,10.57,1.14,15.55,3.41,4.98,2.28,9.28,5.51,12.89,9.7Z"/>
          <path class="cls-1" d="M838.85,50.78h12.34v65.28h-12.34V50.78Z"/>
          <path class="cls-1" d="M895.99,49.14c9.23,0,17.17,3.34,23.82,10.03,6.66,6.69,9.97,14.84,9.97,24.45s-3.27,17.59-9.84,24.19c-6.55,6.6-14.51,9.9-23.86,9.9-9.81,0-17.94-3.39-24.42-10.16-6.49-6.77-9.73-14.82-9.73-24.14,0-6.24,1.51-11.98,4.53-17.22,3.02-5.24,7.17-9.39,12.45-12.45,5.3-3.06,10.98-4.59,17.09-4.59ZM895.86,61.3c-6.05,0-11.12,2.1-15.24,6.3-4.13,4.2-6.18,9.54-6.18,16.02,0,7.22,2.59,12.93,7.78,17.13,4.02,3.28,8.64,4.93,13.86,4.93,5.89,0,10.9-2.13,15.06-6.39,4.14-4.26,6.21-9.51,6.21-15.75s-2.09-11.47-6.26-15.78c-4.19-4.3-9.26-6.46-15.24-6.46ZM898.14,28.33h14.33l-16.24,17.4h-8.7l10.61-17.4Z"/>
          <path class="cls-1" d="M941.54,50.78h11.92l27.93,42.96v-42.96h12.43v65.28h-11.95l-27.9-42.82v42.82h-12.43V50.78Z"/>
        </g>
        <g>
          <path class="cls-1" d="M532.35,143.1l-3.71,2.85c-2.05-2.66-4.5-4.68-7.37-6.06-2.87-1.37-6.02-2.06-9.45-2.06-3.75,0-7.23.9-10.42,2.7-3.2,1.8-5.68,4.22-7.43,7.26-1.76,3.04-2.64,6.45-2.64,10.25,0,5.73,1.97,10.52,5.9,14.36,3.93,3.84,8.89,5.76,14.88,5.76,6.59,0,12.1-2.58,16.53-7.74l3.71,2.81c-2.34,2.98-5.27,5.29-8.78,6.92-3.51,1.63-7.42,2.45-11.75,2.45-8.23,0-14.72-2.74-19.47-8.22-3.99-4.63-5.98-10.21-5.98-16.75,0-6.89,2.41-12.68,7.24-17.38,4.83-4.7,10.88-7.05,18.15-7.05,4.39,0,8.36.87,11.89,2.61,3.54,1.74,6.44,4.17,8.7,7.31Z"/>
          <path class="cls-1" d="M541.11,134.37h4.7v47.04h-4.7v-47.04Z"/>
          <path class="cls-1" d="M556.62,134.37h26.95v4.6h-22.25v14.74h22.06v4.6h-22.06v18.48h22.06v4.6h-26.76v-47.04Z"/>
          <path class="cls-1" d="M591.73,181.41v-47.04h1.02l31.3,36.05v-36.05h4.64v47.04h-1.06l-31.05-35.61v35.61h-4.86Z"/>
          <path class="cls-1" d="M635.47,138.98v-4.6h25.77v4.6h-10.49v42.43h-4.8v-42.43h-10.49Z"/>
          <path class="cls-1" d="M671.89,120.82h6.87l-9.43,9.85h-4.41l6.97-9.85ZM667.35,134.37h4.7v47.04h-4.7v-47.04Z"/>
          <path class="cls-1" d="M682.82,134.37h23.57v4.6h-18.87v14.74h18.87v4.6h-18.87v23.09h-4.7v-47.04Z"/>
          <path class="cls-1" d="M713.9,134.37h4.7v47.04h-4.7v-47.04Z"/>
          <path class="cls-1" d="M773.18,143.1l-3.71,2.85c-2.05-2.66-4.5-4.68-7.37-6.06-2.87-1.37-6.02-2.06-9.45-2.06-3.75,0-7.23.9-10.42,2.7-3.2,1.8-5.68,4.22-7.43,7.26-1.76,3.04-2.64,6.45-2.64,10.25,0,5.73,1.97,10.52,5.9,14.36,3.93,3.84,8.89,5.76,14.88,5.76,6.59,0,12.09-2.58,16.53-7.74l3.71,2.81c-2.34,2.98-5.27,5.29-8.77,6.92-3.51,1.63-7.43,2.45-11.75,2.45-8.23,0-14.72-2.74-19.47-8.22-3.99-4.63-5.98-10.21-5.98-16.75,0-6.89,2.41-12.68,7.24-17.38s10.88-7.05,18.15-7.05c4.39,0,8.36.87,11.89,2.61,3.54,1.74,6.44,4.17,8.7,7.31Z"/>
          <path class="cls-1" d="M801.83,134.37l21.93,47.04h-5.08l-7.4-15.48h-20.26l-7.33,15.48h-5.24l22.22-47.04h1.15ZM801.24,144.37l-8.06,17.03h16.08l-8.02-17.03Z"/>
        </g>
      </g>
    </g>
  </g>
</svg>