<?xml version="1.0" encoding="UTF-8"?>
<svg id="Capa_2" data-name="Capa 2" xmlns="http://www.w3.org/2000/svg" viewBox="0 0 769.99 579.52">
  <defs>
    <style>
      .cls-1 {
        fill: #fff;
      }
    </style>
  </defs>
  <g id="Capa_1-2" data-name="Capa 1">
    <g>
      <g>
        <path class="cls-1" d="M88.4,6.59h50.08v173.94c0,27.68-2.2,47.11-6.59,58.28-4.4,11.17-11.64,20.05-21.74,26.64-10.1,6.59-22.22,9.89-36.36,9.89-28.87,0-53.47-12.65-73.78-37.96l36-33.68c7.96,9.03,14.73,15.09,20.32,18.18,5.58,3.09,10.99,4.63,16.22,4.63s9.33-2.26,11.94-6.77c2.61-4.51,3.92-14.44,3.92-29.76V6.59Z"/>
        <path class="cls-1" d="M194.79,6.59h49.54v262.16h-49.54V6.59Z"/>
        <g>
          <path class="cls-1" d="M695.65,204.85l-123.56-43.48c1.5-7.91,2.39-16.06,2.39-24.5,0-25.9-9.19-51.24-24.8-72.64l-35.21,31.08c7.51,13.03,11.64,28.01,11.64,43.71,0,13.93-3.6,26.88-9.97,38.26l32.55,36.88c3.56-4.7,6.81-9.64,9.7-14.82l123.26,43.38c10.72,3.77,22.55-1.64,26.42-12.1,3.87-10.45-1.69-21.99-12.41-25.76Z"/>
          <path class="cls-1" d="M466.99,219.28c-11.99,5.42-25.22,8.12-39.7,8.12-16.98,0-32.41-3.86-46.31-11.6-13.89-7.72-24.62-18.37-32.23-31.93-7.59-13.56-11.39-29.08-11.39-46.56,0-25.1,8.58-46.2,25.72-63.33,17.17-17.12,38.26-25.69,63.31-25.69s48.53,9.19,69.55,27.51l36.77-32.45c-12.56-12.39-26.92-22.27-43.07-29.66-20.02-9.12-40.84-13.69-62.46-13.69-25.43,0-49.16,6.18-71.2,18.53-22.04,12.36-38.97,28.69-50.79,49.01-11.82,20.32-17.73,43.54-17.73,69.68,0,40.4,12.98,73.51,38.94,99.36,25.96,25.84,59.32,38.76,100.07,38.76,22.1,0,41.76-3.65,58.99-10.96,14.29-6.06,29.32-16.13,45.08-30.17l-32.3-36.6c-11.18,10.09-21.6,17.32-31.26,21.67Z"/>
        </g>
      </g>
      <g>
        <g>
          <path class="cls-1" d="M19.94,303.95h11.29v39.23c0,6.24-.5,10.62-1.49,13.14-.99,2.52-2.63,4.52-4.9,6.01-2.28,1.49-5.01,2.23-8.2,2.23-6.51,0-12.06-2.85-16.64-8.56l8.12-7.6c1.8,2.04,3.32,3.4,4.58,4.1,1.26.7,2.48,1.04,3.66,1.04s2.1-.51,2.69-1.53.88-3.26.88-6.71v-41.36Z"/>
          <path class="cls-1" d="M72.65,302.46c8.37,0,15.56,3.03,21.58,9.08,6.02,6.06,9.03,13.44,9.03,22.15s-2.97,15.93-8.91,21.9c-5.94,5.98-13.14,8.96-21.62,8.96s-16.25-3.07-22.12-9.2c-5.87-6.14-8.81-13.42-8.81-21.86,0-5.65,1.37-10.85,4.1-15.59,2.73-4.74,6.49-8.5,11.28-11.27,4.79-2.77,9.94-4.16,15.46-4.16ZM72.53,313.47c-5.47,0-10.07,1.9-13.8,5.71-3.73,3.8-5.59,8.64-5.59,14.51,0,6.54,2.35,11.71,7.04,15.51,3.65,2.97,7.83,4.46,12.55,4.46,5.34,0,9.88-1.93,13.64-5.79,3.75-3.86,5.63-8.61,5.63-14.27s-1.89-10.39-5.67-14.29c-3.78-3.9-8.38-5.85-13.8-5.85Z"/>
          <path class="cls-1" d="M114.63,303.95h11.92c6.53,0,11.18.58,13.95,1.75,2.77,1.17,5,3.1,6.69,5.81,1.68,2.71,2.53,5.91,2.53,9.61,0,3.89-.93,7.13-2.79,9.75-1.86,2.61-4.67,4.59-8.42,5.93l14.01,26.29h-12.3l-13.29-25.04h-1.03v25.04h-11.25v-59.12ZM125.88,327.06h3.53c3.58,0,6.04-.47,7.39-1.41s2.02-2.5,2.02-4.68c0-1.29-.33-2.41-1-3.37-.67-.95-1.56-1.64-2.69-2.06-1.12-.42-3.18-.63-6.17-.63h-3.08v12.14Z"/>
          <path class="cls-1" d="M161.65,303.95h10.79l25.3,38.91v-38.91h11.25v59.12h-10.83l-25.27-38.79v38.79h-11.25v-59.12Z"/>
          <path class="cls-1" d="M240.54,303.95h11.41l22.74,59.12h-11.7l-4.63-12.18h-24.13l-4.81,12.18h-11.7l22.8-59.12ZM246.32,319.62l-7.93,20.3h15.82l-7.88-20.3Z"/>
          <path class="cls-1" d="M283.43,303.95h13.33c8.59,0,14.98,1.07,19.15,3.2,4.17,2.13,7.62,5.59,10.32,10.39,2.7,4.8,4.06,10.4,4.06,16.8,0,4.56-.76,8.74-2.27,12.56-1.51,3.82-3.6,6.99-6.27,9.51-2.66,2.52-5.55,4.26-8.65,5.22-3.1.96-8.48,1.45-16.14,1.45h-13.53v-59.12ZM294.61,314.8v37.3h5.22c5.14,0,8.88-.59,11.19-1.77,2.32-1.18,4.21-3.17,5.69-5.95,1.47-2.79,2.21-6.22,2.21-10.3,0-6.28-1.76-11.14-5.27-14.6-3.16-3.11-8.24-4.67-15.23-4.67h-3.82Z"/>
          <path class="cls-1" d="M359.07,303.95h11.4l22.75,59.12h-11.7l-4.64-12.18h-24.12l-4.81,12.18h-11.7l22.81-59.12ZM364.85,319.62l-7.93,20.3h15.81l-7.88-20.3Z"/>
          <path class="cls-1" d="M424.99,303.95h13.33c8.59,0,14.98,1.07,19.16,3.2,4.17,2.13,7.62,5.59,10.32,10.39,2.71,4.8,4.06,10.4,4.06,16.8,0,4.56-.76,8.74-2.27,12.56-1.51,3.82-3.6,6.99-6.26,9.51-2.67,2.52-5.55,4.26-8.65,5.22-3.1.96-8.49,1.45-16.14,1.45h-13.53v-59.12ZM436.16,314.8v37.3h5.22c5.14,0,8.88-.59,11.19-1.77,2.32-1.18,4.21-3.17,5.69-5.95,1.47-2.79,2.21-6.22,2.21-10.3,0-6.28-1.76-11.14-5.27-14.6-3.16-3.11-8.24-4.67-15.23-4.67h-3.82Z"/>
          <path class="cls-1" d="M482.62,303.95h32.27v11.01h-21.1v10.69h21.1v10.81h-21.1v15.55h21.1v11.05h-32.27v-59.12Z"/>
        </g>
        <g>
          <path class="cls-1" d="M0,379.52h18.72v99.05H0v-99.05Z"/>
          <path class="cls-1" d="M40,379.52h18.09l42.38,65.18v-65.18h18.85v99.05h-18.14l-42.33-64.98v64.98h-18.85v-99.05Z"/>
          <path class="cls-1" d="M140.6,379.52h18.72v99.05h-18.72v-99.05Z"/>
          <path class="cls-1" d="M271.57,396.93l-13.19,12.57c-8.97-9.48-19.06-14.22-30.27-14.22-9.47,0-17.43,3.24-23.92,9.71-6.48,6.47-9.72,14.44-9.72,23.93,0,6.6,1.44,12.47,4.3,17.59,2.87,5.12,6.93,9.15,12.18,12.06,5.25,2.92,11.08,4.38,17.5,4.38,5.47,0,10.47-1.02,15-3.07,4.53-2.04,9.51-5.76,14.94-11.15l12.78,13.33c-7.32,7.14-14.23,12.1-20.74,14.86-6.51,2.76-13.94,4.14-22.29,4.14-15.4,0-28-4.88-37.81-14.65-9.81-9.76-14.71-22.28-14.71-37.54,0-9.88,2.23-18.65,6.7-26.33,4.47-7.68,10.86-13.85,19.19-18.52,8.33-4.67,17.29-7,26.9-7,8.17,0,16.04,1.73,23.6,5.17,7.56,3.46,14.08,8.36,19.56,14.72Z"/>
          <path class="cls-1" d="M286.72,379.52h18.72v99.05h-18.72v-99.05Z"/>
          <path class="cls-1" d="M356.87,379.52h19.12l38.1,99.05h-19.59l-7.75-20.4h-40.42l-8.06,20.4h-19.59l38.2-99.05ZM366.55,405.78l-13.29,34.01h26.5l-13.21-34.01Z"/>
          <path class="cls-1" d="M519.71,396.93l-13.19,12.57c-8.97-9.48-19.06-14.22-30.27-14.22-9.47,0-17.43,3.24-23.92,9.71-6.48,6.47-9.72,14.44-9.72,23.93,0,6.6,1.44,12.47,4.3,17.59,2.87,5.12,6.93,9.15,12.18,12.06,5.25,2.92,11.08,4.38,17.5,4.38,5.47,0,10.47-1.02,15-3.07,4.53-2.04,9.51-5.76,14.94-11.15l12.78,13.33c-7.32,7.14-14.23,12.1-20.74,14.86-6.51,2.76-13.94,4.14-22.29,4.14-15.4,0-28-4.88-37.81-14.65-9.81-9.76-14.71-22.28-14.71-37.54,0-9.88,2.23-18.65,6.7-26.33,4.47-7.68,10.86-13.85,19.19-18.52,8.33-4.67,17.29-7,26.9-7,8.17,0,16.04,1.73,23.6,5.17,7.56,3.46,14.08,8.36,19.56,14.72Z"/>
          <path class="cls-1" d="M534.86,379.52h18.72v99.05h-18.72v-99.05Z"/>
          <path class="cls-1" d="M621.56,377.03c14.01,0,26.06,5.07,36.14,15.22,10.1,10.15,15.13,22.51,15.13,37.1s-4.96,26.69-14.93,36.7c-9.94,10.01-22.02,15.02-36.2,15.02-14.88,0-27.23-5.14-37.06-15.42-9.84-10.28-14.76-22.49-14.76-36.63,0-9.47,2.29-18.18,6.87-26.13,4.58-7.95,10.87-14.24,18.89-18.89,8.04-4.65,16.65-6.97,25.92-6.97ZM621.36,395.48c-9.18,0-16.88,3.19-23.12,9.56-6.26,6.37-9.38,14.48-9.38,24.31,0,10.95,3.93,19.62,11.81,25.99,6.11,4.98,13.11,7.47,21.03,7.47,8.93,0,16.54-3.23,22.85-9.7,6.28-6.46,9.43-14.43,9.43-23.9s-3.16-17.41-9.49-23.94c-6.35-6.53-14.05-9.8-23.12-9.8ZM624.81,345.45h21.75l-24.65,26.4h-13.2l16.09-26.4Z"/>
          <path class="cls-1" d="M690.67,379.52h18.09l42.38,65.18v-65.18h18.85v99.05h-18.14l-42.33-64.98v64.98h-18.85v-99.05Z"/>
        </g>
        <g>
          <path class="cls-1" d="M69.77,519.6l-5.63,4.32c-3.11-4.04-6.83-7.11-11.18-9.19-4.35-2.09-9.13-3.13-14.34-3.13-5.69,0-10.97,1.37-15.82,4.1-4.85,2.73-8.61,6.4-11.28,11.01-2.67,4.61-4,9.79-4,15.55,0,8.7,2.98,15.96,8.95,21.78,5.97,5.82,13.5,8.73,22.59,8.73,9.99,0,18.36-3.91,25.08-11.74l5.63,4.27c-3.56,4.53-8,8.03-13.32,10.5-5.32,2.47-11.26,3.71-17.83,3.71-12.49,0-22.33-4.16-29.55-12.47-6.05-7.02-9.07-15.49-9.07-25.42,0-10.45,3.66-19.24,10.99-26.37,7.33-7.13,16.5-10.7,27.53-10.7,6.66,0,12.68,1.32,18.05,3.95,5.37,2.64,9.77,6.33,13.2,11.09Z"/>
          <path class="cls-1" d="M83.06,506.36h7.13v71.37h-7.13v-71.37Z"/>
          <path class="cls-1" d="M106.6,506.36h40.9v6.99h-33.77v22.37h33.48v6.99h-33.48v28.04h33.48v6.99h-40.61v-71.37Z"/>
          <path class="cls-1" d="M159.87,577.73v-71.37h1.55l47.5,54.71v-54.71h7.04v71.37h-1.6l-47.11-54.04v54.04h-7.37Z"/>
          <path class="cls-1" d="M226.24,513.34v-6.99h39.11v6.99h-15.91v64.38h-7.28v-64.38h-15.91Z"/>
          <path class="cls-1" d="M281.5,485.79h10.43l-14.31,14.94h-6.7l10.58-14.94ZM274.62,506.36h7.13v71.37h-7.13v-71.37Z"/>
          <path class="cls-1" d="M298.1,506.36h35.76v6.99h-28.63v22.37h28.63v6.99h-28.63v35.03h-7.13v-71.37Z"/>
          <path class="cls-1" d="M345.26,506.36h7.13v71.37h-7.13v-71.37Z"/>
          <path class="cls-1" d="M435.21,519.6l-5.63,4.32c-3.11-4.04-6.82-7.11-11.18-9.19-4.35-2.09-9.13-3.13-14.34-3.13-5.69,0-10.97,1.37-15.82,4.1-4.85,2.73-8.61,6.4-11.28,11.01-2.67,4.61-4,9.79-4,15.55,0,8.7,2.98,15.96,8.95,21.78,5.97,5.82,13.5,8.73,22.59,8.73,9.99,0,18.35-3.91,25.08-11.74l5.63,4.27c-3.56,4.53-7.99,8.03-13.31,10.5-5.32,2.47-11.27,3.71-17.83,3.71-12.49,0-22.33-4.16-29.55-12.47-6.05-7.02-9.07-15.49-9.07-25.42,0-10.45,3.66-19.24,10.99-26.37,7.33-7.13,16.5-10.7,27.53-10.7,6.66,0,12.68,1.32,18.04,3.95,5.37,2.64,9.77,6.33,13.2,11.09Z"/>
          <path class="cls-1" d="M478.68,506.36l33.28,71.37h-7.71l-11.22-23.48h-30.74l-11.12,23.48h-7.96l33.72-71.37h1.75ZM477.78,521.52l-12.23,25.84h24.4l-12.17-25.84Z"/>
        </g>
      </g>
    </g>
  </g>
</svg>