<?xml version="1.0" encoding="UTF-8"?>
<svg id="Capa_2" data-name="Capa 2" xmlns="http://www.w3.org/2000/svg" viewBox="0 0 866.62 565.7">
  <g id="Capa_1-2" data-name="Capa 1">
    <g>
      <path d="M838.6,420.87l-253.86-89.33c3.08-16.24,4.91-33,4.91-50.33.02-53.21-18.87-105.27-50.96-149.24l-72.35,63.85c15.43,26.78,23.91,57.55,23.91,89.79,0,28.61-7.4,55.22-20.48,78.6l66.86,75.77c7.31-9.66,13.99-19.81,19.93-30.44l253.24,89.11c22.03,7.75,46.32-3.38,54.27-24.85,7.95-21.48-3.46-45.17-25.49-52.92Z"/>
      <path d="M368.83,450.51c-24.62,11.14-51.81,16.69-81.56,16.69-34.88,0-66.58-7.93-95.14-23.83-28.53-15.87-50.59-37.74-66.21-65.6-15.59-27.86-23.4-59.74-23.4-95.66,0-51.57,17.64-94.92,52.85-130.1,35.27-35.18,78.6-52.79,130.07-52.79s99.7,18.89,142.9,56.51l75.55-66.67c-25.8-25.46-55.3-45.76-88.49-60.93C374.26,9.4,331.48,0,287.06,0c-52.24,0-101,12.69-146.28,38.08-45.28,25.39-80.06,58.95-104.35,100.69C12.14,180.51,0,228.23,0,281.93c0,82.99,26.67,151.03,80,204.13,53.33,53.09,121.87,79.64,205.59,79.64,45.4,0,85.8-7.51,121.19-22.52,29.36-12.45,60.23-33.14,92.61-61.99l-66.35-75.19c-22.98,20.72-44.38,35.58-64.22,44.51Z"/>
    </g>
  </g>
</svg>