<?xml version="1.0" encoding="UTF-8"?>
<svg id="Capa_2" data-name="Capa 2" xmlns="http://www.w3.org/2000/svg" viewBox="0 0 905.85 351.65">
  <g id="Capa_1-2" data-name="Capa 1">
    <g>
      <path d="M112.89,8.42h63.96v222.14c0,35.35-2.81,60.16-8.42,74.43-5.61,14.26-14.87,25.61-27.77,34.03-12.9,8.42-28.38,12.63-46.43,12.63-36.87,0-68.28-16.16-94.23-48.48l45.98-43.02c10.17,11.53,18.82,19.27,25.95,23.22s14.04,5.92,20.71,5.92,11.91-2.88,15.25-8.65,5.01-18.44,5.01-38.01V8.42Z"/>
      <path d="M248.77,8.42h63.27v334.81h-63.27V8.42Z"/>
      <g>
        <path d="M888.43,261.62l-157.81-55.53c1.92-10.1,3.05-20.51,3.05-31.29.01-33.08-11.73-65.44-31.68-92.77l-44.97,39.69c9.59,16.65,14.86,35.78,14.86,55.82,0,17.79-4.6,34.33-12.73,48.86l41.56,47.1c4.55-6,8.7-12.32,12.39-18.92l157.42,55.4c13.69,4.82,28.8-2.1,33.74-15.45,4.94-13.35-2.15-28.08-15.84-32.9Z"/>
        <path d="M596.41,280.05c-15.31,6.92-32.21,10.38-50.7,10.38-21.68,0-41.39-4.93-59.14-14.81-17.73-9.86-31.45-23.46-41.16-40.78-9.69-17.32-14.55-37.14-14.55-59.46,0-32.05,10.96-59.01,32.85-80.88,21.93-21.87,48.86-32.81,80.86-32.81s61.98,11.74,88.83,35.13l46.96-41.44c-16.04-15.83-34.37-28.45-55.01-37.88-25.57-11.65-52.16-17.49-79.78-17.49-32.47,0-62.78,7.89-90.93,23.67-28.15,15.78-49.77,36.64-64.87,62.59-15.1,25.95-22.65,55.61-22.65,88.99,0,51.59,16.58,93.89,49.73,126.89,33.15,33,75.75,49.5,127.8,49.5,28.22,0,53.34-4.67,75.34-14,18.25-7.74,37.44-20.6,57.57-38.54l-41.25-46.74c-14.28,12.88-27.59,22.12-39.92,27.67Z"/>
      </g>
    </g>
  </g>
</svg>