<?xml version="1.0" encoding="utf-8"?>
<!-- Generator: Adobe Adobe Illustrator 29.2.0, SVG Export Plug-In . SVG Version: 6.00 Build 0)  -->
<svg version="1.1" id="Layer_1" xmlns="http://www.w3.org/2000/svg" xmlns:xlink="http://www.w3.org/1999/xlink" x="0px" y="0px"
	 viewBox="0 0 1280 720" style="enable-background:new 0 0 1280 720;" xml:space="preserve">
<style type="text/css">
	.st0{clip-path:url(#SVGID_00000128464016647789078250000006477022610082574506_);}
	
		.st1{clip-path:url(#SVGID_00000121967373561402972340000006617400882916232351_);fill-rule:evenodd;clip-rule:evenodd;fill:#FFFFFF;}
</style>
<g>
	<g>
		<defs>
			<rect id="SVGID_1_" x="487" y="207" width="306" height="306"/>
		</defs>
		<clipPath id="SVGID_00000138540379284168261960000018199716306657927819_">
			<use xlink:href="#SVGID_1_"  style="overflow:visible;"/>
		</clipPath>
		<g style="clip-path:url(#SVGID_00000138540379284168261960000018199716306657927819_);">
			<defs>
				<rect id="SVGID_00000089534912255543669260000002714102408557736072_" x="487" y="207" width="306" height="306"/>
			</defs>
			<clipPath id="SVGID_00000062912596187205894520000010680773017586612138_">
				<use xlink:href="#SVGID_00000089534912255543669260000002714102408557736072_"  style="overflow:visible;"/>
			</clipPath>
			
				<path style="clip-path:url(#SVGID_00000062912596187205894520000010680773017586612138_);fill-rule:evenodd;clip-rule:evenodd;fill:#FFFFFF;" d="
				M526.54,404.66c-1.42,0.62-2.88,1.23-4.29,1.91c-0.26,0.12-0.36,0.32-0.26,0.53c0.11,0.24,0.37,0.28,0.64,0.15
				c0,0,0.05-0.01,0.05-0.05c0.98-0.5,1.99-1.01,3.01-1.5c1.95-0.92,2.81-1.32,3.99-1.78c3.51-1.43,5.2-0.75,6.93,2.65
				c0.15,0.28,0.21,0.4,0.33,0.77l-0.53,0.26l-3.81,1.82l-2.86,1.36l-2.16,1.02c-1.01,0.47-1.69,0.77-1.99,0.92
				c-0.09,0.03-0.25,0.1-0.44,0.18l2.64,5.21c0.7-0.34,1.37-0.68,2.08-1.02l2.53-1.21l2.74-1.32c4.15-1.97,4.06-4.27,2.2-7.94
				C534.33,400.71,531.33,402.44,526.54,404.66"/>
			
				<path style="clip-path:url(#SVGID_00000062912596187205894520000010680773017586612138_);fill-rule:evenodd;clip-rule:evenodd;fill:#FFFFFF;" d="
				M519.65,402.56c1.38-0.49,1.72-0.61,4.05-1.35c1.12-0.39,1.96-0.67,2.54-0.84c2.08-0.66,4.2-1.25,6.28-1.92h0.03
				c0.35-0.12,0.45-0.29,0.37-0.52c-0.1-0.3-0.33-0.32-0.6-0.24c-0.09,0.06-0.28,0.13-0.54,0.2c-0.88,0.28-1.72,0.6-2.57,0.87
				L527,399.5l-0.46,0.15c0.8-4.44,1.71-8.92,2.83-13.34c-2,0.62-3.98,1.33-6,1.98c-0.73,0.24-1.69,0.53-2.91,0.9l-2.19,0.63
				l-1.75,0.56c-0.45,0.15-0.53,0.26-0.43,0.53c0.1,0.33,0.46,0.22,0.74,0.14c0.1-0.05,0.32-0.13,0.61-0.21
				c1.2-0.38,2.37-0.79,3.55-1.17c0.41-0.13,0.93-0.27,1.56-0.48l-0.61,3.04C521.23,395.69,520.46,399.13,519.65,402.56"/>
			
				<path style="clip-path:url(#SVGID_00000062912596187205894520000010680773017586612138_);fill-rule:evenodd;clip-rule:evenodd;fill:#FFFFFF;" d="
				M527.43,383.45l0.75-0.12l-1.22-5.68l-0.48,0.1l-3.03,0.63l-2.95,0.6l-3.26,0.65l-2.76,0.52l-0.65,0.13l1.22,5.68l0.5-0.11
				l2.75-0.59C521.37,384.64,524.41,384.06,527.43,383.45"/>
			
				<path style="clip-path:url(#SVGID_00000062912596187205894520000010680773017586612138_);fill-rule:evenodd;clip-rule:evenodd;fill:#FFFFFF;" d="
				M526.6,367.67l-2.92-1.28l-10.76-4.56c-0.25-0.12-0.38-0.19-0.46-0.23c-0.43-0.2-0.6-0.24-0.71-0.24
				c-0.24,0.02-0.38,0.23-0.36,0.44c0.03,0.25,0.16,0.33,0.77,0.54c1.37,0.58,2.82,1.05,4.21,1.64l3.42,1.41l-7.41,4.96l0.62,6.62
				l3.92-2.7L526.6,367.67z"/>
			
				<path style="clip-path:url(#SVGID_00000062912596187205894520000010680773017586612138_);fill-rule:evenodd;clip-rule:evenodd;fill:#FFFFFF;" d="
				M524.97,358.15l0.5-10.79l0.01-0.29c0.02-0.68-0.03-0.77-0.32-0.77c-0.27-0.02-0.36,0.12-0.38,0.57l-0.2,5.47l-6.74-0.24
				c-0.56-0.04-1.11-0.05-1.69-0.09v-0.22l0.1-2.14c0.05-0.91,0.14-1.85,0.17-2.76c0.03-0.45-0.06-0.6-0.32-0.6
				c-0.27-0.02-0.37,0.09-0.38,0.6l-0.15,4.86l-0.01,0.23l-3.06-0.16l0.29-4.74v-0.02c0.02-0.35-0.08-0.47-0.33-0.47
				c-0.25-0.01-0.35,0.12-0.39,0.45l-0.03,0.51l-0.47,10.04c2.09,0.09,4.16,0.1,6.26,0.19L524.97,358.15z"/>
			
				<path style="clip-path:url(#SVGID_00000062912596187205894520000010680773017586612138_);fill-rule:evenodd;clip-rule:evenodd;fill:#FFFFFF;" d="
				M515.41,342.23l3.01,0.52l3.77,0.71l3.15,0.56l0.42,0.08l1.07-5.68l-2.96-0.52c1.43-1.28,3.97-3.7,4.33-5.59
				c0.06-0.24-0.05-0.44-0.25-0.47c-0.16-0.03-0.28,0.05-0.35,0.24c-0.61,1.43-1.43,2.73-2.55,3.86c0.11-0.98,0.09-1.35-0.1-2.1
				c-0.49-1.98-2.23-3.62-4.22-3.98c-2.2-0.38-4.41,0.49-5.64,2.25c-0.72,1.07-1.17,2.51-1.79,5.88l-0.72,3.76l0.32,0.04
				L515.41,342.23z M515.41,332.79c0.97-1.73,3.1-2.67,5.16-2.31c2.69,0.49,4.33,3,3.79,5.81c-0.02,0.12-0.04,0.24-0.1,0.44
				c-0.52,0.52-0.66,0.63-1.28,1.03c-0.25-0.04-0.35-0.06-0.44-0.07l-1.74-0.3l-2.72-0.49l-3.22-0.63l-0.55-0.12
				C514.65,334.6,514.95,333.67,515.41,332.79"/>
			
				<path style="clip-path:url(#SVGID_00000062912596187205894520000010680773017586612138_);fill-rule:evenodd;clip-rule:evenodd;fill:#FFFFFF;" d="
				M519.68,325.88c3.46,1.1,8.22-3.24,10.05-2.67c0.43,0.14,0.53,0.57,0.3,1.26c-0.8,2.39-3.14,3.07-3.25,3.4
				c-0.05,0.15,0.07,0.33,0.24,0.39c0.23,0.06,0.53-0.05,1.05-0.39c1.29-0.81,2.18-1.99,2.66-3.4c1.06-3.23,0.23-5.88-2.04-6.59
				c-3.14-0.98-8.36,3.39-10.15,2.83c-0.45-0.15-0.59-0.65-0.41-1.26c0.59-1.75,2.43-2.64,2.49-2.81c0.06-0.19-0.03-0.33-0.18-0.4
				c-0.21-0.05-0.65,0.13-1.11,0.49c-0.85,0.67-1.5,1.68-1.93,2.94C516.45,322.57,517.41,325.18,519.68,325.88"/>
			
				<path style="clip-path:url(#SVGID_00000062912596187205894520000010680773017586612138_);fill-rule:evenodd;clip-rule:evenodd;fill:#FFFFFF;" d="
				M524.06,312.41c2.84,1.2,5.69,2.43,8.51,3.62l0.68,0.3l2.38-5.32l-0.45-0.18l-2.84-1.17l-2.76-1.15l-3.08-1.29l-2.55-1.11
				l-0.62-0.26l-2.39,5.33l0.48,0.19L524.06,312.41z"/>
			
				<path style="clip-path:url(#SVGID_00000062912596187205894520000010680773017586612138_);fill-rule:evenodd;clip-rule:evenodd;fill:#FFFFFF;" d="
				M537.81,293.52c-2.3-1.28-5.48-1.1-7.49,0.58c-0.85,0.72-1.34,1.36-2.43,3.18l-2.56,4.32c3.03,1.65,4.42,2.4,6.03,3.28
				c1.34,0.75,3.18,1.79,5.59,3.15l2.47-4.16l0.81-1.38C542.09,299.22,541.21,295.41,537.81,293.52 M539.37,302.72
				c-1.63-0.87-2.72-1.46-3.31-1.78c-0.66-0.37-1.71-0.95-3.12-1.75l-4.1-2.3c0.4-0.73,0.87-1.39,1.48-1.97
				c1.92-1.78,4.92-2.13,7.19-0.87c1.36,0.77,2.37,2.02,2.84,3.47C540.89,299.37,540.34,301.11,539.37,302.72"/>
			
				<path style="clip-path:url(#SVGID_00000062912596187205894520000010680773017586612138_);fill-rule:evenodd;clip-rule:evenodd;fill:#FFFFFF;" d="
				M544.33,295.41c0.14,0.09,0.32,0.06,0.43-0.12c0.22-0.24-0.09-0.69-0.23-0.95l-0.51-1.23l4.12-5.08l2,0.38l4.19-5.19l-16.02-2.49
				c0.45,1.01,0.87,2.07,1.28,3.1l1.82,4.53l1.68,4.24C543.32,293.14,543.99,295.15,544.33,295.41 M541.68,287.38l-0.18-0.5
				l5.88,1.04c0,0-2.41,2.96-3.63,4.47l-0.18-0.35l-0.87-2.11L541.68,287.38z"/>
			
				<path style="clip-path:url(#SVGID_00000062912596187205894520000010680773017586612138_);fill-rule:evenodd;clip-rule:evenodd;fill:#FFFFFF;" d="
				M551.37,277.24c1.07,1.1,2.53,2.6,4.42,4.56l3.6-3.32l1.2-1.11c2.74-2.63,2.99-6.53,0.31-9.28c-1.83-1.83-4.94-2.55-7.38-1.48
				c-1.01,0.45-1.67,0.91-3.24,2.36l-3.74,3.45C548.96,274.84,550.09,275.95,551.37,277.24 M553.29,267.41
				c2.36-1.19,5.34-0.71,7.14,1.13c1.11,1.12,1.71,2.59,1.71,4.11c-0.05,1.92-1.06,3.43-2.44,4.71c-1.32-1.27-2.2-2.15-2.66-2.61
				c-0.52-0.53-1.36-1.38-2.49-2.53l-3.25-3.34C551.91,268.29,552.52,267.77,553.29,267.41"/>
			
				<path style="clip-path:url(#SVGID_00000062912596187205894520000010680773017586612138_);fill-rule:evenodd;clip-rule:evenodd;fill:#FFFFFF;" d="
				M567.76,255.78c0.96-0.56,1.89-1.2,2.86-1.77l1.21,1.86l1.43,2.2l2.23,3.56c0.59,0.97,1.18,1.94,1.78,2.89l5.09-3.02
				c-0.08-0.11-0.15-0.21-0.19-0.28c-0.15-0.23-0.61-1.01-1.45-2.26l-1.9-3.02l-1.48-2.43l-1.33-2.1l-0.25-0.45
				c0.96-0.58,1.88-1.06,2.86-1.63c0.3-0.19,0.37-0.35,0.25-0.52c-0.15-0.23-0.3-0.23-0.65-0.04l-0.35,0.18l-1.5,0.9l-8.78,5.19
				l-0.2,0.15c-0.32,0.18-0.39,0.34-0.25,0.55C567.29,255.94,567.46,255.96,567.76,255.78"/>
			
				<path style="clip-path:url(#SVGID_00000062912596187205894520000010680773017586612138_);fill-rule:evenodd;clip-rule:evenodd;fill:#FFFFFF;" d="
				M587.82,258.5l10.21-4.4l0.26-0.1c0.63-0.3,0.7-0.37,0.57-0.64c-0.09-0.24-0.27-0.25-0.69-0.07l-5.14,2.28l-2.79-5.93
				c-0.25-0.51-0.47-1.01-0.67-1.52l0.21-0.09l2.01-0.86c0.86-0.38,1.77-0.72,2.63-1.09c0.45-0.18,0.54-0.33,0.43-0.59
				c-0.12-0.22-0.26-0.24-0.74-0.02l-4.57,2.03l-0.23,0.1l-1.21-2.73l4.52-1.86l0.04-0.02c0.32-0.13,0.38-0.25,0.28-0.48
				c-0.1-0.23-0.26-0.25-0.58-0.15l-0.49,0.22l-9.49,4.1c0.84,1.84,1.77,3.65,2.64,5.48L587.82,258.5z"/>
			
				<path style="clip-path:url(#SVGID_00000062912596187205894520000010680773017586612138_);fill-rule:evenodd;clip-rule:evenodd;fill:#FFFFFF;" d="
				M607.58,251.5c1.62-0.48,3.22-1.7,4.1-3.17c0.53-0.92,0.96-2.17,0.84-2.53c-0.05-0.12-0.22-0.19-0.42-0.14
				c-0.11,0.04-0.19,0.14-0.27,0.45c-0.5,2.33-2.17,4.19-4.45,4.83c-0.21,0.08-0.38,0.08-0.8,0.15l-0.13-0.43l-0.83-2.63
				c-0.38-1.15-0.66-2.09-0.88-2.77l-0.93-3.11l-0.77-2.6l-0.11-0.38c0.26-0.14,0.35-0.19,0.65-0.26c1.89-0.55,4.09-0.27,5.67,0.94
				c0.28,0.2,0.4,0.24,0.58,0.19c0.13-0.03,0.24-0.19,0.19-0.32c-0.03-0.15-0.22-0.28-0.52-0.49c-1.67-1.15-3.97-1.47-6.07-0.88
				c-3.69,1.07-5.86,4.91-4.74,8.51C599.81,250.53,603.77,252.58,607.58,251.5"/>
			
				<path style="clip-path:url(#SVGID_00000062912596187205894520000010680773017586612138_);fill-rule:evenodd;clip-rule:evenodd;fill:#FFFFFF;" d="
				M614.76,242.23c0.33,2.1,0.6,4.22,0.92,6.3v0.04c0.06,0.34,0.21,0.48,0.46,0.44c0.33-0.05,0.37-0.27,0.33-0.54
				c-0.03-0.09-0.06-0.29-0.11-0.56c-0.12-0.88-0.34-1.73-0.45-2.6l-0.39-2.23l-0.09-0.46c4.43,1.5,8.83,3.12,13.15,4.91
				c-0.32-2.01-0.72-4.03-1.03-6.05c-0.11-0.72-0.27-1.73-0.45-2.94l-0.28-2.2l-0.27-1.75c-0.08-0.46-0.2-0.55-0.47-0.51
				c-0.36,0.04-0.31,0.42-0.26,0.68c0.04,0.12,0.07,0.34,0.12,0.63c0.19,1.22,0.4,2.4,0.59,3.58c0.07,0.42,0.15,0.93,0.23,1.58
				l-3-1.08c-3.42-1.25-6.79-2.54-10.16-3.89c0.29,1.4,0.34,1.76,0.7,4.1C614.55,240.8,614.67,241.65,614.76,242.23"/>
			
				<path style="clip-path:url(#SVGID_00000062912596187205894520000010680773017586612138_);fill-rule:evenodd;clip-rule:evenodd;fill:#FFFFFF;" d="
				M638.15,247.04c4.03-0.03,7.18-3.13,7.13-6.93c-0.04-3.76-3.26-6.83-7.17-6.79c-3.95,0.04-7.12,3.11-7.06,6.94
				C631.09,243.98,634.34,247.08,638.15,247.04 M638.01,233.88c3.67-0.02,6.61,2.7,6.64,6.17c0.06,3.57-2.81,6.37-6.56,6.42
				c-0.24,0-0.35,0-0.62-0.04l-0.02-1.16l-0.05-1.96c-0.04-0.69-0.05-1.59-0.05-2.64c-0.03-2.25-0.03-4.49-0.03-6.73
				C637.61,233.92,637.69,233.89,638.01,233.88"/>
			
				<path style="clip-path:url(#SVGID_00000062912596187205894520000010680773017586612138_);fill-rule:evenodd;clip-rule:evenodd;fill:#FFFFFF;" d="
				M659.56,248.16l0.26,0.02c0.4,0.04,0.52-0.02,0.53-0.28c0.05-0.34-0.32-0.39-0.55-0.4c-1.06-0.13-2.11-0.22-3.18-0.33l-2.2-0.27
				l-0.23-0.02l0.25-2.21l0.34-2.62l0.25-2.23c0.26-1.71,0.53-3.46,0.75-5.16l-5.95-0.71l-0.12,0.88l-0.32,2.76l-0.45,3.45l-0.3,2.2
				c-0.17,1.2-0.33,2.37-0.51,3.55l1.23,0.15L659.56,248.16z"/>
			
				<path style="clip-path:url(#SVGID_00000062912596187205894520000010680773017586612138_);fill-rule:evenodd;clip-rule:evenodd;fill:#FFFFFF;" d="
				M668.75,250.62c3.89,0.99,7.78-1.17,8.77-4.86c1.01-3.64-1.25-7.42-5.02-8.39c-3.84-0.99-7.72,1.16-8.72,4.87
				C662.77,245.84,665.05,249.67,668.75,250.62 M668.55,248.69l0.48-1.89c0.17-0.67,0.41-1.53,0.7-2.55
				c0.58-2.16,1.19-4.32,1.82-6.47c0.29,0.02,0.38,0.03,0.68,0.12c3.55,0.91,5.62,4.28,4.71,7.65c-0.94,3.45-4.47,5.43-8.09,4.5
				c-0.26-0.07-0.35-0.09-0.6-0.21L668.55,248.69z"/>
			
				<path style="clip-path:url(#SVGID_00000062912596187205894520000010680773017586612138_);fill-rule:evenodd;clip-rule:evenodd;fill:#FFFFFF;" d="
				M684.25,255.71c3.69,1.53,7.72-0.05,9.37-3.67l-4.86-2.01l-0.91-0.36c-0.3-0.13-0.46-0.09-0.53,0.11
				c-0.1,0.2-0.03,0.34,0.32,0.47c0.29,0.13,0.59,0.26,0.89,0.38l4.23,1.74c-1.5,2.85-5.17,4.1-8.29,2.81
				c-0.3-0.12-0.41-0.17-0.63-0.35l0.2-0.44l1.05-2.51l1.19-2.68l1.33-2.99l1.11-2.46l0.17-0.39c0.32,0.1,0.45,0.13,0.71,0.24
				c1.86,0.77,3.15,2.24,3.67,4.29c0.05,0.28,0.15,0.38,0.3,0.43c0.17,0.08,0.38,0.04,0.44-0.11c0.09-0.19,0.01-0.49-0.18-1.04
				c-0.7-1.85-2.13-3.33-3.97-4.08c-3.56-1.47-7.79,0.13-9.29,3.52C678.98,250.16,680.65,254.21,684.25,255.71"/>
			
				<path style="clip-path:url(#SVGID_00000062912596187205894520000010680773017586612138_);fill-rule:evenodd;clip-rule:evenodd;fill:#FFFFFF;" d="
				M693.44,259.46l5.22,2.86l0.23-0.43l1.5-2.6l1.48-2.54l1.64-2.81l1.41-2.35l0.33-0.56l-5.21-2.86l-0.24,0.43l-1.36,2.41
				c-1.53,2.64-3.09,5.22-4.61,7.83L693.44,259.46z"/>
			
				<path style="clip-path:url(#SVGID_00000062912596187205894520000010680773017586612138_);fill-rule:evenodd;clip-rule:evenodd;fill:#FFFFFF;" d="
				M706.64,267.91c1.38,0.96,3.37,1.42,5.1,1.18c1.09-0.16,2.34-0.59,2.58-0.91c0.09-0.1,0.03-0.27-0.13-0.38
				c-0.11-0.09-0.23-0.07-0.52,0.07c-2.24,1.05-4.76,0.9-6.69-0.45c-0.16-0.13-0.3-0.24-0.62-0.51l0.28-0.38l1.64-2.23
				c0.72-1.01,1.32-1.8,1.73-2.36l1.96-2.63l1.66-2.19l0.24-0.32c0.28,0.12,0.35,0.16,0.6,0.33c1.62,1.12,2.74,2.97,2.74,4.92
				c0,0.34,0.02,0.45,0.18,0.55c0.11,0.09,0.33,0.06,0.39-0.04c0.09-0.13,0.12-0.34,0.09-0.69c-0.09-2.01-1.23-3.96-3.01-5.2
				c-3.13-2.17-7.6-1.47-9.86,1.58C702.68,261.37,703.42,265.67,706.64,267.91"/>
			
				<path style="clip-path:url(#SVGID_00000062912596187205894520000010680773017586612138_);fill-rule:evenodd;clip-rule:evenodd;fill:#FFFFFF;" d="
				M713.08,271.75c-0.1,0.11-0.08,0.3,0.08,0.42c0.23,0.24,0.73-0.02,1.01-0.12l1.29-0.38l4.82,4.46l-0.54,1.87l4.9,4.56l4.12-15.18
				c-1.07,0.31-2.23,0.62-3.31,0.92l-4.83,1.32l-4.53,1.21C715.51,270.98,713.38,271.46,713.08,271.75 M716.63,271.34l2.26-0.61
				l2.7-0.75l0.54-0.13l-1.62,5.56c0,0-2.83-2.6-4.29-3.94L716.63,271.34z"/>
			
				<path style="clip-path:url(#SVGID_00000062912596187205894520000010680773017586612138_);fill-rule:evenodd;clip-rule:evenodd;fill:#FFFFFF;" d="
				M735.29,296.11c2.19,3.08,6.13,4.01,9.39,1.92c2.2-1.43,3.45-4.26,2.78-6.77c-0.25-1.04-0.64-1.76-1.83-3.51l-2.87-4.14
				c-2.88,1.89-4.19,2.75-5.74,3.76c-1.3,0.82-3.08,1.96-5.4,3.43l2.75,3.99L735.29,296.11z M738.59,293.2
				c0.64-0.42,1.63-1.07,3.01-1.93l3.98-2.52c0.47,0.68,0.89,1.38,1.14,2.17c0.79,2.44-0.23,5.2-2.4,6.59
				c-1.31,0.86-2.92,1.16-4.48,0.92c-1.95-0.37-3.3-1.6-4.37-3.16C736.99,294.25,738.03,293.56,738.59,293.2"/>
			
				<path style="clip-path:url(#SVGID_00000062912596187205894520000010680773017586612138_);fill-rule:evenodd;clip-rule:evenodd;fill:#FFFFFF;" d="
				M740.43,304.03l4.89,9.7l0.12,0.28c0.33,0.58,0.41,0.65,0.67,0.52c0.25-0.11,0.25-0.29,0.05-0.67l-2.54-4.9l6.06-2.91
				c0.5-0.25,1.01-0.48,1.53-0.71l0.08,0.2l0.99,1.92c0.42,0.84,0.8,1.69,1.21,2.5c0.22,0.42,0.36,0.52,0.61,0.4
				c0.24-0.1,0.27-0.24,0.02-0.71l-2.25-4.33l-0.11-0.23l2.77-1.27l2.08,4.31l0.03,0.02c0.14,0.31,0.27,0.36,0.51,0.26
				c0.21-0.1,0.23-0.26,0.12-0.57l-0.25-0.47l-4.54-9.04c-1.86,0.89-3.72,1.84-5.59,2.71L740.43,304.03z"/>
			
				<path style="clip-path:url(#SVGID_00000062912596187205894520000010680773017586612138_);fill-rule:evenodd;clip-rule:evenodd;fill:#FFFFFF;" d="
				M750.22,324.74l-0.57,0.14l1.42,5.63c0.77-0.18,1.55-0.39,2.32-0.57c0.08,0.58,0.14,1.21,0.28,1.77
				c0.78,3.13,3.62,4.88,6.71,4.15c2.5-0.62,4.26-2.96,4.14-5.42c-0.07-1.09-0.35-2.54-0.81-4.42l-1.05-4.2l-0.39,0.09l-2.15,0.53
				l-2.72,0.67l-3.4,0.78L750.22,324.74z M756.58,329.15l2.88-0.65l3.33-0.77l0.63-0.13c0.36,1.37,0.68,2.99,0.28,4.38
				c-0.41,1.48-1.89,2.9-3.43,3.26c-2.72,0.63-5.3-0.87-5.97-3.53c-0.19-0.74-0.28-1.43-0.26-1.93
				C754.9,329.56,755.71,329.35,756.58,329.15"/>
			
				<path style="clip-path:url(#SVGID_00000062912596187205894520000010680773017586612138_);fill-rule:evenodd;clip-rule:evenodd;fill:#FFFFFF;" d="
				M756.22,340.37c-0.53-0.24-2.48-1.24-2.91-1.2c-0.15,0-0.25,0.17-0.23,0.34c0.03,0.34,0.57,0.47,0.87,0.55l1.2,0.55l0.64,6.44
				l-1.7,1.05l0.63,6.56l13.41-8.85c-1.03-0.45-2.1-0.93-3.12-1.41l-4.55-2.07L756.22,340.37z M761.45,343.47l-5,3.16
				c0,0-0.38-3.76-0.55-5.67l0.39,0.16l2.13,0.96l2.55,1.15L761.45,343.47z"/>
			
				<path style="clip-path:url(#SVGID_00000062912596187205894520000010680773017586612138_);fill-rule:evenodd;clip-rule:evenodd;fill:#FFFFFF;" d="
				M767,368.85c-0.11,0.01-0.35,0-0.66-0.01c-1.25-0.06-2.49-0.08-3.74-0.13c-0.42-0.02-0.96-0.06-1.64-0.11l1.71-2.62
				c1.93-2.99,3.91-5.94,5.94-8.86c-1.48-0.01-1.85-0.03-4.28-0.14c-1.2-0.02-2.09-0.08-2.71-0.1c-2.18-0.11-4.38-0.28-6.56-0.36
				h-0.04c-0.37-0.03-0.53,0.09-0.53,0.33c-0.03,0.32,0.18,0.42,0.48,0.43c0.09-0.01,0.3,0,0.59,0.02c0.91,0.04,1.82,0.01,2.71,0.07
				l2.35,0.06l0.47,0.03c-2.39,3.88-4.91,7.74-7.57,11.48c2.1,0.1,4.22,0.13,6.32,0.23c0.78,0.03,1.82,0.09,3.08,0.16l2.28,0.17
				l1.85,0.09c0.46,0.02,0.59-0.06,0.61-0.36C767.68,368.88,767.3,368.87,767,368.85"/>
			
				<path style="clip-path:url(#SVGID_00000062912596187205894520000010680773017586612138_);fill-rule:evenodd;clip-rule:evenodd;fill:#FFFFFF;" d="
				M760,375.9l-3.5-3.05c-0.44-0.38-2.02-1.84-2.43-1.94c-0.15-0.02-0.3,0.1-0.33,0.28c-0.07,0.34,0.4,0.59,0.66,0.78l1.02,0.85
				l-1.28,6.32l-1.93,0.57l-1.3,6.45l15.43-4.85c-0.89-0.7-1.76-1.46-2.6-2.21L760,375.9z M754.91,378.92c0,0,0.73-3.7,1.12-5.59
				l0.32,0.25l1.76,1.49l2.11,1.81l0.39,0.36L754.91,378.92z"/>
			
				<path style="clip-path:url(#SVGID_00000062912596187205894520000010680773017586612138_);fill-rule:evenodd;clip-rule:evenodd;fill:#FFFFFF;" d="
				M761.82,395.06l-2.55-1.82l-2.77-2l-3.03-2.16l-1.73-1.25c-0.25-0.2-0.55-0.5-0.84-0.59c-0.17-0.07-0.33,0.03-0.42,0.3
				c-0.23,0.62,0.8,1.01,1.23,1.31c1.51,0.87,2.99,1.89,4.43,2.91l-6.88,1.83l4.3,5.7l-7.15-0.6l-2.08,5.39l0.4,0.03l3.05,0.19
				l3.36,0.2l4.24,0.28l2.81,0.21l0.56,0.04l-5.52-7.29l9.17-2.28L761.82,395.06z"/>
			
				<path style="clip-path:url(#SVGID_00000062912596187205894520000010680773017586612138_);fill-rule:evenodd;clip-rule:evenodd;fill:#FFFFFF;" d="
				M747.78,411.85l-2.31-3.94c-0.3-0.51-1.31-2.4-1.67-2.6c-0.14-0.08-0.31,0-0.4,0.15c-0.17,0.3,0.18,0.69,0.38,0.94l0.68,1.13
				l-3.29,5.61l-2.03-0.08l-3.36,5.73l16.23,0.16c-0.58-0.94-1.16-1.94-1.73-2.89L747.78,411.85z M741.94,413.16
				c0,0,1.93-3.28,2.92-4.96l0.21,0.34l1.17,1.96l1.41,2.38l0.26,0.47L741.94,413.16z"/>
			
				<path style="clip-path:url(#SVGID_00000062912596187205894520000010680773017586612138_);fill-rule:evenodd;clip-rule:evenodd;fill:#FFFFFF;" d="
				M619.18,473.39c-1,0.09-1.06,0.09-1.11,0.4c-0.04,0.19,0.07,0.35,0.23,0.37c0.68,0.1,1.38-0.17,2.08-0.25l-0.08,0.4l-0.43,2.75
				l-0.42,2.58l-0.48,2.99c-0.13,0.71-0.26,1.47-0.37,2.19l5.6,0.8l0.03-0.32l0.3-2.22c0.29-1.94,0.56-3.89,0.86-5.84l0.39-2.42
				c0.14-0.76,0.25-1.47,0.4-2.23l-3.51,0.44C621.51,473.09,620.32,473.2,619.18,473.39"/>
			
				<path style="clip-path:url(#SVGID_00000062912596187205894520000010680773017586612138_);fill-rule:evenodd;clip-rule:evenodd;fill:#FFFFFF;" d="
				M633.83,473.07c-3.31-0.15-5.96,2.06-6.09,5.09c-0.1,2,1.42,3.69,3.36,3.79c0.5,0.03,1.98-0.19,2.02-0.76
				c0-0.17-0.09-0.28-0.25-0.28c-0.08,0-0.15,0.02-0.47,0.17c-0.36,0.16-0.86,0.27-1.26,0.25c-1.56-0.07-2.81-1.47-2.72-3.09
				c0.14-2.75,2.48-4.7,5.21-4.57c0.05,0,0.19,0.03,0.35,0.04l-0.01,0.47l-0.11,2.75l-0.15,2.89l-0.19,3.26l-0.15,2.65l-0.01,0.31
				c-0.38,0.05-0.52,0.07-0.82,0.05c-2.74-0.12-2.75-2.01-3.29-2.03c-0.27-0.01-0.49,0.15-0.49,0.39c0,0.12,0.09,0.33,0.18,0.49
				c0.66,0.99,2,1.68,3.48,1.75c3.83,0.19,7.04-2.73,7.23-6.61C639.86,476.06,637.5,473.22,633.83,473.07"/>
			
				<path style="clip-path:url(#SVGID_00000062912596187205894520000010680773017586612138_);fill-rule:evenodd;clip-rule:evenodd;fill:#FFFFFF;" d="
				M648.79,478.13c1.04-0.72,1.45-1.39,1.41-2.36c-0.09-1.85-1.92-2.89-4.7-2.78c-3.36,0.15-5.77,2.11-5.63,4.57
				c0.07,1.32,0.57,2.25,1.75,3.27c-1.31,0.76-1.84,1.54-1.8,2.62c0.12,2.02,2.45,3.38,5.67,3.23c3.37-0.16,6.06-2.39,5.93-4.94
				C651.34,479.96,650.29,479,648.79,478.13 M645.27,473.62c2.53-0.12,4.11,0.71,4.18,2.11c0.05,0.96-0.31,1.46-1.37,2.13
				c-1.08-0.47-5.32-1.81-5.37-3.03C642.67,474.22,643.74,473.69,645.27,473.62 M645.46,486.05c-2.82,0.13-4.86-0.96-4.93-2.65
				c-0.05-0.87,0.4-1.46,1.6-2.12c1.3,0.79,2.66,1.43,4.08,2.03c1.38,0.61,1.93,1.04,1.93,1.53
				C648.2,485.4,646.91,485.98,645.46,486.05"/>
			
				<path style="clip-path:url(#SVGID_00000062912596187205894520000010680773017586612138_);fill-rule:evenodd;clip-rule:evenodd;fill:#FFFFFF;" d="
				M661.09,482.22c-0.3-1.95-0.61-3.89-0.91-5.83l-0.37-2.45c-0.1-0.74-0.2-1.48-0.28-2.23l-3.23,1.39
				c-1.07,0.41-2.18,0.86-3.21,1.33c-0.93,0.36-1,0.4-0.95,0.7c0.02,0.2,0.17,0.31,0.35,0.29c0.67-0.09,1.25-0.55,1.88-0.84
				l0.06,0.4l0.4,2.76l0.36,2.62l0.43,2.96c0.09,0.72,0.18,1.48,0.3,2.2l5.6-0.78l-0.07-0.32L661.09,482.22z"/>
			
				<path style="clip-path:url(#SVGID_00000062912596187205894520000010680773017586612138_);fill-rule:evenodd;clip-rule:evenodd;fill:#FFFFFF;" d="
				M736.51,434.51c-9.1,1.87-9.23,7.11-8.94,9.09c-1.97,1.71-3.86,3.33-5.72,4.83l0.17-0.82c0,0,1.74-1.85,1.59-3.39
				c-0.17-1.54-1.76-3.07-1.59-4.31c0.15-1.23,0.95-2.46,0.95-2.46s-5.89,2.62-5.89,6.01c0,3.38,3.81,4.62,3.81,4.62v1.15
				c-2.36,1.92-4.64,3.7-6.85,5.32v-0.01c0,0,1.76-1.85,1.61-3.39c-0.16-1.53-1.76-3.07-1.61-4.31c0.16-1.23,0.96-2.46,0.96-2.46
				s-5.89,2.61-5.89,6.01c0,3.38,3.83,4.61,3.83,4.61v0.38c-3.04,2.24-5.94,4.21-8.66,5.96l0.07-0.32c0,0,1.75-1.86,1.58-3.4
				c-0.15-1.53-1.74-3.08-1.58-4.3c0.15-1.24,0.95-2.48,0.95-2.48s-5.88,2.63-5.88,6.01c0,3.4,3.81,4.63,3.81,4.63v0.54
				c-2.99,1.88-5.79,3.46-8.41,4.81l0.15-0.74c0,0,1.74-1.85,1.58-3.38c-0.16-1.54-1.74-3.07-1.58-4.31
				c0.16-1.23,0.95-2.46,0.95-2.46s-5.9,2.62-5.9,6.01c0,3.39,3.83,4.64,3.83,4.64v0.75c-3.6,1.8-6.82,3.15-9.74,4.2l0.18-0.96
				c0,0,1.75-1.83,1.59-3.38c-0.16-1.54-1.75-3.07-1.59-4.29c0.16-1.25,0.96-2.49,0.96-2.49s-5.89,2.63-5.89,6
				c0,3.4,3.81,4.64,3.81,4.64v0.82c-8.56,2.96-14.33,3.24-18.46,4.73c-2.71,1.39,0.79,3.84,0.79,3.84
				c1.23,0.07,8.67-1.28,18.61-5.09l0.67,0.65c0,0-1.81,3.48,0.65,5.89c2.46,2.41,8.55,0.25,8.55,0.25s-1.45-0.32-2.48-1.09
				c-1-0.77-0.99-2.96-1.98-4.14c-1.02-1.2-3.61-1.33-3.61-1.33l-0.87-0.58c3.03-1.19,6.29-2.61,9.65-4.28l0.96,0.55
				c0,0-0.88,3.82,2.13,5.55c2.99,1.75,8.35-1.8,8.35-1.8s-1.5,0.03-2.69-0.48c-1.17-0.5-1.72-2.6-3.01-3.53
				c-1.28-0.92-3.83-0.42-3.83-0.42l-0.94-0.35c2.87-1.46,5.83-3.12,8.81-4.95l1.15,0.51c0,0-0.43,3.88,2.75,5.31
				c3.17,1.41,8.1-2.66,8.1-2.66s-1.48,0.19-2.71-0.2c-1.22-0.37-1.99-2.42-3.38-3.2c-1.36-0.8-3.84-0.03-3.84-0.03l-1.18-0.29
				c3.2-2.05,6.4-4.3,9.53-6.82l1.26,0.39c0,0,0.09,3.88,3.45,4.9c3.34,0.98,7.67-3.69,7.67-3.69s-1.45,0.37-2.73,0.15
				c-1.25-0.21-2.29-2.15-3.78-2.75c-1.47-0.58-3.83,0.48-3.83,0.48l-1.24-0.14c2.57-2.1,5.08-4.37,7.5-6.83l1.13,0.17
				c0,0,0.67,3.84,4.12,4.37c3.45,0.52,7.05-4.7,7.05-4.7s-1.38,0.57-2.67,0.52c-1.28-0.03-2.61-1.8-4.16-2.18
				c-1.55-0.4-3.7,0.99-3.7,0.99l-0.98,0.02c1.54-1.62,3.05-3.33,4.51-5.11C732.99,444.89,737.11,441.09,736.51,434.51"/>
			
				<path style="clip-path:url(#SVGID_00000062912596187205894520000010680773017586612138_);fill-rule:evenodd;clip-rule:evenodd;fill:#FFFFFF;" d="
				M614.7,476.58c-4.15-1.48-9.92-1.77-18.48-4.73v-0.82c0,0,3.82-1.23,3.82-4.64c0-3.37-5.89-6-5.89-6s0.81,1.23,0.97,2.49
				c0.15,1.22-1.45,2.75-1.6,4.29c-0.16,1.55,1.6,3.38,1.6,3.38l0.17,0.96c-2.92-1.05-6.15-2.4-9.74-4.2v-0.75
				c0,0,3.83-1.25,3.83-4.64c0-3.38-5.88-6.01-5.88-6.01s0.78,1.23,0.95,2.46c0.16,1.24-1.43,2.78-1.59,4.31
				c-0.15,1.53,1.59,3.38,1.59,3.38l0.13,0.74c-2.6-1.36-5.4-2.94-8.4-4.81v-0.54c0,0,3.81-1.23,3.81-4.63
				c0-3.37-5.89-6.01-5.89-6.01s0.79,1.24,0.96,2.48c0.16,1.22-1.44,2.76-1.59,4.3c-0.16,1.54,1.59,3.4,1.59,3.4l0.05,0.32
				c-2.72-1.75-5.57-3.72-8.64-5.96V455c0,0,3.79-1.22,3.79-4.61c0-3.4-5.88-6.01-5.88-6.01s0.8,1.23,0.96,2.46
				c0.16,1.24-1.45,2.78-1.59,4.31c-0.17,1.54,1.59,3.39,1.59,3.39v0.01c-2.18-1.63-4.47-3.4-6.83-5.33v-1.15
				c0,0,3.82-1.24,3.82-4.62c0-3.39-5.89-6.01-5.89-6.01s0.78,1.24,0.94,2.46c0.17,1.23-1.42,2.77-1.58,4.31
				c-0.17,1.54,1.58,3.39,1.58,3.39l0.17,0.82c-1.86-1.51-3.76-3.13-5.72-4.83c0.3-1.98,0.16-7.22-8.92-9.09
				c-0.61,6.57,3.51,10.38,8.01,9.96c1.45,1.78,2.96,3.49,4.53,5.11l-1-0.02c0,0-2.15-1.39-3.71-0.99
				c-1.55,0.38-2.87,2.15-4.15,2.18c-1.29,0.05-2.68-0.52-2.68-0.52s3.6,5.22,7.07,4.7c3.45-0.53,4.11-4.37,4.11-4.37l1.13-0.17
				c2.42,2.46,4.92,4.74,7.49,6.83l-1.23,0.14c0,0-2.34-1.06-3.81-0.48c-1.48,0.61-2.55,2.54-3.8,2.75
				c-1.28,0.22-2.73-0.15-2.73-0.15s4.32,4.68,7.67,3.69c3.35-1.02,3.45-4.9,3.45-4.9l1.25-0.38c3.13,2.52,6.34,4.77,9.54,6.82
				l-1.18,0.29c0,0-2.48-0.77-3.85,0.03c-1.38,0.78-2.15,2.83-3.38,3.2c-1.22,0.39-2.72,0.2-2.72,0.2s4.94,4.07,8.12,2.66
				c3.18-1.43,2.73-5.31,2.73-5.31l1.18-0.51c2.97,1.83,5.93,3.49,8.81,4.95l-0.95,0.35c0,0-2.54-0.5-3.85,0.42
				c-1.26,0.93-1.82,3.03-2.98,3.53c-1.18,0.52-2.69,0.48-2.69,0.48s5.35,3.55,8.35,1.8c3.02-1.73,2.14-5.55,2.14-5.55l0.97-0.55
				c3.35,1.67,6.62,3.09,9.64,4.28l-0.87,0.58c0,0-2.59,0.14-3.6,1.33c-1.01,1.19-1,3.37-2.01,4.14c-1.02,0.77-2.47,1.09-2.47,1.09
				s6.08,2.17,8.55-0.25c2.47-2.4,0.65-5.89,0.65-5.89l0.68-0.65c9.93,3.8,17.38,5.16,18.58,5.09
				C613.89,480.42,617.4,477.96,614.7,476.58"/>
			
				<rect x="555.62" y="305.25" style="clip-path:url(#SVGID_00000062912596187205894520000010680773017586612138_);fill-rule:evenodd;clip-rule:evenodd;fill:#FFFFFF;" width="25.48" height="18.48"/>
			
				<rect x="611.04" y="305.25" style="clip-path:url(#SVGID_00000062912596187205894520000010680773017586612138_);fill-rule:evenodd;clip-rule:evenodd;fill:#FFFFFF;" width="28.76" height="18.48"/>
			
				<path style="clip-path:url(#SVGID_00000062912596187205894520000010680773017586612138_);fill-rule:evenodd;clip-rule:evenodd;fill:#FFFFFF;" d="
				M733.32,339.12c0-33.58-31.85-33.88-31.85-33.88h-23.88v18.48h24.21c2.22,0,14.32,0,14.32,15.71c0,10.59-5.65,15.12-10.11,16.94
				l-15.7-18.79h-7.3l-6.38-4l-5.42,0.97v-10.83h3.51v-18.48h-24.83v18.48h3.83v8.09l-7.03-1.62l-1.27,2.78l-6.68,3.08l1.05,2.46
				l3.4-0.31l-2.55,2.46l1.59,1.24l3.81-0.3l2.88,5.52l4.79-1.76v38.44c0,0,0,19.71-24.53,19.71c-24.52,0-24.21-19.71-24.21-19.71
				v-7.94l3.2-0.09l-1.26,4.32l5.4,8.01l-0.96,5.54l14.34-0.93l2.55-4.62l5.72,0.3l3.18-2.76l-9.56-12.95l-4.13-0.31l-1.91-4.01
				l2.21-2.15h5.75l4.78-3.09l2.23-4.3l4.76-0.31l1.6-2.77l0.32-4.93l4.15-1.23l-0.33-2.16l-4.78-3.7l-2.44,0.62l-0.73-1.85
				l-4.46,2.77l-0.64-2.46l3.5-4.01l-0.95-1.54l-8.93,5.55l-9.55,2.78l-9.22,5.84l-3.84-0.11v-27.61h3.51v-18.48h-24.84v18.48h4.47
				v21.33l-2.24-1.93l-1.59,1.54l2.55,4.62l-4.12-0.61l-3.52,1.23l-4.46-4.31l0.97-2.78l-4.8,0.31v-5.54l-4.14-2.46l-4.76,0.31
				l-5.73-2.46v3.39l-1.92,0.62l-0.32,8.62l7.32,4.01l-5.08,3.99l1.59,6.78l-2.56,3.08l-4.14,2.47l4.14,6.78l1.91-0.93l-0.94-4.31
				l3.17-1.54h14.34l2.86,3.08l0.65-2.16l9.54,4.64l1.28,0.27v12.06c0,2.76,0,35.72,41.4,35.72c41.4,0,41.7-33.27,41.7-35.72v-30.87
				l3.83-0.87l0.45,5.45h-1.09v16.73h6.31l2.29,5.24l12.73,12.31l3.82-6.14v-4.95l2.88,3.1l8.25-6.17l-0.61-3.38l1.59-1.71
				C721.17,369.54,733.32,361.36,733.32,339.12"/>
			
				<path style="clip-path:url(#SVGID_00000062912596187205894520000010680773017586612138_);fill-rule:evenodd;clip-rule:evenodd;fill:#FFFFFF;" d="
				M588.12,397.97v24.34h16.85v-4.93C589.7,409.06,588.12,397.97,588.12,397.97"/>
			
				<path style="clip-path:url(#SVGID_00000062912596187205894520000010680773017586612138_);fill-rule:evenodd;clip-rule:evenodd;fill:#FFFFFF;" d="
				M654.34,422.31h16.88v-24.95c0,0-1.58,11.7-16.88,20.02V422.31z"/>
			
				<path style="clip-path:url(#SVGID_00000062912596187205894520000010680773017586612138_);fill-rule:evenodd;clip-rule:evenodd;fill:#FFFFFF;" d="
				M668.95,265.36c-0.01-0.01-5.21-5.19-12.78-5.2c-3.18,0-6.8,0.93-10.58,3.56c-4.55-3.83-9.1-4.92-12.8-4.92
				c-4.88,0-8.29,1.89-8.29,1.9l-0.03,0.02l-19.12,24.44l-0.01,0.36c0,0,0.4-0.2,0.57-0.26c1.41-0.45,4.76-1.21,8.59-1.21
				c0.35,0,0.71,0.01,1.07,0.03l-7.35,2.38h0l-2.79,0.9l-0.01,0.32l2.86-0.82c1.6-0.33,3.62-0.71,5.79-0.71
				c0.28,0,0.57,0.01,0.86,0.02l-9.53,3.16l0.02,0.34c1.5-0.46,4.64-1.27,8.34-1.27c0.3,0,0.59,0.01,0.9,0.02l-9.25,3.27V292
				c0.96-0.33,4.59-1.44,8.97-1.44c4.41,0,9.47,1.18,13.11,5.55l0.1,0.11l0.11-0.08c5.51-3.83,10.29-5.07,14.22-5.07
				c3.7,0,6.62,1.1,8.63,2.21c0.99,0.55,1.77,1.1,2.29,1.51c0.26,0.22,0.46,0.38,0.58,0.5c0.13,0.12,0.19,0.18,0.19,0.18l0.15,0.15
				l17.87-27.38l-2.73,0.97l0.82-1.26l-1.43,0.48l1.22-1.87l-1.5,0.49l1.03-1.61L668.95,265.36z M653.69,295.12
				c-0.79-0.74-5.02-4.38-11.79-4.38c-3.97,0-8.79,1.25-14.28,5.04c-3.72-4.37-8.85-5.56-13.27-5.56c-2.08,0-3.96,0.25-5.48,0.54
				l6.56-2.3c2.42,0.18,4.95,0.76,7.28,2.05c0.07,0.04,0.14,0.08,0.21,0.12c0.15,0.09,0.3,0.18,0.45,0.27
				c0.11,0.07,0.22,0.14,0.33,0.21c0.13,0.08,0.25,0.17,0.38,0.26c0.13,0.09,0.26,0.19,0.39,0.29c0.11,0.08,0.22,0.17,0.33,0.26
				c0.14,0.12,0.28,0.24,0.42,0.36c0.09,0.08,0.19,0.16,0.28,0.25c0.16,0.15,0.31,0.3,0.47,0.46c0.07,0.07,0.15,0.14,0.22,0.22
				c0.22,0.24,0.44,0.48,0.66,0.74l0.1,0.11l0.13-0.08c5.49-3.83,10.27-5.06,14.19-5.06c3.71,0,6.62,1.11,8.63,2.22
				c1.01,0.55,1.78,1.11,2.29,1.52c0.26,0.21,0.46,0.38,0.6,0.5c0.13,0.12,0.19,0.19,0.19,0.19l0.15,0.15l15.5-23.81l2.23-0.79
				L653.69,295.12z M668.38,269.41L668.38,269.41L668.38,269.41l-15.34,23.56c-0.8-0.75-5.02-4.39-11.8-4.39
				c-3.95,0-8.78,1.25-14.26,5.04c-0.19-0.22-0.38-0.43-0.57-0.64c-0.09-0.09-0.18-0.18-0.27-0.27c-0.14-0.14-0.28-0.28-0.42-0.41
				c-0.11-0.1-0.22-0.2-0.33-0.29c-0.13-0.11-0.26-0.22-0.39-0.33c-0.12-0.1-0.24-0.19-0.37-0.29c-0.12-0.09-0.24-0.18-0.36-0.27
				c-0.13-0.09-0.27-0.19-0.4-0.28c-0.11-0.07-0.22-0.14-0.34-0.22c-0.15-0.09-0.3-0.18-0.45-0.27c-0.09-0.05-0.18-0.1-0.27-0.15
				c-2.93-1.62-6.16-2.14-9.08-2.14c-1.79,0-3.42,0.18-4.81,0.42l6.86-2.28c0.45,0.03,0.91,0.08,1.36,0.15
				c0.05,0.01,0.1,0.01,0.15,0.02c0.45,0.07,0.9,0.15,1.34,0.25c0.07,0.02,0.15,0.03,0.22,0.05c0.44,0.1,0.89,0.22,1.33,0.36
				c0.07,0.02,0.13,0.05,0.2,0.07c0.46,0.15,0.91,0.32,1.36,0.51c0.01,0,0.02,0.01,0.03,0.01c0.44,0.19,0.86,0.41,1.29,0.65
				c0.07,0.04,0.14,0.07,0.21,0.11c0.41,0.24,0.81,0.5,1.2,0.78c0.08,0.06,0.16,0.12,0.24,0.18c0.39,0.29,0.78,0.61,1.15,0.95
				c0.06,0.06,0.12,0.12,0.18,0.17c0.39,0.37,0.77,0.76,1.13,1.2l0.09,0.11l0.13-0.09c5.47-3.79,10.25-5.02,14.18-5.02
				c6.9,0,11.13,3.83,11.71,4.38l0.14,0.14l0.11-0.16l12.8-19.58l1.67-2.56l0.94-0.31L668.38,269.41z M668.73,267.16l-15.37,23.52
				c-0.97-0.88-5.15-4.33-11.77-4.33v0h-0.01h-0.01c-3.96,0-8.78,1.25-14.25,5.01c-0.19-0.22-0.38-0.43-0.57-0.63
				c-0.09-0.09-0.18-0.18-0.27-0.26c-0.14-0.14-0.29-0.28-0.43-0.42c-0.11-0.1-0.22-0.19-0.32-0.28c-0.13-0.11-0.26-0.23-0.4-0.33
				c-0.12-0.09-0.23-0.18-0.35-0.27c-0.13-0.1-0.26-0.2-0.39-0.29c-0.12-0.09-0.24-0.17-0.37-0.25c-0.13-0.09-0.27-0.17-0.4-0.26
				c-0.12-0.08-0.25-0.15-0.37-0.23c-0.14-0.08-0.28-0.16-0.43-0.24c-0.12-0.06-0.24-0.13-0.36-0.19c-0.19-0.1-0.39-0.19-0.58-0.27
				c-0.15-0.07-0.3-0.14-0.46-0.2c-0.18-0.08-0.36-0.15-0.54-0.22c-0.11-0.04-0.23-0.08-0.34-0.12c-0.16-0.06-0.32-0.11-0.49-0.16
				c-0.12-0.04-0.23-0.07-0.35-0.1c-0.16-0.05-0.33-0.09-0.49-0.14c-0.11-0.03-0.22-0.06-0.34-0.09c-0.17-0.04-0.34-0.08-0.51-0.12
				c-0.1-0.02-0.21-0.04-0.31-0.06c-0.19-0.04-0.38-0.07-0.56-0.1c-0.09-0.01-0.17-0.03-0.26-0.04c-0.23-0.03-0.46-0.06-0.68-0.09
				c-0.05-0.01-0.09-0.01-0.14-0.02c-0.27-0.03-0.55-0.06-0.82-0.08l-0.04,0l-0.01,0c-0.57-0.04-1.13-0.06-1.69-0.06h-0.01
				c-1.31,0-2.55,0.11-3.69,0.27l5.96-1.94c3.9,0.33,8.25,1.66,11.15,5.48l0.1,0.12l0.1-0.08l0.04,0.05l0.12-0.09
				c4.1-2.86,7.81-4.27,11.06-4.81c1.05-0.17,2.06-0.24,3.01-0.24c3.7,0,6.62,1.11,8.63,2.22c0.99,0.56,1.77,1.11,2.29,1.52
				c0.26,0.21,0.46,0.38,0.58,0.5c0.13,0.12,0.19,0.19,0.19,0.19l0.15,0.15l0.07-0.11l0.08,0.08l13.84-21.65L668.73,267.16z
				 M667.35,267.27l-13.61,21.28c-0.99-0.91-5.16-4.31-11.7-4.31c-1.04,0-2.13,0.09-3.28,0.28c-3.26,0.53-6.96,1.92-11.04,4.72
				c-3.72-4.35-8.82-5.52-13.23-5.52c-3.92,0-7.1,0.76-8.45,1.17c-0.04,0.01-0.07,0.04-0.11,0.06l0.08-0.17l18.68-23.82
				c0.07-0.04,0.26-0.13,0.56-0.26c1.16-0.53,3.95-1.57,7.54-1.57c3.66,0,8.16,1.08,12.69,4.92l0.09,0.08l0.11-0.07
				c3.77-2.64,7.34-3.57,10.5-3.57c3.71,0,6.85,1.28,9.06,2.56c1.11,0.64,1.98,1.28,2.58,1.76c0.29,0.23,0.52,0.43,0.67,0.58
				c0.06,0.05,0.1,0.09,0.14,0.12l-1.1,1.72L667.35,267.27z"/>
			
				<polygon style="clip-path:url(#SVGID_00000062912596187205894520000010680773017586612138_);fill-rule:evenodd;clip-rule:evenodd;fill:#FFFFFF;" points="
				643.76,264.53 628.17,287.63 628.31,287.73 643.91,264.62 			"/>
			
				<path style="clip-path:url(#SVGID_00000062912596187205894520000010680773017586612138_);fill-rule:evenodd;clip-rule:evenodd;fill:#FFFFFF;" d="
				M621.56,268.81c1.16-0.2,2.77-0.39,4.59-0.39c3.3,0,7.28,0.65,10.43,3.14l0.13-0.16c-3.2-2.53-7.23-3.19-10.56-3.19
				c-3.66,0-6.5,0.8-6.5,0.8l0.05,0.19C619.71,269.21,620.41,269.01,621.56,268.81"/>
			
				<path style="clip-path:url(#SVGID_00000062912596187205894520000010680773017586612138_);fill-rule:evenodd;clip-rule:evenodd;fill:#FFFFFF;" d="
				M619.94,271.17c1.15-0.19,2.77-0.4,4.59-0.4c3.3,0,7.27,0.66,10.43,3.14l0.13-0.16c-3.21-2.53-7.23-3.18-10.56-3.18
				c-3.66,0-6.5,0.8-6.5,0.8l0.06,0.19C618.09,271.57,618.79,271.37,619.94,271.17"/>
			
				<path style="clip-path:url(#SVGID_00000062912596187205894520000010680773017586612138_);fill-rule:evenodd;clip-rule:evenodd;fill:#FFFFFF;" d="
				M618.61,273.54c1.16-0.2,2.77-0.39,4.59-0.39c3.3,0,7.27,0.65,10.43,3.14l0.13-0.15c-3.21-2.53-7.23-3.19-10.56-3.19
				c-3.67,0-6.5,0.8-6.5,0.8l0.05,0.19C616.75,273.93,617.45,273.74,618.61,273.54"/>
			
				<path style="clip-path:url(#SVGID_00000062912596187205894520000010680773017586612138_);fill-rule:evenodd;clip-rule:evenodd;fill:#FFFFFF;" d="
				M626.58,261.83c1.16-0.2,2.77-0.4,4.58-0.4c3.31,0,7.29,0.66,10.44,3.14l0.13-0.15c-3.21-2.53-7.24-3.19-10.57-3.19
				c-3.66,0-6.49,0.8-6.5,0.8l0.06,0.2C624.72,262.23,625.42,262.03,626.58,261.83"/>
			
				<path style="clip-path:url(#SVGID_00000062912596187205894520000010680773017586612138_);fill-rule:evenodd;clip-rule:evenodd;fill:#FFFFFF;" d="
				M624.95,264.19c1.17-0.2,2.78-0.4,4.6-0.4c3.3,0,7.28,0.66,10.43,3.14l0.12-0.16c-3.2-2.53-7.22-3.18-10.55-3.18
				c-3.67,0-6.5,0.8-6.51,0.8l0.06,0.19C623.1,264.58,623.79,264.38,624.95,264.19"/>
			
				<path style="clip-path:url(#SVGID_00000062912596187205894520000010680773017586612138_);fill-rule:evenodd;clip-rule:evenodd;fill:#FFFFFF;" d="
				M623.61,266.55c1.16-0.2,2.78-0.4,4.59-0.4c3.31,0,7.28,0.66,10.42,3.14l0.13-0.15c-3.21-2.53-7.23-3.18-10.55-3.18
				c-3.66,0-6.49,0.8-6.5,0.8l0.06,0.19C621.76,266.95,622.45,266.75,623.61,266.55"/>
			
				<path style="clip-path:url(#SVGID_00000062912596187205894520000010680773017586612138_);fill-rule:evenodd;clip-rule:evenodd;fill:#FFFFFF;" d="
				M616.98,275.6c1.16-0.2,2.77-0.4,4.59-0.4c3.3,0,7.29,0.65,10.43,3.14l0.13-0.16c-3.2-2.52-7.23-3.18-10.56-3.18
				c-3.66,0-6.49,0.8-6.49,0.8l0.05,0.19C615.12,275.99,615.82,275.79,616.98,275.6"/>
			
				<path style="clip-path:url(#SVGID_00000062912596187205894520000010680773017586612138_);fill-rule:evenodd;clip-rule:evenodd;fill:#FFFFFF;" d="
				M615.35,277.96c1.16-0.2,2.78-0.4,4.6-0.4c3.3,0,7.28,0.65,10.42,3.15l0.13-0.16c-3.2-2.53-7.23-3.18-10.55-3.18
				c-3.67,0-6.51,0.8-6.51,0.8l0.05,0.2C613.5,278.36,614.2,278.16,615.35,277.96"/>
			
				<path style="clip-path:url(#SVGID_00000062912596187205894520000010680773017586612138_);fill-rule:evenodd;clip-rule:evenodd;fill:#FFFFFF;" d="
				M629.17,282.92c-3.2-2.52-7.22-3.18-10.55-3.18c-3.67,0-6.51,0.8-6.51,0.8l0.05,0.19c0,0,0.7-0.2,1.86-0.4
				c1.17-0.2,2.78-0.4,4.6-0.4c3.3,0,7.28,0.65,10.43,3.14L629.17,282.92z"/>
			
				<path style="clip-path:url(#SVGID_00000062912596187205894520000010680773017586612138_);fill-rule:evenodd;clip-rule:evenodd;fill:#FFFFFF;" d="
				M643.03,270.46l0.06,0.19c0,0,0.7-0.2,1.86-0.39c1.15-0.2,2.76-0.4,4.58-0.4c3.3,0,7.28,0.65,10.43,3.13l0.12-0.15
				c-3.19-2.53-7.21-3.18-10.55-3.18C645.87,269.66,643.04,270.46,643.03,270.46"/>
			
				<path style="clip-path:url(#SVGID_00000062912596187205894520000010680773017586612138_);fill-rule:evenodd;clip-rule:evenodd;fill:#FFFFFF;" d="
				M641.41,272.82l0.06,0.2c0,0,0.7-0.2,1.86-0.4c1.16-0.2,2.77-0.4,4.59-0.4c3.3,0,7.28,0.66,10.42,3.15l0.13-0.16
				c-3.21-2.53-7.22-3.19-10.55-3.19C644.25,272.02,641.42,272.82,641.41,272.82"/>
			
				<path style="clip-path:url(#SVGID_00000062912596187205894520000010680773017586612138_);fill-rule:evenodd;clip-rule:evenodd;fill:#FFFFFF;" d="
				M640.06,275.19l0.06,0.19c0,0,0.7-0.2,1.86-0.4c1.16-0.2,2.78-0.4,4.6-0.4c3.3,0,7.27,0.66,10.42,3.14l0.13-0.15
				c-3.2-2.53-7.23-3.19-10.55-3.19C642.91,274.38,640.07,275.19,640.06,275.19"/>
			
				<path style="clip-path:url(#SVGID_00000062912596187205894520000010680773017586612138_);fill-rule:evenodd;clip-rule:evenodd;fill:#FFFFFF;" d="
				M648.02,263.47l0.06,0.2c0,0,0.7-0.2,1.86-0.4c1.16-0.2,2.77-0.4,4.59-0.4c3.32,0,7.29,0.65,10.43,3.14l0.13-0.15
				c-3.2-2.53-7.22-3.18-10.56-3.18C650.87,262.68,648.03,263.47,648.02,263.47"/>
			
				<path style="clip-path:url(#SVGID_00000062912596187205894520000010680773017586612138_);fill-rule:evenodd;clip-rule:evenodd;fill:#FFFFFF;" d="
				M646.41,265.83l0.06,0.19c0,0,0.69-0.2,1.86-0.4c1.16-0.2,2.77-0.4,4.58-0.4c3.31,0,7.29,0.65,10.44,3.14l0.13-0.16
				c-3.21-2.53-7.24-3.19-10.57-3.19C649.25,265.03,646.42,265.83,646.41,265.83"/>
			
				<path style="clip-path:url(#SVGID_00000062912596187205894520000010680773017586612138_);fill-rule:evenodd;clip-rule:evenodd;fill:#FFFFFF;" d="
				M645.08,268.2l0.06,0.19c0,0,0.69-0.2,1.86-0.4c1.15-0.2,2.77-0.4,4.59-0.4c3.3,0,7.28,0.66,10.42,3.14l0.13-0.15
				c-3.21-2.52-7.23-3.18-10.55-3.18C647.91,267.41,645.08,268.2,645.08,268.2"/>
			
				<path style="clip-path:url(#SVGID_00000062912596187205894520000010680773017586612138_);fill-rule:evenodd;clip-rule:evenodd;fill:#FFFFFF;" d="
				M638.44,277.24l0.05,0.2c0.01,0,0.7-0.2,1.86-0.4c1.15-0.2,2.77-0.39,4.59-0.39c3.3,0,7.27,0.65,10.43,3.14l0.13-0.16
				c-3.2-2.52-7.23-3.19-10.56-3.19C641.28,276.44,638.44,277.24,638.44,277.24"/>
			
				<path style="clip-path:url(#SVGID_00000062912596187205894520000010680773017586612138_);fill-rule:evenodd;clip-rule:evenodd;fill:#FFFFFF;" d="
				M636.81,279.6l0.06,0.19c0,0,0.7-0.2,1.86-0.39c1.16-0.2,2.77-0.4,4.59-0.4c3.3,0,7.28,0.66,10.43,3.15l0.13-0.16
				c-3.21-2.53-7.24-3.18-10.56-3.18C639.65,278.8,636.82,279.6,636.81,279.6"/>
			
				<path style="clip-path:url(#SVGID_00000062912596187205894520000010680773017586612138_);fill-rule:evenodd;clip-rule:evenodd;fill:#FFFFFF;" d="
				M635.48,281.97l0.06,0.19c0,0,0.7-0.2,1.86-0.4c1.16-0.2,2.78-0.4,4.6-0.4c3.3,0,7.26,0.66,10.42,3.14l0.12-0.16
				c-3.19-2.53-7.22-3.18-10.54-3.18C638.32,281.17,635.48,281.97,635.48,281.97"/>
			
				<path style="clip-path:url(#SVGID_00000062912596187205894520000010680773017586612138_);fill-rule:evenodd;clip-rule:evenodd;fill:#FFFFFF;" d="
				M555.56,425.11c-0.99,0.06-1.77,0.84-1.77,1.82c0,1.02,0.85,1.84,1.9,1.84c0.45,0,0.87-0.17,1.2-0.43
				c0.74,0.49,1.71,0.72,2.87,0.72c1.36,0,2.97-0.32,4.73-0.91c0.13,0.4,0.28,0.78,0.42,1.14c0.63,1.51,1.36,2.74,2.2,3.6
				c0.84,0.86,1.77,1.36,2.79,1.36c1,0,1.95-0.5,2.78-1.36c1.03-1.07,1.92-2.71,2.61-4.74c1.77,0.6,3.38,0.91,4.75,0.92
				c0.64,0,1.21-0.09,1.73-0.24c0.34,0.35,0.83,0.58,1.37,0.58c1.04,0,1.89-0.81,1.9-1.82c-0.01-0.62-0.33-1.17-0.81-1.5
				c0.02-0.15,0.03-0.29,0.03-0.45c0-1.77-1.01-3.98-2.76-6.34c-0.43-0.58-0.91-1.17-1.44-1.76c0.52-0.59,1-1.17,1.44-1.75
				c1.75-2.35,2.76-4.56,2.76-6.34c0-0.79-0.2-1.5-0.66-2.07c-0.73-0.94-2.01-1.36-3.57-1.36c-1.36,0-2.98,0.32-4.74,0.91
				c-0.14-0.4-0.28-0.78-0.43-1.14c-0.62-1.51-1.35-2.74-2.19-3.6c-0.41-0.42-0.84-0.75-1.29-0.98c-0.15-0.88-0.92-1.55-1.86-1.55
				c-1.04,0-1.88,0.83-1.88,1.85c0,0.06,0.01,0.13,0.02,0.19c-0.19,0.15-0.38,0.31-0.56,0.5c-1.03,1.07-1.92,2.71-2.62,4.74
				c-1.76-0.59-3.38-0.91-4.74-0.91c-1.57,0-2.83,0.42-3.57,1.36c-0.44,0.57-0.66,1.27-0.66,2.07c0,1.77,1.01,3.99,2.77,6.34
				c0.43,0.58,0.91,1.16,1.44,1.75c-0.52,0.59-1,1.18-1.44,1.76C556.7,421.42,555.74,423.44,555.56,425.11 M574.5,429.14
				c-0.6,1.48-1.33,2.67-2.11,3.47c-0.79,0.81-1.62,1.23-2.48,1.23c-0.87,0-1.71-0.43-2.5-1.23c-0.98-1-1.84-2.6-2.53-4.61
				c1.59-0.57,3.28-1.35,5.02-2.34c1.74,0.99,3.43,1.78,5.02,2.35C574.78,428.4,574.64,428.78,574.5,429.14 M563.32,417.53
				c0-1.05,0.04-2.07,0.12-3.07c0.77-0.67,1.59-1.33,2.45-1.97c1.33-0.99,2.67-1.86,4-2.62c1.33,0.76,2.67,1.64,4.01,2.62
				c0.86,0.64,1.67,1.3,2.44,1.96c0.08,1,0.12,2.02,0.12,3.08c0,1.05-0.05,2.08-0.12,3.07c-0.77,0.66-1.58,1.32-2.45,1.95
				c-1.34,0.99-2.68,1.87-4.01,2.64c-1.32-0.77-2.67-1.65-3.99-2.64c-0.86-0.64-1.68-1.3-2.45-1.96
				C563.37,419.6,563.32,418.58,563.32,417.53 M563.01,420.21c-1-0.89-1.91-1.78-2.72-2.68c0.81-0.9,1.72-1.8,2.72-2.68
				c-0.06,0.87-0.09,1.77-0.09,2.68C562.91,418.45,562.95,419.34,563.01,420.21 M563.5,413.88c0.22-2.38,0.66-4.56,1.25-6.42
				c1.49,0.53,3.09,1.27,4.73,2.18c-1.27,0.74-2.55,1.58-3.82,2.52C564.9,412.73,564.18,413.3,563.5,413.88 M570.31,409.64
				c1.64-0.92,3.24-1.65,4.73-2.18c0.59,1.85,1.03,4.03,1.25,6.41c-0.68-0.58-1.4-1.15-2.15-1.7
				C572.87,411.23,571.58,410.39,570.31,409.64 M576.77,414.83c1.01,0.9,1.93,1.8,2.74,2.71c-0.81,0.9-1.73,1.8-2.74,2.69
				c0.06-0.88,0.09-1.78,0.09-2.69C576.87,416.61,576.83,415.71,576.77,414.83 M576.29,421.19c-0.22,2.39-0.66,4.57-1.25,6.43
				c-1.49-0.53-3.09-1.27-4.73-2.19c1.27-0.75,2.56-1.59,3.83-2.54C574.89,422.33,575.61,421.76,576.29,421.19 M565.66,422.89
				c1.27,0.95,2.55,1.79,3.82,2.54c-1.64,0.92-3.24,1.66-4.73,2.19c-0.59-1.86-1.03-4.05-1.25-6.44
				C564.18,421.76,564.9,422.33,565.66,422.89 M581.17,419.54c1.73,2.32,2.69,4.49,2.69,6.09c0,0.08-0.01,0.16-0.02,0.24
				c-0.22-0.08-0.45-0.14-0.7-0.14c-1.04,0-1.89,0.82-1.89,1.85c0,0.33,0.1,0.63,0.25,0.9c-0.44,0.11-0.92,0.18-1.47,0.18
				c-1.3,0-2.88-0.31-4.62-0.9c0.64-2.01,1.09-4.37,1.3-6.96c1.13-0.98,2.15-1.98,3.05-2.97
				C580.29,418.41,580.75,418.98,581.17,419.54 M580.04,406.43c1.5,0,2.62,0.4,3.25,1.2c0.38,0.49,0.57,1.1,0.57,1.82
				c0,1.62-0.96,3.79-2.69,6.09c-0.42,0.56-0.88,1.12-1.38,1.69c-0.9-0.99-1.93-1.99-3.05-2.98c-0.21-2.58-0.67-4.93-1.31-6.93
				C577.15,406.74,578.73,406.43,580.04,406.43 M565.29,405.94c0.6-1.47,1.33-2.66,2.11-3.47c0.12-0.13,0.25-0.23,0.38-0.33
				c0.27,0.69,0.96,1.17,1.75,1.17c0.97,0,1.77-0.7,1.87-1.62c0.34,0.2,0.67,0.45,0.99,0.78c0.98,1.01,1.84,2.6,2.52,4.61
				c-1.59,0.56-3.28,1.35-5.02,2.33c-1.74-0.99-3.43-1.77-5.02-2.33C565,406.68,565.15,406.3,565.29,405.94 M558.63,415.54
				c-1.74-2.31-2.7-4.47-2.69-6.09c0-0.72,0.18-1.34,0.58-1.82c0.62-0.8,1.73-1.2,3.24-1.2c1.3,0,2.88,0.3,4.61,0.89
				c-0.64,2-1.1,4.37-1.31,6.95c-1.12,0.98-2.14,1.97-3.04,2.96C559.51,416.66,559.05,416.1,558.63,415.54 M560.01,417.84
				c0.9,0.98,1.91,1.97,3.03,2.94c0.21,2.6,0.67,4.96,1.32,6.98c-1.73,0.59-3.31,0.9-4.61,0.9c-1.07,0-1.93-0.22-2.57-0.62
				c0.24-0.31,0.39-0.69,0.39-1.11c0-0.93-0.71-1.67-1.6-1.8c0.17-1.55,1.09-3.51,2.66-5.59
				C559.05,418.98,559.51,418.41,560.01,417.84"/>
			
				<path style="clip-path:url(#SVGID_00000062912596187205894520000010680773017586612138_);fill-rule:evenodd;clip-rule:evenodd;fill:#FFFFFF;" d="
				M569.9,420.02c1.38,0,2.53-1.1,2.53-2.48c0-1.36-1.15-2.46-2.53-2.46c-1.41,0-2.56,1.09-2.56,2.46
				C567.34,418.91,568.49,420.02,569.9,420.02"/>
			
				<path style="clip-path:url(#SVGID_00000062912596187205894520000010680773017586612138_);fill-rule:evenodd;clip-rule:evenodd;fill:#FFFFFF;" d="
				M716.21,418.79v-0.29v-3.37h-2.65c-0.08-0.63-0.21-1.25-0.37-1.84l2.53-0.98l-1.38-3.38l-2.54,0.98
				c-0.39-0.68-0.83-1.31-1.3-1.91l1.91-1.86l-2.67-2.59l-1.92,1.88c-0.55-0.43-1.14-0.81-1.75-1.15l1.03-2.45l-3.46-1.39
				l-1.05,2.43c-0.73-0.2-1.49-0.34-2.26-0.44v-2.66h-3.77v2.68c-0.72,0.09-1.42,0.23-2.11,0.42l-1.05-2.43l-3.48,1.39l1.06,2.44
				c-0.62,0.34-1.21,0.72-1.77,1.15l-1.93-1.88l-2.65,2.59l1.93,1.86c-0.49,0.61-0.92,1.24-1.31,1.91l-2.53-0.98l-1.4,3.38
				l2.52,0.98c-0.16,0.6-0.28,1.21-0.36,1.84h-2.81v3.66h2.79c0.08,0.65,0.22,1.3,0.38,1.91l-2.52,0.98l1.4,3.38l2.53-0.98
				c0.39,0.66,0.82,1.3,1.31,1.91l-1.93,1.86l2.65,2.56l1.93-1.85c0.56,0.42,1.15,0.8,1.77,1.14l-1.06,2.44l3.48,1.4l1.05-2.44
				c0.69,0.19,1.4,0.33,2.11,0.42v2.61h3.77v-2.59c0.78-0.08,1.53-0.24,2.26-0.44l1.05,2.44l3.46-1.4l-1.03-2.44
				c0.61-0.34,1.2-0.71,1.76-1.14l1.92,1.84l2.67-2.56l-1.91-1.86c0.47-0.61,0.91-1.25,1.3-1.91l2.54,0.98l1.38-3.38l-2.53-0.98
				c0.17-0.62,0.3-1.26,0.38-1.91H716.21z M695.63,406.23c0.15-0.04,0.29-0.09,0.41-0.1c0.35,0,0.64,0.27,0.67,0.61v0.17v6.57
				c-0.78,0.38-1.41,0.99-1.81,1.75h-6.81h-0.17c-0.37-0.04-0.63-0.3-0.64-0.66c0.03-0.14,0.06-0.27,0.1-0.41
				c1.06-3.88,4.22-6.93,8.23-7.93L695.63,406.23z M687.93,418.74h0.18h6.79c0.39,0.78,1.03,1.38,1.81,1.76v6.58v0.16
				c-0.03,0.34-0.32,0.62-0.69,0.63c-0.12-0.04-0.28-0.08-0.42-0.12h-0.01c-4.01-1.02-7.17-4.08-8.22-7.95
				c-0.03-0.13-0.06-0.26-0.09-0.4C687.3,419.06,687.56,418.79,687.93,418.74 M698.52,418.47c-0.85,0-1.54-0.67-1.54-1.48
				c0-0.81,0.69-1.49,1.54-1.49c0.86,0,1.54,0.67,1.54,1.49C700.06,417.8,699.38,418.47,698.52,418.47 M709.66,414.16
				c0.03,0.15,0.07,0.28,0.11,0.41c-0.01,0.36-0.28,0.63-0.65,0.66h-0.16h-6.81c-0.38-0.76-1.03-1.38-1.81-1.75v-6.57v-0.17
				c0.03-0.34,0.31-0.6,0.68-0.61c0.12,0.01,0.25,0.06,0.4,0.1h0.01v0C705.45,407.24,708.6,410.28,709.66,414.16 M701.03,427.87
				c-0.38-0.01-0.64-0.28-0.69-0.63v-0.16v-6.58c0.78-0.38,1.42-0.98,1.82-1.76h6.79h0.17c0.37,0.05,0.65,0.33,0.65,0.66
				c-0.04,0.14-0.06,0.28-0.1,0.38l-0.01,0.02v0.01c-1.04,3.87-4.18,6.93-8.2,7.95C701.3,427.79,701.16,427.84,701.03,427.87"/>
		</g>
	</g>
</g>
</svg>
