<?xml version="1.0" encoding="utf-8"?>
<!-- Generator: Adobe Adobe Illustrator 29.2.0, SVG Export Plug-In . SVG Version: 6.00 Build 0)  -->
<svg version="1.1" id="Layer_1" xmlns="http://www.w3.org/2000/svg" xmlns:xlink="http://www.w3.org/1999/xlink" x="0px" y="0px"
	 viewBox="0 0 1280 720" style="enable-background:new 0 0 1280 720;" xml:space="preserve">
<style type="text/css">
	.st0{clip-path:url(#SVGID_00000015320634272163984530000006866486236785658535_);}
	.st1{clip-path:url(#SVGID_00000065068075988298090270000001154665135059796392_);fill:#FFFFFF;}
	
		.st2{clip-path:url(#SVGID_00000065068075988298090270000001154665135059796392_);fill-rule:evenodd;clip-rule:evenodd;fill:#FFFFFF;}
	.st3{clip-path:url(#SVGID_00000065068075988298090270000001154665135059796392_);fill:#1D1D1B;}
	
		.st4{clip-path:url(#SVGID_00000065068075988298090270000001154665135059796392_);fill-rule:evenodd;clip-rule:evenodd;fill:#1D1D1B;}
	
		.st5{clip-path:url(#SVGID_00000065068075988298090270000001154665135059796392_);fill-rule:evenodd;clip-rule:evenodd;fill:#004311;}
	
		.st6{clip-path:url(#SVGID_00000065068075988298090270000001154665135059796392_);fill:none;stroke:#1D1D1B;stroke-width:0.541;stroke-miterlimit:22.926;}
	
		.st7{clip-path:url(#SVGID_00000065068075988298090270000001154665135059796392_);fill-rule:evenodd;clip-rule:evenodd;fill:#7A1C79;}
	
		.st8{clip-path:url(#SVGID_00000065068075988298090270000001154665135059796392_);fill:none;stroke:#1D1D1B;stroke-width:0.541;stroke-linecap:round;stroke-linejoin:round;stroke-miterlimit:22.926;}
	
		.st9{clip-path:url(#SVGID_00000065068075988298090270000001154665135059796392_);fill-rule:evenodd;clip-rule:evenodd;fill:#E42613;}
	
		.st10{clip-path:url(#SVGID_00000065068075988298090270000001154665135059796392_);fill-rule:evenodd;clip-rule:evenodd;fill:#B78E00;}
</style>
<g>
	<g>
		<defs>
			<rect id="SVGID_1_" x="487" y="207" width="306" height="306"/>
		</defs>
		<clipPath id="SVGID_00000014598130465401355350000000537382652456727696_">
			<use xlink:href="#SVGID_1_"  style="overflow:visible;"/>
		</clipPath>
		<g style="clip-path:url(#SVGID_00000014598130465401355350000000537382652456727696_);">
			<defs>
				<rect id="SVGID_00000158724267642819580760000001187600861774443909_" x="487" y="207" width="306" height="306"/>
			</defs>
			<clipPath id="SVGID_00000076585361021634107230000011826980421136107687_">
				<use xlink:href="#SVGID_00000158724267642819580760000001187600861774443909_"  style="overflow:visible;"/>
			</clipPath>
			<path style="clip-path:url(#SVGID_00000076585361021634107230000011826980421136107687_);fill:#FFFFFF;" d="M784,360
				c0,79.53-64.47,144-144,144c-79.53,0-144-64.47-144-144c0-79.53,64.47-144,144-144C719.53,216,784,280.47,784,360"/>
			
				<path style="clip-path:url(#SVGID_00000076585361021634107230000011826980421136107687_);fill-rule:evenodd;clip-rule:evenodd;fill:#FFFFFF;" d="
				M604.91,285.62c0,0,14.65-5.53,22.6,4.03c15.94-11.11,26.13-0.63,26.13-0.63l14.97-23.4c0,0-10.52-10.48-23.25-1.55
				c-10.51-8.92-21.01-3.08-21.01-3.08L604.91,285.62z"/>
			<path style="clip-path:url(#SVGID_00000076585361021634107230000011826980421136107687_);fill:#1D1D1B;" d="M605.32,285.52
				c0,0,0.4-0.2,0.57-0.26c1.41-0.45,4.76-1.21,8.59-1.21c4.41,0,9.48,1.18,13.12,5.56l0.1,0.12l0.12-0.09
				c5.49-3.83,10.29-5.07,14.21-5.07c3.7,0,6.62,1.1,8.63,2.21c1,0.55,1.77,1.11,2.28,1.52c0.26,0.21,0.46,0.38,0.59,0.5
				c0.13,0.12,0.19,0.18,0.19,0.18l0.15,0.15l15.15-23.69l-0.09-0.09c-0.01-0.01-5.21-5.19-12.78-5.2c-3.21,0-6.86,0.94-10.69,3.62
				l0.09,0.13l0.11-0.12c-4.58-3.89-9.17-5-12.89-4.99c-4.88,0-8.29,1.89-8.29,1.9l-0.03,0.01l-19.12,24.44L605.32,285.52l0.59-0.54
				l0.09-0.2l18.7-23.84l-0.13-0.1l0.08,0.14c0,0,0.2-0.11,0.59-0.29c1.16-0.53,3.94-1.57,7.54-1.57c3.66,0,8.16,1.08,12.69,4.92
				l0.09,0.09l0.11-0.07c3.78-2.65,7.34-3.57,10.5-3.57c3.71,0,6.85,1.28,9.06,2.56c1.11,0.64,1.98,1.28,2.58,1.76
				c0.29,0.23,0.52,0.43,0.67,0.58c0.16,0.14,0.23,0.21,0.23,0.21l0.11-0.11l-0.14-0.08l-14.97,23.41l0.13,0.08l0.12-0.11
				c-0.01-0.02-4.4-4.53-11.93-4.53c-3.99,0-8.86,1.27-14.41,5.13l0.1,0.13l0.13-0.1c-3.73-4.49-8.91-5.68-13.38-5.68
				c-3.92,0-7.1,0.76-8.45,1.17C605.61,285.03,605.32,285.52,605.32,285.52"/>
			<path style="clip-path:url(#SVGID_00000076585361021634107230000011826980421136107687_);fill:#FFFFFF;" d="M653.39,290.92
				l15.72-24.05l-1.65,0.53l-13.74,21.5c0,0-10.2-10.48-26.13,0.63c-3.16-3.79-7.37-5.21-11.3-5.54l-8.05,2.61
				c1.6-0.33,3.62-0.62,5.81-0.62c4.43,0,9.54,1.18,13.24,5.57c5.5-3.81,10.32-5.06,14.28-5.06
				C648.53,286.5,652.8,290.36,653.39,290.92"/>
			<path style="clip-path:url(#SVGID_00000076585361021634107230000011826980421136107687_);fill:#1D1D1B;" d="M653.39,290.92
				l0.13,0.09l15.98-24.44l-2.15,0.7l-13.79,21.55l0.15,0.08l0.12-0.11c-0.02-0.02-4.41-4.52-11.94-4.53
				c-3.99,0-8.86,1.27-14.41,5.13l0.1,0.13l0.13-0.1c-3.2-3.84-7.44-5.27-11.41-5.59l-0.03,0l-10.86,3.52l-0.01,0.32l2.86-0.82
				c1.6-0.33,3.62-0.71,5.79-0.71v-0.06v0.06v-0.06v0.06c4.4,0,9.46,1.18,13.12,5.52l0.09,0.11l0.13-0.09
				c5.47-3.79,10.25-5.02,14.18-5.02v-0.12l-0.01,0.12l0.01,0v-0.12l-0.01,0.12l0.01,0c6.9,0,11.13,3.83,11.71,4.38l0.14,0.14
				l0.11-0.16L653.39,290.92l0.11-0.11c-0.61-0.59-4.91-4.47-11.93-4.47v0.16l0.02-0.16h-0.02c-3.99,0-8.85,1.27-14.37,5.09
				l0.09,0.13l0.13-0.1c-3.74-4.44-8.91-5.63-13.37-5.63h-0.01l0.01,0.16v-0.16c-2.2,0-4.24,0.29-5.85,0.63l0.04,0.15l0.05,0.15
				l8.16-2.65l-0.16-0.12l-0.01,0.16c3.9,0.33,8.27,1.65,11.18,5.48l0.1,0.12l0.11-0.09c5.5-3.83,10.29-5.07,14.22-5.07
				c3.7,0,6.62,1.11,8.63,2.22c0.99,0.56,1.77,1.11,2.29,1.52c0.26,0.21,0.46,0.38,0.58,0.5c0.13,0.12,0.19,0.19,0.19,0.19
				l0.15,0.15l13.83-21.63l1.16-0.38l-15.47,23.68L653.39,290.92l0.11-0.11L653.39,290.92z"/>
			<path style="clip-path:url(#SVGID_00000076585361021634107230000011826980421136107687_);fill:#FFFFFF;" d="M667.88,268.74
				l-14.49,22.18c-0.59-0.57-4.86-4.42-11.82-4.42c-3.96,0-8.78,1.25-14.28,5.06c-3.22-3.83-7.53-5.23-11.53-5.51l-10.49,3.48
				c3.31-1.02,14.92-3.82,21.68,4.31c15.93-11.1,26.11-0.62,26.11-0.62l16.25-24.96L667.88,268.74z"/>
			<path style="clip-path:url(#SVGID_00000076585361021634107230000011826980421136107687_);fill:#1D1D1B;" d="M667.88,268.74
				l-0.13-0.09l-14.5,22.19l0.13,0.08l0.11-0.11c-0.61-0.59-4.91-4.47-11.93-4.47v0.16l0.01-0.16h-0.01
				c-3.99,0-8.85,1.27-14.37,5.09l0.09,0.13l0.13-0.1c-3.26-3.88-7.62-5.28-11.64-5.57l-0.04,0l-10.36,3.43l0.02,0.34
				c1.5-0.46,4.64-1.27,8.33-1.27c4.41,0,9.46,1.18,13.09,5.55l0.1,0.12l0.13-0.09c5.49-3.82,10.27-5.06,14.19-5.06
				c3.71,0,6.62,1.11,8.63,2.22c1.01,0.55,1.78,1.11,2.29,1.52c0.26,0.21,0.46,0.38,0.6,0.5c0.13,0.12,0.19,0.19,0.19,0.19
				l0.15,0.15l16.61-25.52l-1.92,0.64l-0.03,0.04L667.88,268.74l0.06,0.15l0.99-0.33l-16.01,24.58l0.14,0.09l0.12-0.11
				c-0.01-0.02-4.4-4.53-11.94-4.53c-3.98,0-8.85,1.27-14.38,5.12l0.09,0.13l0.13-0.1c-3.71-4.47-8.89-5.66-13.35-5.66
				c-3.74,0-6.83,0.78-8.35,1.25l0.02,0.14v0.2l10.42-3.46l-0.06-0.15l-0.01,0.16c3.96,0.29,8.23,1.66,11.42,5.46l0.09,0.11
				l0.13-0.09c5.47-3.79,10.25-5.02,14.18-5.02v-0.09v0.09v-0.09v0.09c6.9,0,11.13,3.83,11.71,4.38l0.14,0.14l14.61-22.35
				L667.88,268.74l0.06,0.15L667.88,268.74z"/>
			<path style="clip-path:url(#SVGID_00000076585361021634107230000011826980421136107687_);fill:#FFFFFF;" d="M668.49,269.54
				l-15.42,23.68c0,0-10.18-10.48-26.11,0.61c-3.22-3.88-7.54-5.26-11.55-5.54l-10.17,3.59c1.94-0.67,15.01-4.72,22.36,4.11
				c15.94-11.09,26.13-0.63,26.13-0.63l17.5-26.8L668.49,269.54z"/>
			<path style="clip-path:url(#SVGID_00000076585361021634107230000011826980421136107687_);fill:#1D1D1B;" d="M668.49,269.54
				l-0.14-0.08l-15.42,23.68l0.14,0.09l0.12-0.11c-0.01-0.01-4.4-4.53-11.95-4.53c-3.98,0-8.85,1.27-14.38,5.12l0.09,0.13l0.13-0.1
				c-3.26-3.92-7.63-5.31-11.66-5.59l-0.03,0l-10.01,3.54V292c0.96-0.33,4.59-1.44,8.97-1.44c4.41,0,9.47,1.18,13.11,5.55l0.1,0.11
				l0.11-0.08c5.51-3.83,10.29-5.07,14.22-5.07c3.7,0,6.62,1.1,8.63,2.21c1,0.55,1.77,1.1,2.29,1.51c0.26,0.22,0.46,0.38,0.58,0.5
				c0.13,0.12,0.19,0.18,0.19,0.18l0.15,0.15l17.88-27.37l-3.23,1.15l-0.03,0.05L668.49,269.54l0.06,0.15l2.27-0.81l-17.24,26.41
				l0.14,0.08l0.12-0.11c-0.02-0.01-4.41-4.52-11.94-4.52c-3.99,0-8.86,1.27-14.41,5.12l0.1,0.14l0.13-0.1
				c-3.73-4.47-8.91-5.68-13.37-5.68c-4.44,0-7.99,1.12-8.97,1.45V292l10.07-3.54l-0.05-0.15l-0.01,0.16
				c3.98,0.29,8.25,1.65,11.43,5.48l0.1,0.11l0.13-0.08c5.49-3.83,10.27-5.06,14.19-5.06c3.71,0,6.62,1.11,8.63,2.22
				c1.01,0.55,1.78,1.11,2.29,1.52c0.26,0.21,0.46,0.38,0.6,0.5c0.13,0.12,0.19,0.19,0.19,0.19l0.15,0.15l15.53-23.86L668.49,269.54
				l0.06,0.15L668.49,269.54z"/>
			
				<path style="clip-path:url(#SVGID_00000076585361021634107230000011826980421136107687_);fill-rule:evenodd;clip-rule:evenodd;fill:#1D1D1B;" d="
				M526.54,404.66c4.79-2.21,7.79-3.94,10.81,1.97c1.87,3.67,1.96,5.97-2.2,7.94l-2.74,1.32l-2.53,1.21
				c-0.71,0.34-1.37,0.68-2.08,1.02l-2.64-5.21c0.19-0.08,0.35-0.15,0.44-0.18c0.3-0.15,0.98-0.45,1.99-0.92l2.16-1.01l2.86-1.36
				l3.81-1.82l0.53-0.26c-0.13-0.36-0.19-0.49-0.33-0.77c-1.73-3.4-3.42-4.08-6.93-2.65c-1.18,0.46-2.04,0.86-3.99,1.78
				c-1.03,0.49-2.03,1-3.01,1.5c0,0.03-0.05,0.05-0.05,0.05c-0.27,0.13-0.54,0.09-0.64-0.15c-0.1-0.2,0-0.4,0.26-0.53
				C523.66,405.89,525.13,405.28,526.54,404.66"/>
			
				<path style="clip-path:url(#SVGID_00000076585361021634107230000011826980421136107687_);fill-rule:evenodd;clip-rule:evenodd;fill:#1D1D1B;" d="
				M526.54,399.65l0.46-0.15l2.22-0.74c0.85-0.27,1.69-0.59,2.57-0.87c0.26-0.07,0.45-0.13,0.54-0.2c0.27-0.07,0.51-0.05,0.6,0.24
				c0.08,0.23-0.03,0.4-0.37,0.52h-0.03c-2.08,0.66-4.2,1.26-6.28,1.92c-0.59,0.18-1.42,0.45-2.54,0.84
				c-2.33,0.74-2.68,0.85-4.05,1.35c0.81-3.42,1.58-6.87,2.28-10.33l0.61-3.04c-0.63,0.21-1.15,0.35-1.57,0.48
				c-1.18,0.37-2.34,0.78-3.55,1.16c-0.3,0.08-0.52,0.16-0.62,0.21c-0.28,0.09-0.64,0.2-0.74-0.13c-0.09-0.27-0.01-0.39,0.43-0.53
				l1.75-0.56l2.19-0.63c1.22-0.36,2.18-0.66,2.91-0.9c2.02-0.65,4-1.36,6-1.98C528.25,390.73,527.34,395.21,526.54,399.65"/>
			
				<path style="clip-path:url(#SVGID_00000076585361021634107230000011826980421136107687_);fill-rule:evenodd;clip-rule:evenodd;fill:#1D1D1B;" d="
				M528.18,383.33l-0.75,0.12c-3.03,0.6-6.06,1.19-9.12,1.82l-2.75,0.59l-0.5,0.11l-1.22-5.68l0.65-0.13l2.76-0.52l3.26-0.65
				l2.95-0.6l3.03-0.63l0.48-0.1L528.18,383.33z"/>
			
				<path style="clip-path:url(#SVGID_00000076585361021634107230000011826980421136107687_);fill-rule:evenodd;clip-rule:evenodd;fill:#1D1D1B;" d="
				M512.46,361.6c0.09,0.04,0.22,0.11,0.46,0.23l10.76,4.56l2.92,1.28l-9.67,6.6l-3.92,2.7l-0.62-6.62l7.41-4.96l-3.42-1.41
				c-1.39-0.59-2.85-1.06-4.21-1.64c-0.61-0.21-0.74-0.3-0.77-0.54c-0.02-0.21,0.13-0.42,0.36-0.44
				C511.86,361.36,512.03,361.4,512.46,361.6"/>
			
				<path style="clip-path:url(#SVGID_00000076585361021634107230000011826980421136107687_);fill-rule:evenodd;clip-rule:evenodd;fill:#1D1D1B;" d="
				M525.48,347.08l-0.01,0.29l-0.5,10.78l-7.13-0.37c-2.1-0.09-4.17-0.1-6.26-0.19l0.47-10.04l0.03-0.51
				c0.03-0.33,0.14-0.46,0.38-0.45c0.25,0.01,0.35,0.13,0.33,0.47v0.02l-0.29,4.74l3.06,0.16l0.01-0.23l0.15-4.86
				c0.02-0.52,0.11-0.62,0.39-0.6c0.26,0,0.35,0.15,0.32,0.6c-0.03,0.92-0.12,1.86-0.17,2.76l-0.1,2.14v0.22
				c0.57,0.04,1.13,0.06,1.69,0.09l6.74,0.24l0.2-5.47c0.02-0.45,0.11-0.59,0.38-0.57C525.45,346.31,525.5,346.4,525.48,347.08"/>
			
				<path style="clip-path:url(#SVGID_00000076585361021634107230000011826980421136107687_);fill-rule:evenodd;clip-rule:evenodd;fill:#1D1D1B;" d="
				M524.95,333.85c0.19,0.75,0.21,1.12,0.1,2.1c1.11-1.13,1.94-2.44,2.55-3.86c0.07-0.19,0.19-0.27,0.35-0.24
				c0.2,0.03,0.3,0.23,0.25,0.47c-0.36,1.89-2.91,4.31-4.33,5.59l2.96,0.52l-1.07,5.68l-0.42-0.08l-3.15-0.56l-3.77-0.71l-3.01-0.52
				l-2.52-0.43l-0.32-0.04l0.72-3.76c0.62-3.37,1.07-4.81,1.79-5.88c1.23-1.76,3.44-2.63,5.64-2.25
				C522.72,330.23,524.46,331.87,524.95,333.85 M515.41,332.79c-0.45,0.87-0.76,1.8-1.1,3.35l0.55,0.12l3.22,0.63l2.72,0.49
				l1.74,0.3c0.1,0.02,0.2,0.04,0.44,0.07c0.62-0.4,0.75-0.51,1.28-1.03c0.06-0.2,0.08-0.32,0.1-0.44c0.53-2.8-1.11-5.32-3.79-5.81
				C518.51,330.12,516.38,331.07,515.41,332.79"/>
			
				<path style="clip-path:url(#SVGID_00000076585361021634107230000011826980421136107687_);fill-rule:evenodd;clip-rule:evenodd;fill:#1D1D1B;" d="
				M530.74,324.47c-0.48,1.41-1.37,2.59-2.66,3.4c-0.52,0.34-0.82,0.45-1.05,0.39c-0.17-0.06-0.29-0.24-0.24-0.39
				c0.11-0.33,2.45-1,3.25-3.4c0.23-0.69,0.13-1.12-0.3-1.26c-1.84-0.57-6.6,3.77-10.05,2.67c-2.28-0.7-3.23-3.31-2.28-6.21
				c0.43-1.26,1.08-2.27,1.93-2.94c0.46-0.36,0.9-0.54,1.11-0.49c0.15,0.06,0.24,0.2,0.18,0.4c-0.06,0.18-1.9,1.06-2.49,2.81
				c-0.18,0.61-0.03,1.11,0.42,1.26c1.8,0.56,7.01-3.81,10.15-2.83C530.96,318.59,531.79,321.24,530.74,324.47"/>
			
				<path style="clip-path:url(#SVGID_00000076585361021634107230000011826980421136107687_);fill-rule:evenodd;clip-rule:evenodd;fill:#1D1D1B;" d="
				M533.25,316.33l-0.68-0.3c-2.83-1.18-5.67-2.41-8.51-3.62l-2.61-1.04l-0.48-0.19l2.39-5.33l0.61,0.26l2.55,1.11l3.08,1.29
				l2.76,1.15l2.84,1.17l0.45,0.18L533.25,316.33z"/>
			
				<path style="clip-path:url(#SVGID_00000076585361021634107230000011826980421136107687_);fill-rule:evenodd;clip-rule:evenodd;fill:#1D1D1B;" d="
				M540.24,302.49l-0.81,1.38l-2.47,4.16c-2.41-1.35-4.25-2.4-5.59-3.15c-1.61-0.89-3.01-1.63-6.03-3.28l2.56-4.33
				c1.09-1.82,1.58-2.46,2.43-3.18c2.02-1.68,5.2-1.86,7.49-0.58C541.21,295.41,542.09,299.22,540.24,302.49 M530.32,294.92
				c-0.61,0.58-1.08,1.24-1.48,1.97l4.1,2.3c1.41,0.81,2.46,1.38,3.12,1.75c0.58,0.32,1.67,0.91,3.31,1.78
				c0.98-1.61,1.52-3.35,0.98-5.2c-0.46-1.45-1.47-2.7-2.84-3.47C535.24,292.79,532.24,293.15,530.32,294.92"/>
			
				<path style="clip-path:url(#SVGID_00000076585361021634107230000011826980421136107687_);fill-rule:evenodd;clip-rule:evenodd;fill:#1D1D1B;" d="
				M550.13,288.41l-2-0.38l-4.12,5.08l0.51,1.23c0.14,0.26,0.45,0.71,0.23,0.95c-0.11,0.17-0.29,0.21-0.43,0.12
				c-0.34-0.25-1.01-2.27-1.25-2.81l-1.68-4.24l-1.82-4.53c-0.4-1.03-0.83-2.08-1.28-3.1l16.02,2.49L550.13,288.41z M541.5,286.88
				l0.18,0.5l1.03,2.54l0.87,2.11l0.18,0.35c1.22-1.51,3.63-4.47,3.63-4.47L541.5,286.88z"/>
			
				<path style="clip-path:url(#SVGID_00000076585361021634107230000011826980421136107687_);fill-rule:evenodd;clip-rule:evenodd;fill:#1D1D1B;" d="
				M560.58,277.37l-1.2,1.11l-3.6,3.32c-1.89-1.96-3.35-3.46-4.42-4.56c-1.27-1.29-2.41-2.4-4.83-4.81l3.74-3.45
				c1.57-1.45,2.23-1.91,3.24-2.36c2.44-1.07,5.55-0.35,7.38,1.48C563.58,270.84,563.32,274.74,560.58,277.37 M553.29,267.41
				c-0.76,0.37-1.37,0.88-1.99,1.47l3.25,3.34c1.13,1.15,1.97,2,2.49,2.53c0.46,0.47,1.34,1.35,2.66,2.61
				c1.38-1.29,2.39-2.79,2.44-4.71c0-1.52-0.6-2.99-1.71-4.11C558.63,266.7,555.65,266.21,553.29,267.41"/>
			
				<path style="clip-path:url(#SVGID_00000076585361021634107230000011826980421136107687_);fill-rule:evenodd;clip-rule:evenodd;fill:#1D1D1B;" d="
				M578.62,249.35c-0.97,0.57-1.89,1.05-2.86,1.63l0.25,0.45l1.33,2.1l1.48,2.43l1.9,3.02c0.84,1.25,1.31,2.03,1.45,2.26
				c0.04,0.07,0.11,0.17,0.19,0.28l-5.09,3.02c-0.6-0.95-1.19-1.92-1.78-2.89l-2.23-3.56l-1.43-2.2l-1.21-1.86
				c-0.97,0.57-1.9,1.21-2.86,1.76c-0.3,0.19-0.47,0.16-0.6-0.03c-0.14-0.22-0.07-0.37,0.25-0.55l0.2-0.15l8.78-5.19l1.5-0.9
				l0.35-0.18c0.35-0.19,0.5-0.19,0.65,0.04C578.99,248.99,578.92,249.16,578.62,249.35"/>
			
				<path style="clip-path:url(#SVGID_00000076585361021634107230000011826980421136107687_);fill-rule:evenodd;clip-rule:evenodd;fill:#1D1D1B;" d="
				M598.28,254l-0.26,0.1l-10.21,4.4l-2.83-6.34c-0.87-1.83-1.8-3.64-2.64-5.48l9.49-4.1l0.49-0.21c0.33-0.11,0.49-0.09,0.59,0.15
				c0.1,0.22,0.04,0.35-0.28,0.48l-0.04,0.02l-4.52,1.86l1.21,2.73l0.23-0.1l4.57-2.03c0.48-0.21,0.62-0.2,0.74,0.02
				c0.1,0.26,0.01,0.4-0.43,0.59c-0.86,0.37-1.77,0.71-2.63,1.09l-2.01,0.86l-0.21,0.09c0.21,0.52,0.42,1.02,0.67,1.52l2.8,5.93
				l5.14-2.28c0.42-0.18,0.6-0.18,0.69,0.07C598.98,253.63,598.91,253.7,598.28,254"/>
			
				<path style="clip-path:url(#SVGID_00000076585361021634107230000011826980421136107687_);fill-rule:evenodd;clip-rule:evenodd;fill:#1D1D1B;" d="
				M611.67,248.33c-0.87,1.46-2.47,2.69-4.09,3.17c-3.81,1.08-7.76-0.97-8.89-4.64c-1.12-3.6,1.05-7.44,4.74-8.51
				c2.1-0.59,4.4-0.27,6.07,0.88c0.3,0.21,0.48,0.35,0.52,0.49c0.05,0.13-0.06,0.29-0.19,0.32c-0.19,0.05-0.31,0.01-0.58-0.19
				c-1.58-1.21-3.78-1.48-5.67-0.94c-0.3,0.07-0.39,0.12-0.65,0.26l0.11,0.38l0.77,2.6l0.93,3.11c0.22,0.67,0.5,1.61,0.88,2.76
				l0.83,2.63l0.13,0.43c0.41-0.08,0.59-0.08,0.8-0.15c2.28-0.64,3.95-2.5,4.45-4.83c0.08-0.31,0.16-0.41,0.26-0.45
				c0.2-0.05,0.37,0.02,0.42,0.14C612.63,246.17,612.2,247.42,611.67,248.33"/>
			
				<path style="clip-path:url(#SVGID_00000076585361021634107230000011826980421136107687_);fill-rule:evenodd;clip-rule:evenodd;fill:#1D1D1B;" d="
				M615.43,242.62l0.09,0.46l0.39,2.23c0.11,0.87,0.33,1.71,0.45,2.6c0.05,0.27,0.08,0.46,0.11,0.56c0.04,0.27-0.01,0.49-0.33,0.54
				c-0.25,0.03-0.4-0.1-0.46-0.44v-0.04c-0.32-2.08-0.59-4.2-0.92-6.3c-0.09-0.58-0.22-1.43-0.45-2.57c-0.36-2.33-0.41-2.7-0.7-4.1
				c3.36,1.35,6.74,2.64,10.16,3.89l3,1.08c-0.08-0.64-0.16-1.16-0.23-1.58c-0.19-1.18-0.4-2.36-0.59-3.58
				c-0.05-0.29-0.08-0.5-0.12-0.63c-0.05-0.26-0.1-0.64,0.26-0.68c0.28-0.04,0.4,0.05,0.47,0.51l0.27,1.75l0.28,2.2
				c0.18,1.21,0.34,2.22,0.45,2.94c0.32,2.02,0.71,4.04,1.03,6.05C624.26,245.74,619.87,244.12,615.43,242.62"/>
			
				<path style="clip-path:url(#SVGID_00000076585361021634107230000011826980421136107687_);fill-rule:evenodd;clip-rule:evenodd;fill:#1D1D1B;" d="
				M638.15,247.04c-3.81,0.04-7.07-3.07-7.1-6.79c-0.06-3.83,3.11-6.9,7.06-6.94c3.91-0.04,7.13,3.03,7.17,6.79
				C645.33,243.91,642.18,247.01,638.15,247.04 M638.01,233.88c-0.31,0-0.4,0.04-0.69,0.07c0,2.23,0,4.48,0.03,6.73
				c0,1.05,0.01,1.95,0.05,2.64l0.05,1.96l0.02,1.16c0.27,0.05,0.38,0.04,0.62,0.04c3.75-0.04,6.62-2.85,6.56-6.42
				C644.61,236.58,641.67,233.86,638.01,233.88"/>
			
				<path style="clip-path:url(#SVGID_00000076585361021634107230000011826980421136107687_);fill-rule:evenodd;clip-rule:evenodd;fill:#1D1D1B;" d="
				M659.82,248.17l-0.26-0.02l-10.18-1.22l-1.23-0.15c0.18-1.18,0.34-2.35,0.51-3.55l0.3-2.2l0.45-3.45l0.32-2.76l0.12-0.88
				l5.94,0.71c-0.23,1.7-0.5,3.45-0.75,5.16l-0.25,2.23l-0.34,2.62l-0.25,2.21l0.23,0.02l2.19,0.27c1.08,0.11,2.13,0.2,3.18,0.33
				c0.23,0.01,0.6,0.07,0.55,0.4C660.33,248.16,660.21,248.21,659.82,248.17"/>
			
				<path style="clip-path:url(#SVGID_00000076585361021634107230000011826980421136107687_);fill-rule:evenodd;clip-rule:evenodd;fill:#1D1D1B;" d="
				M668.74,250.62c-3.7-0.95-5.97-4.78-4.97-8.39c1-3.7,4.88-5.85,8.72-4.87c3.78,0.97,6.03,4.75,5.02,8.39
				C676.53,249.44,672.63,251.6,668.74,250.62 M672.22,237.9c-0.3-0.09-0.39-0.1-0.68-0.12c-0.62,2.15-1.24,4.31-1.82,6.47
				c-0.29,1.02-0.53,1.89-0.7,2.55l-0.48,1.89l-0.31,1.14c0.26,0.12,0.35,0.14,0.6,0.21c3.62,0.93,7.15-1.05,8.09-4.5
				C677.84,242.18,675.77,238.8,672.22,237.9"/>
			
				<path style="clip-path:url(#SVGID_00000076585361021634107230000011826980421136107687_);fill-rule:evenodd;clip-rule:evenodd;fill:#1D1D1B;" d="
				M684.25,255.71c-3.6-1.49-5.27-5.54-3.71-9.1c1.5-3.39,5.73-4.99,9.29-3.52c1.84,0.75,3.27,2.23,3.97,4.08
				c0.18,0.55,0.27,0.85,0.18,1.04c-0.06,0.15-0.27,0.19-0.44,0.11c-0.15-0.05-0.25-0.15-0.3-0.43c-0.52-2.05-1.81-3.52-3.67-4.29
				c-0.27-0.11-0.4-0.14-0.71-0.24l-0.17,0.39l-1.11,2.46l-1.33,2.99l-1.19,2.68l-1.05,2.51l-0.2,0.44
				c0.23,0.19,0.33,0.23,0.63,0.35c3.13,1.29,6.79,0.04,8.29-2.81l-4.23-1.74c-0.3-0.12-0.6-0.25-0.89-0.38
				c-0.35-0.13-0.41-0.26-0.32-0.47c0.08-0.2,0.24-0.24,0.53-0.11l0.91,0.36l4.86,2.01C691.97,255.65,687.93,257.23,684.25,255.71"
				/>
			
				<path style="clip-path:url(#SVGID_00000076585361021634107230000011826980421136107687_);fill-rule:evenodd;clip-rule:evenodd;fill:#1D1D1B;" d="
				M693.44,259.46l0.4-0.61c1.51-2.62,3.07-5.2,4.61-7.83l1.36-2.41l0.24-0.43l5.21,2.86l-0.33,0.56l-1.41,2.35l-1.64,2.81
				l-1.48,2.54l-1.5,2.59l-0.23,0.43L693.44,259.46z"/>
			
				<path style="clip-path:url(#SVGID_00000076585361021634107230000011826980421136107687_);fill-rule:evenodd;clip-rule:evenodd;fill:#1D1D1B;" d="
				M711.75,269.09c-1.73,0.24-3.72-0.22-5.1-1.18c-3.22-2.24-3.96-6.54-1.65-9.63c2.26-3.06,6.72-3.75,9.86-1.58
				c1.77,1.24,2.92,3.19,3.01,5.2c0.03,0.35,0,0.56-0.09,0.69c-0.06,0.1-0.28,0.13-0.39,0.04c-0.16-0.11-0.18-0.22-0.18-0.55
				c0-1.96-1.12-3.81-2.74-4.93c-0.25-0.17-0.33-0.22-0.6-0.33l-0.24,0.32l-1.66,2.19l-1.96,2.63c-0.41,0.56-1.02,1.36-1.73,2.36
				l-1.64,2.23l-0.28,0.38c0.33,0.27,0.46,0.39,0.62,0.52c1.93,1.35,4.45,1.49,6.69,0.45c0.3-0.14,0.42-0.16,0.52-0.07
				c0.16,0.1,0.22,0.28,0.13,0.38C714.09,268.5,712.83,268.94,711.75,269.09"/>
			
				<path style="clip-path:url(#SVGID_00000076585361021634107230000011826980421136107687_);fill-rule:evenodd;clip-rule:evenodd;fill:#1D1D1B;" d="
				M719.74,278l0.54-1.87l-4.82-4.46l-1.29,0.38c-0.28,0.1-0.77,0.36-1.01,0.12c-0.16-0.12-0.18-0.31-0.08-0.42
				c0.3-0.29,2.43-0.77,3.02-0.93l4.53-1.21l4.83-1.32c1.09-0.3,2.24-0.6,3.31-0.92l-4.12,15.17L719.74,278z M722.13,269.85
				l-0.53,0.13l-2.7,0.75l-2.26,0.61l-0.41,0.13c1.46,1.34,4.29,3.94,4.29,3.94L722.13,269.85z"/>
			
				<path style="clip-path:url(#SVGID_00000076585361021634107230000011826980421136107687_);fill-rule:evenodd;clip-rule:evenodd;fill:#1D1D1B;" d="
				M735.29,296.11l-0.92-1.33l-2.75-3.99c2.33-1.47,4.1-2.61,5.4-3.43c1.55-1.01,2.87-1.87,5.74-3.76l2.87,4.14
				c1.2,1.75,1.58,2.48,1.83,3.51c0.67,2.51-0.58,5.35-2.78,6.78C741.43,300.12,737.49,299.19,735.29,296.11 M746.72,290.91
				c-0.26-0.79-0.68-1.48-1.15-2.17l-3.98,2.52c-1.38,0.86-2.36,1.51-3.01,1.93c-0.56,0.36-1.6,1.06-3.12,2.07
				c1.07,1.56,2.43,2.78,4.37,3.16c1.55,0.24,3.16-0.05,4.48-0.92C746.5,296.11,747.51,293.35,746.72,290.91"/>
			
				<path style="clip-path:url(#SVGID_00000076585361021634107230000011826980421136107687_);fill-rule:evenodd;clip-rule:evenodd;fill:#1D1D1B;" d="
				M745.45,314.02l-0.12-0.28l-4.9-9.7l6.46-2.98c1.87-0.87,3.72-1.82,5.59-2.71l4.54,9.04l0.25,0.47c0.11,0.31,0.1,0.47-0.12,0.57
				c-0.24,0.1-0.37,0.05-0.51-0.26l-0.03-0.02l-2.08-4.31l-2.77,1.27l0.11,0.23l2.25,4.33c0.25,0.47,0.22,0.61-0.02,0.71
				c-0.25,0.12-0.4,0.02-0.61-0.4c-0.4-0.81-0.79-1.67-1.21-2.5l-0.99-1.92l-0.08-0.2c-0.52,0.23-1.03,0.46-1.53,0.71l-6.06,2.91
				l2.54,4.9c0.2,0.38,0.2,0.55-0.05,0.67C745.86,314.67,745.78,314.6,745.45,314.02"/>
			
				<path style="clip-path:url(#SVGID_00000076585361021634107230000011826980421136107687_);fill-rule:evenodd;clip-rule:evenodd;fill:#1D1D1B;" d="
				M753.67,331.71c-0.14-0.57-0.2-1.19-0.28-1.77c-0.77,0.18-1.55,0.39-2.32,0.57l-1.42-5.63l0.57-0.14l3.79-0.85l3.4-0.78
				l2.72-0.67l2.15-0.53l0.39-0.09l1.05,4.2c0.46,1.88,0.74,3.33,0.81,4.42c0.12,2.46-1.64,4.81-4.14,5.42
				C757.29,336.58,754.45,334.84,753.67,331.71 M763.7,331.97c0.4-1.39,0.08-3.01-0.28-4.38l-0.63,0.13l-3.33,0.77l-2.88,0.65
				c-0.87,0.2-1.68,0.4-2.54,0.63c-0.03,0.49,0.07,1.19,0.26,1.93c0.67,2.66,3.25,4.16,5.97,3.52
				C761.82,334.88,763.3,333.45,763.7,331.97"/>
			
				<path style="clip-path:url(#SVGID_00000076585361021634107230000011826980421136107687_);fill-rule:evenodd;clip-rule:evenodd;fill:#1D1D1B;" d="
				M754.09,348.1l1.7-1.05l-0.64-6.44l-1.2-0.55c-0.31-0.08-0.84-0.21-0.87-0.55c-0.02-0.17,0.08-0.34,0.23-0.34
				c0.43-0.04,2.38,0.96,2.91,1.2l4.24,1.96l4.55,2.07c1.02,0.48,2.1,0.96,3.12,1.41l-13.41,8.85L754.09,348.1z M761.45,343.47
				l-0.49-0.25l-2.55-1.15l-2.13-0.96l-0.39-0.16c0.18,1.92,0.55,5.68,0.55,5.68L761.45,343.47z"/>
			
				<path style="clip-path:url(#SVGID_00000076585361021634107230000011826980421136107687_);fill-rule:evenodd;clip-rule:evenodd;fill:#1D1D1B;" d="
				M761.1,357.47l-0.47-0.03l-2.35-0.06c-0.89-0.06-1.8-0.03-2.71-0.07c-0.29-0.02-0.5-0.03-0.58-0.02
				c-0.31-0.01-0.51-0.11-0.48-0.43c0-0.24,0.16-0.36,0.53-0.33h0.04c2.18,0.09,4.38,0.26,6.56,0.37c0.62,0.02,1.51,0.08,2.71,0.1
				c2.43,0.11,2.81,0.13,4.28,0.14c-2.03,2.92-4.01,5.87-5.94,8.86l-1.71,2.62c0.69,0.05,1.22,0.08,1.64,0.11
				c1.25,0.05,2.49,0.07,3.74,0.13c0.31,0.01,0.55,0.02,0.66,0.01c0.3,0.01,0.67,0.03,0.67,0.37c-0.02,0.3-0.15,0.38-0.61,0.36
				l-1.85-0.09l-2.28-0.17c-1.26-0.07-2.3-0.12-3.08-0.16c-2.1-0.1-4.22-0.12-6.32-0.23C756.19,365.2,758.71,361.34,761.1,357.47"/>
			
				<path style="clip-path:url(#SVGID_00000076585361021634107230000011826980421136107687_);fill-rule:evenodd;clip-rule:evenodd;fill:#1D1D1B;" d="
				M752.22,379.71l1.93-0.57l1.28-6.32l-1.02-0.85c-0.26-0.18-0.73-0.43-0.66-0.78c0.03-0.18,0.18-0.3,0.33-0.28
				c0.41,0.09,1.99,1.56,2.43,1.94l3.5,3.05l3.76,3.2c0.84,0.74,1.71,1.5,2.6,2.21l-15.43,4.85L752.22,379.71z M760.6,377.24
				l-0.39-0.36l-2.11-1.81l-1.76-1.49l-0.32-0.25c-0.38,1.89-1.12,5.59-1.12,5.59L760.6,377.24z"/>
			
				<path style="clip-path:url(#SVGID_00000076585361021634107230000011826980421136107687_);fill-rule:evenodd;clip-rule:evenodd;fill:#1D1D1B;" d="
				M746.41,398.7l7.15,0.6l-4.3-5.7l6.88-1.83c-1.44-1.02-2.91-2.04-4.43-2.91c-0.42-0.29-1.46-0.69-1.23-1.31
				c0.09-0.28,0.25-0.38,0.42-0.3c0.3,0.1,0.59,0.39,0.84,0.59l1.73,1.25l3.03,2.16l2.77,2l2.55,1.82l0.59,0.41l-9.17,2.28
				l5.52,7.29l-0.56-0.04l-2.81-0.21l-4.24-0.28l-3.36-0.2l-3.04-0.19l-0.4-0.03L746.41,398.7z"/>
			
				<path style="clip-path:url(#SVGID_00000076585361021634107230000011826980421136107687_);fill-rule:evenodd;clip-rule:evenodd;fill:#1D1D1B;" d="
				M739.14,413.06l2.03,0.08l3.29-5.61l-0.68-1.13c-0.2-0.25-0.55-0.64-0.38-0.94c0.09-0.15,0.26-0.23,0.4-0.15
				c0.37,0.2,1.38,2.09,1.67,2.6l2.31,3.94l2.49,4.21c0.57,0.95,1.15,1.95,1.73,2.89l-16.22-0.16L739.14,413.06z M747.91,413.34
				l-0.26-0.46l-1.41-2.38l-1.17-1.96l-0.22-0.33c-0.99,1.68-2.92,4.96-2.92,4.96L747.91,413.34z"/>
			
				<path style="clip-path:url(#SVGID_00000076585361021634107230000011826980421136107687_);fill-rule:evenodd;clip-rule:evenodd;fill:#1D1D1B;" d="
				M618.61,484.81c0.11-0.72,0.24-1.48,0.37-2.19l0.48-2.99l0.42-2.58l0.43-2.75l0.08-0.4c-0.7,0.08-1.39,0.35-2.08,0.25
				c-0.16-0.02-0.28-0.17-0.23-0.37c0.05-0.31,0.11-0.31,1.11-0.4c1.14-0.19,2.33-0.3,3.48-0.38l3.51-0.44
				c-0.15,0.76-0.26,1.47-0.4,2.23l-0.39,2.42c-0.3,1.95-0.57,3.9-0.86,5.85l-0.3,2.22l-0.03,0.32L618.61,484.81z"/>
			
				<path style="clip-path:url(#SVGID_00000076585361021634107230000011826980421136107687_);fill-rule:evenodd;clip-rule:evenodd;fill:#1D1D1B;" d="
				M632.42,486.67c-1.48-0.07-2.82-0.76-3.48-1.75c-0.09-0.16-0.18-0.36-0.18-0.49c0-0.23,0.23-0.39,0.49-0.39
				c0.55,0.02,0.55,1.91,3.3,2.03c0.3,0.02,0.43,0,0.82-0.05l0.01-0.31l0.15-2.65l0.19-3.26l0.15-2.89l0.11-2.75l0.01-0.47
				c-0.17-0.01-0.3-0.04-0.35-0.04c-2.73-0.13-5.08,1.82-5.21,4.57c-0.09,1.62,1.16,3.02,2.72,3.09c0.4,0.02,0.91-0.09,1.27-0.25
				c0.32-0.14,0.38-0.17,0.46-0.17c0.16,0,0.25,0.11,0.25,0.28c-0.04,0.57-1.51,0.79-2.02,0.76c-1.95-0.1-3.46-1.79-3.36-3.79
				c0.14-3.03,2.79-5.24,6.09-5.09c3.68,0.15,6.03,2.99,5.82,6.99C639.46,483.94,636.25,486.86,632.42,486.67"/>
			
				<path style="clip-path:url(#SVGID_00000076585361021634107230000011826980421136107687_);fill-rule:evenodd;clip-rule:evenodd;fill:#1D1D1B;" d="
				M645.49,486.68c-3.23,0.15-5.55-1.21-5.67-3.23c-0.04-1.08,0.49-1.86,1.8-2.62c-1.18-1.02-1.68-1.95-1.75-3.26
				c-0.14-2.47,2.27-4.42,5.63-4.58c2.78-0.12,4.61,0.93,4.7,2.78c0.04,0.97-0.36,1.64-1.41,2.36c1.5,0.87,2.54,1.83,2.63,3.61
				C651.55,484.29,648.86,486.52,645.49,486.68 M645.27,473.62c-1.53,0.07-2.59,0.6-2.55,1.21c0.05,1.22,4.28,2.57,5.37,3.03
				c1.06-0.67,1.41-1.17,1.36-2.13C649.38,474.33,647.79,473.5,645.27,473.62 M646.21,483.31c-1.43-0.6-2.79-1.24-4.08-2.03
				c-1.2,0.66-1.65,1.25-1.6,2.12c0.08,1.69,2.11,2.78,4.93,2.64c1.45-0.06,2.74-0.65,2.69-1.21
				C648.14,484.36,647.6,483.93,646.21,483.31"/>
			
				<path style="clip-path:url(#SVGID_00000076585361021634107230000011826980421136107687_);fill-rule:evenodd;clip-rule:evenodd;fill:#1D1D1B;" d="
				M655.93,485.52c-0.12-0.72-0.21-1.48-0.3-2.2l-0.43-2.96l-0.37-2.62l-0.4-2.76l-0.06-0.4c-0.63,0.28-1.21,0.74-1.88,0.83
				c-0.18,0.02-0.33-0.09-0.35-0.29c-0.05-0.3,0.02-0.34,0.95-0.7c1.04-0.48,2.14-0.93,3.21-1.33l3.23-1.39
				c0.08,0.76,0.18,1.49,0.28,2.23l0.36,2.45c0.3,1.94,0.62,3.88,0.91,5.83l0.38,2.2l0.07,0.32L655.93,485.52z"/>
			
				<path style="clip-path:url(#SVGID_00000076585361021634107230000011826980421136107687_);fill-rule:evenodd;clip-rule:evenodd;fill:#004311;" d="
				M728.66,448.58c-1.55-0.4-3.7,0.99-3.7,0.99l-0.98,0.02c1.54-1.62,3.05-3.33,4.51-5.11c4.5,0.41,8.61-3.39,8.02-9.97
				c-9.1,1.87-9.23,7.11-8.94,9.09c-1.97,1.71-3.86,3.33-5.72,4.83l0.17-0.82c0,0,1.74-1.85,1.59-3.39
				c-0.17-1.54-1.76-3.07-1.59-4.31c0.15-1.23,0.95-2.46,0.95-2.46s-5.89,2.62-5.89,6.01c0,3.38,3.81,4.62,3.81,4.62v1.15
				c-2.36,1.92-4.65,3.7-6.85,5.32v-0.01c0,0,1.76-1.85,1.61-3.39c-0.16-1.53-1.76-3.07-1.61-4.31c0.16-1.23,0.96-2.46,0.96-2.46
				s-5.89,2.61-5.89,6.01c0,3.38,3.83,4.61,3.83,4.61v0.38c-3.05,2.24-5.94,4.21-8.66,5.96l0.07-0.32c0,0,1.75-1.86,1.58-3.4
				c-0.15-1.53-1.74-3.08-1.58-4.29c0.15-1.24,0.95-2.48,0.95-2.48s-5.88,2.63-5.88,6.01c0,3.4,3.81,4.63,3.81,4.63v0.54
				c-2.99,1.88-5.79,3.46-8.41,4.81l0.15-0.74c0,0,1.74-1.85,1.58-3.38c-0.16-1.54-1.74-3.07-1.58-4.31
				c0.16-1.23,0.95-2.46,0.95-2.46s-5.89,2.62-5.89,6.01c0,3.39,3.83,4.64,3.83,4.64v0.75c-3.6,1.8-6.82,3.15-9.74,4.2l0.18-0.97
				c0,0,1.75-1.83,1.59-3.38c-0.16-1.54-1.75-3.07-1.59-4.29c0.16-1.25,0.96-2.49,0.96-2.49s-5.89,2.63-5.89,6
				c0,3.4,3.81,4.64,3.81,4.64v0.82c-8.56,2.96-14.33,3.24-18.46,4.72c-2.71,1.39,0.79,3.84,0.79,3.84
				c1.23,0.07,8.67-1.28,18.61-5.09l0.67,0.65c0,0-1.81,3.48,0.65,5.89c2.46,2.41,8.55,0.25,8.55,0.25s-1.45-0.32-2.48-1.09
				c-1-0.77-0.99-2.96-1.98-4.14c-1.02-1.2-3.61-1.33-3.61-1.33l-0.87-0.58c3.03-1.19,6.29-2.61,9.65-4.28l0.96,0.55
				c0,0-0.88,3.82,2.13,5.55c2.99,1.75,8.35-1.8,8.35-1.8s-1.5,0.03-2.69-0.48c-1.17-0.5-1.72-2.6-3.01-3.52
				c-1.28-0.92-3.83-0.42-3.83-0.42l-0.94-0.35c2.87-1.46,5.83-3.12,8.81-4.95l1.15,0.51c0,0-0.43,3.88,2.75,5.31
				c3.17,1.41,8.1-2.66,8.1-2.66s-1.48,0.19-2.71-0.2c-1.22-0.37-1.99-2.42-3.38-3.2c-1.36-0.8-3.84-0.03-3.84-0.03l-1.18-0.29
				c3.2-2.05,6.41-4.3,9.53-6.82l1.26,0.39c0,0,0.09,3.88,3.45,4.9c3.34,0.98,7.67-3.69,7.67-3.69s-1.45,0.37-2.73,0.15
				c-1.25-0.21-2.29-2.15-3.78-2.75c-1.47-0.58-3.83,0.48-3.83,0.48l-1.24-0.14c2.57-2.09,5.08-4.37,7.5-6.83l1.13,0.17
				c0,0,0.67,3.84,4.12,4.37c3.45,0.52,7.05-4.7,7.05-4.7s-1.38,0.57-2.67,0.52C731.54,450.73,730.22,448.96,728.66,448.58"/>
			
				<path style="clip-path:url(#SVGID_00000076585361021634107230000011826980421136107687_);fill-rule:evenodd;clip-rule:evenodd;fill:#004311;" d="
				M614.7,476.58c-4.15-1.48-9.92-1.77-18.48-4.73v-0.82c0,0,3.82-1.23,3.82-4.64c0-3.37-5.89-6-5.89-6s0.81,1.23,0.97,2.49
				c0.15,1.22-1.45,2.75-1.6,4.29c-0.16,1.55,1.6,3.38,1.6,3.38l0.17,0.96c-2.92-1.05-6.15-2.4-9.74-4.2v-0.75
				c0,0,3.83-1.25,3.83-4.64c0-3.38-5.88-6.01-5.88-6.01s0.78,1.23,0.95,2.46c0.16,1.24-1.43,2.78-1.59,4.31
				c-0.15,1.53,1.59,3.38,1.59,3.38l0.13,0.74c-2.6-1.36-5.4-2.94-8.4-4.81v-0.54c0,0,3.81-1.23,3.81-4.63
				c0-3.37-5.89-6.01-5.89-6.01s0.79,1.24,0.96,2.48c0.16,1.22-1.44,2.76-1.59,4.3c-0.16,1.54,1.59,3.4,1.59,3.4l0.05,0.32
				c-2.72-1.75-5.57-3.72-8.64-5.96V455c0,0,3.79-1.22,3.79-4.61c0-3.4-5.88-6.01-5.88-6.01s0.8,1.23,0.96,2.46
				c0.16,1.24-1.45,2.78-1.59,4.31c-0.17,1.54,1.59,3.39,1.59,3.39v0.01c-2.18-1.63-4.47-3.4-6.83-5.33v-1.15
				c0,0,3.82-1.24,3.82-4.62c0-3.39-5.89-6.01-5.89-6.01s0.78,1.24,0.94,2.46c0.17,1.23-1.42,2.77-1.58,4.31
				c-0.17,1.54,1.58,3.39,1.58,3.39l0.17,0.82c-1.86-1.51-3.76-3.12-5.72-4.83c0.3-1.98,0.16-7.22-8.92-9.09
				c-0.61,6.57,3.51,10.38,8.01,9.97c1.45,1.78,2.96,3.49,4.53,5.11l-1-0.02c0,0-2.15-1.39-3.71-0.99
				c-1.55,0.38-2.87,2.15-4.15,2.18c-1.29,0.05-2.68-0.52-2.68-0.52s3.6,5.22,7.07,4.7c3.45-0.53,4.11-4.37,4.11-4.37l1.13-0.17
				c2.42,2.46,4.92,4.74,7.49,6.83l-1.23,0.14c0,0-2.34-1.06-3.81-0.48c-1.48,0.61-2.55,2.54-3.8,2.75
				c-1.28,0.22-2.73-0.15-2.73-0.15s4.32,4.68,7.67,3.69c3.35-1.02,3.45-4.9,3.45-4.9l1.25-0.38c3.13,2.52,6.34,4.77,9.54,6.82
				l-1.18,0.29c0,0-2.48-0.77-3.85,0.03c-1.38,0.78-2.15,2.83-3.38,3.2c-1.22,0.39-2.72,0.2-2.72,0.2s4.94,4.07,8.12,2.66
				c3.18-1.43,2.73-5.31,2.73-5.31l1.18-0.51c2.97,1.83,5.93,3.49,8.81,4.95l-0.95,0.35c0,0-2.54-0.5-3.85,0.42
				c-1.26,0.93-1.82,3.03-2.98,3.53c-1.18,0.52-2.69,0.48-2.69,0.48s5.35,3.55,8.35,1.8c3.02-1.73,2.14-5.55,2.14-5.55l0.97-0.55
				c3.35,1.67,6.62,3.09,9.64,4.28l-0.87,0.58c0,0-2.59,0.14-3.6,1.33c-1.01,1.19-1,3.37-2.01,4.14c-1.02,0.77-2.47,1.09-2.47,1.09
				s6.08,2.17,8.55-0.25c2.47-2.4,0.65-5.89,0.65-5.89l0.68-0.65c9.93,3.8,17.38,5.16,18.58,5.09
				C613.89,480.42,617.4,477.96,614.7,476.58"/>
			
				<polygon style="clip-path:url(#SVGID_00000076585361021634107230000011826980421136107687_);fill-rule:evenodd;clip-rule:evenodd;fill:#004311;" points="
				554.35,336.98 556.27,336.36 556.27,332.97 562.01,335.43 566.77,335.12 570.91,337.58 570.91,343.13 575.7,342.82 574.73,345.6 
				579.19,349.91 582.71,348.68 586.83,349.29 584.28,344.67 585.87,343.13 594.47,350.52 598.62,351.15 608.81,351.45 
				618.03,345.6 627.59,342.82 636.52,337.27 637.46,338.81 633.96,342.82 634.6,345.29 639.07,342.51 639.8,344.36 642.24,343.75 
				647.02,347.45 647.35,349.61 643.2,350.84 642.88,355.77 641.28,358.54 636.52,358.85 634.29,363.15 629.51,366.24 
				623.76,366.24 621.55,368.39 623.46,372.4 627.59,372.71 637.15,385.66 633.96,388.42 628.24,388.12 625.69,392.73 
				611.35,393.66 612.31,388.12 606.91,380.11 608.17,375.78 596.71,376.09 594.16,373.02 586.83,371.48 577.29,366.84 
				576.64,369.01 573.78,365.93 559.44,365.93 556.27,367.47 557.21,371.78 555.3,372.71 551.16,365.93 555.3,363.46 557.86,360.38 
				556.27,353.61 561.35,349.61 554.04,345.6 			"/>
			
				<polygon style="clip-path:url(#SVGID_00000076585361021634107230000011826980421136107687_);fill-rule:evenodd;clip-rule:evenodd;fill:#004311;" points="
				638.75,336.05 639.8,338.51 643.2,338.2 640.65,340.66 642.24,341.9 646.05,341.6 648.93,347.13 655.63,344.67 669.63,353.3 
				675.04,352.07 675.99,363.46 683.01,379.48 695.75,391.8 699.56,385.66 699.56,380.71 702.44,383.81 710.7,377.63 710.08,374.25 
				715.81,368.1 690.32,337.58 683.01,337.58 676.63,333.59 668.05,335.12 646.7,330.19 645.43,332.97 			"/>
			
				<line style="clip-path:url(#SVGID_00000076585361021634107230000011826980421136107687_);fill:none;stroke:#1D1D1B;stroke-width:0.541;stroke-miterlimit:22.926;" x1="628.24" y1="287.68" x2="643.83" y2="264.57"/>
			<polyline style="clip-path:url(#SVGID_00000076585361021634107230000011826980421136107687_);fill:#1D1D1B;" points="
				628.31,287.73 643.91,264.62 643.76,264.53 628.17,287.63 			"/>
			
				<rect x="555.62" y="305.25" style="clip-path:url(#SVGID_00000076585361021634107230000011826980421136107687_);fill-rule:evenodd;clip-rule:evenodd;fill:#7A1C79;" width="25.48" height="18.48"/>
			
				<rect x="611.04" y="305.25" style="clip-path:url(#SVGID_00000076585361021634107230000011826980421136107687_);fill-rule:evenodd;clip-rule:evenodd;fill:#7A1C79;" width="28.76" height="18.48"/>
			
				<path style="clip-path:url(#SVGID_00000076585361021634107230000011826980421136107687_);fill-rule:evenodd;clip-rule:evenodd;fill:#7A1C79;" d="
				M674.73,305.25h-24.83v18.48h3.83v60.08c0,0,0,19.71-24.53,19.71c-24.52,0-24.21-19.71-24.21-19.71v-60.08h3.51v-18.48h-24.84
				v18.48h4.47v60.08c0,2.76,0,35.72,41.4,35.72c41.4,0,41.7-33.27,41.7-35.72v-60.08h3.51V305.25z"/>
			
				<path style="clip-path:url(#SVGID_00000076585361021634107230000011826980421136107687_);fill-rule:evenodd;clip-rule:evenodd;fill:#7A1C79;" d="
				M674.41,357.52h26.75c2.54,0,14.96-2.38,14.96-18.08c0-15.71-12.1-15.71-14.33-15.71h-24.21v-18.48h23.88
				c0,0,31.85,0.3,31.85,33.88c0,33.59-27.71,35.12-32.15,35.12h-26.75V357.52z"/>
			
				<path style="clip-path:url(#SVGID_00000076585361021634107230000011826980421136107687_);fill-rule:evenodd;clip-rule:evenodd;fill:#7A1C79;" d="
				M588.12,422.31h16.85v-4.93c-15.27-8.32-16.85-19.41-16.85-19.41V422.31z"/>
			
				<path style="clip-path:url(#SVGID_00000076585361021634107230000011826980421136107687_);fill-rule:evenodd;clip-rule:evenodd;fill:#7A1C79;" d="
				M671.22,422.31h-16.88v-4.93c15.29-8.32,16.88-20.02,16.88-20.02V422.31z"/>
			<path style="clip-path:url(#SVGID_00000076585361021634107230000011826980421136107687_);fill:#1D1D1B;" d="M619.71,269.21
				c0,0,0.7-0.2,1.86-0.4c1.16-0.2,2.77-0.39,4.59-0.39c3.3,0,7.28,0.65,10.43,3.14l0.13-0.16c-3.2-2.53-7.23-3.19-10.56-3.19
				c-3.66,0-6.5,0.8-6.5,0.8L619.71,269.21z"/>
			<path style="clip-path:url(#SVGID_00000076585361021634107230000011826980421136107687_);fill:#1D1D1B;" d="M618.09,271.57
				c0,0,0.69-0.2,1.85-0.4c1.15-0.19,2.77-0.4,4.59-0.4c3.3,0,7.27,0.66,10.43,3.15l0.13-0.16c-3.21-2.53-7.23-3.18-10.56-3.18
				c-3.66,0-6.5,0.8-6.5,0.8L618.09,271.57z"/>
			<path style="clip-path:url(#SVGID_00000076585361021634107230000011826980421136107687_);fill:#1D1D1B;" d="M616.75,273.93
				c0,0,0.7-0.2,1.86-0.39c1.16-0.2,2.77-0.39,4.59-0.39c3.3,0,7.27,0.65,10.43,3.14l0.13-0.15c-3.21-2.53-7.23-3.19-10.56-3.19
				c-3.67,0-6.5,0.8-6.5,0.8L616.75,273.93z"/>
			<path style="clip-path:url(#SVGID_00000076585361021634107230000011826980421136107687_);fill:#1D1D1B;" d="M624.72,262.23
				c0,0,0.7-0.2,1.86-0.4c1.16-0.2,2.77-0.4,4.58-0.4c3.31,0,7.29,0.66,10.44,3.14l0.13-0.15c-3.21-2.53-7.24-3.19-10.57-3.19
				c-3.66,0-6.49,0.8-6.5,0.8L624.72,262.23z"/>
			<path style="clip-path:url(#SVGID_00000076585361021634107230000011826980421136107687_);fill:#1D1D1B;" d="M623.1,264.58
				c0,0,0.69-0.2,1.85-0.39c1.16-0.2,2.78-0.4,4.6-0.4c3.3,0,7.27,0.66,10.43,3.14l0.12-0.16c-3.2-2.53-7.22-3.18-10.55-3.18
				c-3.67,0-6.5,0.8-6.51,0.8L623.1,264.58z"/>
			<path style="clip-path:url(#SVGID_00000076585361021634107230000011826980421136107687_);fill:#1D1D1B;" d="M621.76,266.95
				c0,0,0.69-0.2,1.85-0.4c1.16-0.2,2.78-0.4,4.59-0.4c3.31,0,7.28,0.66,10.42,3.14l0.13-0.15c-3.21-2.53-7.23-3.18-10.55-3.18
				c-3.66,0-6.49,0.8-6.5,0.8L621.76,266.95z"/>
			<path style="clip-path:url(#SVGID_00000076585361021634107230000011826980421136107687_);fill:#1D1D1B;" d="M615.12,275.99
				c0,0,0.7-0.2,1.86-0.39c1.16-0.2,2.77-0.4,4.59-0.4c3.3,0,7.29,0.65,10.43,3.14l0.13-0.16c-3.2-2.52-7.23-3.18-10.56-3.18
				c-3.66,0-6.49,0.8-6.49,0.8L615.12,275.99z"/>
			<path style="clip-path:url(#SVGID_00000076585361021634107230000011826980421136107687_);fill:#1D1D1B;" d="M613.5,278.36
				c0,0,0.7-0.2,1.86-0.4c1.16-0.2,2.78-0.4,4.6-0.4c3.3,0,7.28,0.65,10.42,3.15l0.13-0.16c-3.2-2.53-7.23-3.18-10.55-3.18
				c-3.67,0-6.51,0.8-6.51,0.8L613.5,278.36z"/>
			<path style="clip-path:url(#SVGID_00000076585361021634107230000011826980421136107687_);fill:#1D1D1B;" d="M612.16,280.73
				c0,0,0.7-0.2,1.86-0.4c1.17-0.2,2.78-0.4,4.6-0.4c3.3,0,7.28,0.65,10.43,3.14l0.12-0.16c-3.2-2.52-7.22-3.18-10.55-3.18
				c-3.67,0-6.51,0.8-6.51,0.8L612.16,280.73z"/>
			<path style="clip-path:url(#SVGID_00000076585361021634107230000011826980421136107687_);fill:#1D1D1B;" d="M643.09,270.65
				c0,0,0.7-0.2,1.86-0.39c1.14-0.2,2.76-0.4,4.58-0.4c3.3,0,7.28,0.65,10.43,3.13l0.12-0.15c-3.19-2.53-7.21-3.18-10.55-3.18
				c-3.66,0-6.49,0.8-6.5,0.8L643.09,270.65z"/>
			<path style="clip-path:url(#SVGID_00000076585361021634107230000011826980421136107687_);fill:#1D1D1B;" d="M641.47,273.01
				c0,0,0.7-0.2,1.86-0.4c1.16-0.2,2.77-0.4,4.59-0.4c3.3,0,7.28,0.66,10.42,3.14l0.13-0.16c-3.21-2.53-7.22-3.19-10.55-3.19
				c-3.67,0-6.5,0.8-6.51,0.8L641.47,273.01z"/>
			<path style="clip-path:url(#SVGID_00000076585361021634107230000011826980421136107687_);fill:#1D1D1B;" d="M640.12,275.38
				c0,0,0.7-0.2,1.86-0.4c1.17-0.2,2.78-0.4,4.6-0.4c3.3,0,7.28,0.66,10.42,3.14l0.13-0.15c-3.2-2.53-7.23-3.19-10.55-3.19
				c-3.67,0-6.51,0.81-6.52,0.81L640.12,275.38z"/>
			<path style="clip-path:url(#SVGID_00000076585361021634107230000011826980421136107687_);fill:#1D1D1B;" d="M648.08,263.67
				c0,0,0.7-0.2,1.86-0.4c1.16-0.2,2.77-0.4,4.59-0.4c3.31,0,7.29,0.65,10.43,3.14l0.13-0.15c-3.2-2.53-7.22-3.18-10.56-3.18
				c-3.66,0-6.49,0.8-6.51,0.8L648.08,263.67z"/>
			<path style="clip-path:url(#SVGID_00000076585361021634107230000011826980421136107687_);fill:#1D1D1B;" d="M646.47,266.03
				c0,0,0.69-0.2,1.86-0.4c1.16-0.2,2.77-0.4,4.58-0.4c3.31,0,7.29,0.65,10.44,3.14l0.13-0.16c-3.21-2.53-7.23-3.19-10.57-3.19
				c-3.66,0-6.48,0.8-6.49,0.8L646.47,266.03z"/>
			<path style="clip-path:url(#SVGID_00000076585361021634107230000011826980421136107687_);fill:#1D1D1B;" d="M645.13,268.39
				c0,0,0.69-0.2,1.86-0.4c1.15-0.2,2.77-0.4,4.59-0.4c3.3,0,7.28,0.66,10.42,3.14l0.13-0.15c-3.21-2.52-7.23-3.18-10.55-3.18
				c-3.67,0-6.5,0.8-6.51,0.8L645.13,268.39z"/>
			<path style="clip-path:url(#SVGID_00000076585361021634107230000011826980421136107687_);fill:#1D1D1B;" d="M638.49,277.44
				c0.01,0,0.7-0.2,1.86-0.4c1.15-0.2,2.77-0.39,4.59-0.39c3.3,0,7.27,0.65,10.43,3.14l0.13-0.16c-3.2-2.52-7.23-3.19-10.56-3.19
				c-3.66,0-6.5,0.8-6.5,0.8L638.49,277.44z"/>
			<path style="clip-path:url(#SVGID_00000076585361021634107230000011826980421136107687_);fill:#1D1D1B;" d="M636.87,279.79
				c0,0,0.7-0.2,1.86-0.39c1.16-0.2,2.77-0.4,4.59-0.4c3.3,0,7.28,0.66,10.43,3.15l0.13-0.16c-3.21-2.53-7.24-3.18-10.56-3.18
				c-3.67,0-6.5,0.8-6.51,0.8L636.87,279.79z"/>
			<path style="clip-path:url(#SVGID_00000076585361021634107230000011826980421136107687_);fill:#1D1D1B;" d="M635.53,282.17
				c0,0,0.7-0.2,1.86-0.4c1.16-0.2,2.78-0.4,4.6-0.4c3.3,0,7.26,0.66,10.42,3.14l0.12-0.16c-3.2-2.53-7.22-3.18-10.54-3.18
				c-3.67,0-6.51,0.8-6.52,0.8L635.53,282.17z"/>
			
				<line style="clip-path:url(#SVGID_00000076585361021634107230000011826980421136107687_);fill:none;stroke:#1D1D1B;stroke-width:0.541;stroke-linecap:round;stroke-linejoin:round;stroke-miterlimit:22.926;" x1="569.9" y1="434.05" x2="569.9" y2="434.05"/>
			
				<line style="clip-path:url(#SVGID_00000076585361021634107230000011826980421136107687_);fill:none;stroke:#1D1D1B;stroke-width:0.541;stroke-linecap:round;stroke-linejoin:round;stroke-miterlimit:22.926;" x1="556.35" y1="427.58" x2="556.35" y2="427.58"/>
			<path style="clip-path:url(#SVGID_00000076585361021634107230000011826980421136107687_);fill:#1D1D1B;" d="M569.9,434.25
				c1,0,1.95-0.5,2.78-1.36c2.49-2.59,4.18-8.48,4.18-15.36c0-4.58-0.75-8.72-2-11.74c-0.62-1.51-1.35-2.74-2.19-3.6
				c-0.83-0.86-1.78-1.36-2.78-1.36c-1.02,0-1.96,0.5-2.79,1.36c-2.5,2.58-4.19,8.47-4.2,15.34c0,4.59,0.76,8.74,2,11.76
				c0.63,1.51,1.36,2.74,2.2,3.6C567.95,433.75,568.88,434.25,569.9,434.25l0.2-0.2l-0.2-0.21c-0.87,0-1.71-0.43-2.5-1.23
				c-2.36-2.42-4.08-8.26-4.08-15.08c0-4.53,0.76-8.64,1.97-11.59c0.6-1.47,1.33-2.66,2.11-3.47c0.8-0.81,1.64-1.23,2.5-1.23
				c0.86,0,1.7,0.42,2.48,1.23c2.36,2.43,4.08,8.26,4.08,15.06c0,4.54-0.76,8.65-1.97,11.6c-0.6,1.48-1.33,2.66-2.11,3.47
				c-0.79,0.81-1.62,1.23-2.48,1.23l-0.21,0.21L569.9,434.25z"/>
			<path style="clip-path:url(#SVGID_00000076585361021634107230000011826980421136107687_);fill:#1D1D1B;" d="M556.18,427.71
				c0.75,0.93,2,1.35,3.57,1.35c3.65,0,9.12-2.26,14.39-6.18c3.07-2.27,5.59-4.75,7.36-7.1c1.75-2.35,2.76-4.56,2.76-6.34
				c0-0.79-0.2-1.5-0.66-2.07c-0.73-0.94-2.01-1.36-3.57-1.36c-3.66,0-9.13,2.25-14.38,6.14c-3.07,2.28-5.6,4.77-7.36,7.13
				c-1.76,2.35-2.77,4.57-2.77,6.34C555.53,426.43,555.74,427.14,556.18,427.71l0.29,0.04l0.04-0.29c-0.4-0.48-0.58-1.1-0.58-1.83
				c-0.01-1.61,0.95-3.78,2.69-6.09c1.73-2.32,4.23-4.79,7.27-7.05c5.2-3.86,10.63-6.07,14.14-6.06c1.5,0,2.62,0.4,3.25,1.2
				c0.39,0.49,0.57,1.1,0.57,1.82c0,1.62-0.96,3.79-2.69,6.09c-1.73,2.31-4.23,4.77-7.27,7.02c-5.23,3.89-10.66,6.1-14.15,6.1
				c-1.5,0-2.61-0.4-3.24-1.2l-0.29-0.03L556.18,427.71z"/>
			<path style="clip-path:url(#SVGID_00000076585361021634107230000011826980421136107687_);fill:#1D1D1B;" d="M583.29,427.46
				c-0.63,0.79-1.75,1.19-3.24,1.2c-3.5,0-8.95-2.21-14.15-6.1c-3.04-2.25-5.54-4.71-7.27-7.02c-1.74-2.31-2.7-4.47-2.69-6.09
				c0-0.72,0.18-1.33,0.58-1.82c0.62-0.8,1.74-1.2,3.24-1.2c3.5-0.01,8.93,2.2,14.15,6.06c3.04,2.26,5.54,4.73,7.27,7.05
				c1.73,2.32,2.69,4.49,2.69,6.1C583.86,426.36,583.67,426.97,583.29,427.46l0.03,0.28l0.29-0.04c0.46-0.57,0.66-1.28,0.66-2.07
				c0-1.77-1.01-3.98-2.76-6.34c-1.76-2.35-4.28-4.85-7.36-7.13c-5.27-3.89-10.73-6.14-14.39-6.14c-1.57,0-2.83,0.42-3.57,1.36
				c-0.44,0.57-0.66,1.27-0.66,2.07c0,1.77,1.01,3.99,2.77,6.34c1.76,2.35,4.29,4.83,7.36,7.1c5.25,3.92,10.73,6.17,14.39,6.18
				c1.57,0,2.83-0.42,3.56-1.35l-0.04-0.29L583.29,427.46z"/>
			
				<line style="clip-path:url(#SVGID_00000076585361021634107230000011826980421136107687_);fill:none;stroke:#1D1D1B;stroke-width:0.541;stroke-linecap:round;stroke-linejoin:round;stroke-miterlimit:22.926;" x1="583.45" y1="427.58" x2="583.45" y2="427.58"/>
			<path style="clip-path:url(#SVGID_00000076585361021634107230000011826980421136107687_);fill:#1D1D1B;" d="M569.9,415.08
				c-1.41,0-2.56,1.09-2.56,2.46c0,1.38,1.15,2.48,2.56,2.48c1.38,0,2.53-1.1,2.53-2.48C572.44,416.17,571.29,415.08,569.9,415.08"
				/>
			<path style="clip-path:url(#SVGID_00000076585361021634107230000011826980421136107687_);fill:#1D1D1B;" d="M555.69,425.1
				c-1.05,0-1.9,0.81-1.9,1.83c0,1.02,0.85,1.84,1.9,1.84c1.03,0,1.89-0.82,1.89-1.84C557.58,425.91,556.72,425.1,555.69,425.1"/>
			<path style="clip-path:url(#SVGID_00000076585361021634107230000011826980421136107687_);fill:#1D1D1B;" d="M583.14,425.73
				c-1.04,0-1.89,0.82-1.89,1.84c0,1.02,0.85,1.82,1.89,1.82c1.04,0,1.89-0.81,1.89-1.82C585.03,426.55,584.18,425.74,583.14,425.73
				"/>
			
				<path style="clip-path:url(#SVGID_00000076585361021634107230000011826980421136107687_);fill-rule:evenodd;clip-rule:evenodd;fill:#1D1D1B;" d="
				M569.53,399.66c-1.04,0-1.88,0.83-1.88,1.84c0,1.01,0.85,1.81,1.88,1.81c1.04,0,1.89-0.8,1.89-1.81
				C571.42,400.48,570.57,399.66,569.53,399.66"/>
			
				<path style="clip-path:url(#SVGID_00000076585361021634107230000011826980421136107687_);fill-rule:evenodd;clip-rule:evenodd;fill:#E42613;" d="
				M569.9,419.69c1.2,0,2.21-0.96,2.21-2.15c0-1.18-1.01-2.13-2.21-2.13c-1.23,0-2.23,0.95-2.23,2.13
				C567.68,418.73,568.67,419.69,569.9,419.69"/>
			
				<path style="clip-path:url(#SVGID_00000076585361021634107230000011826980421136107687_);fill-rule:evenodd;clip-rule:evenodd;fill:#E42613;" d="
				M569.53,402.99c0.86,0,1.55-0.67,1.55-1.49c0-0.83-0.7-1.52-1.55-1.52c-0.86,0-1.54,0.69-1.54,1.52
				C567.99,402.32,568.67,402.99,569.53,402.99"/>
			
				<path style="clip-path:url(#SVGID_00000076585361021634107230000011826980421136107687_);fill-rule:evenodd;clip-rule:evenodd;fill:#E42613;" d="
				M555.69,428.45c0.85,0,1.55-0.67,1.55-1.51c0-0.84-0.71-1.51-1.55-1.51c-0.88,0-1.58,0.67-1.58,1.51
				C554.11,427.77,554.81,428.45,555.69,428.45"/>
			
				<path style="clip-path:url(#SVGID_00000076585361021634107230000011826980421136107687_);fill-rule:evenodd;clip-rule:evenodd;fill:#E42613;" d="
				M583.14,429.08c0.86,0,1.56-0.67,1.56-1.5c0-0.84-0.7-1.52-1.56-1.52c-0.86,0-1.55,0.68-1.55,1.52
				C581.59,428.41,582.29,429.08,583.14,429.08"/>
			<path style="clip-path:url(#SVGID_00000076585361021634107230000011826980421136107687_);fill:#1D1D1B;" d="M713.56,415.13
				c-0.08-0.63-0.21-1.25-0.37-1.84l2.53-0.98l-1.38-3.38l-2.54,0.98c-0.39-0.68-0.82-1.31-1.3-1.91l1.91-1.86l-2.66-2.59
				l-1.92,1.88c-0.55-0.43-1.15-0.81-1.75-1.15l1.03-2.45l-3.46-1.39l-1.05,2.43c-0.73-0.2-1.49-0.34-2.26-0.44v-2.66h-3.77v2.68
				c-0.72,0.09-1.42,0.23-2.11,0.42l-1.05-2.43l-3.48,1.39l1.06,2.44c-0.62,0.34-1.21,0.72-1.77,1.15l-1.93-1.88l-2.65,2.59
				l1.93,1.86c-0.49,0.61-0.92,1.24-1.31,1.91l-2.53-0.98l-1.4,3.38l2.52,0.98c-0.16,0.6-0.28,1.21-0.36,1.84h-2.81v3.66h2.79
				c0.08,0.65,0.22,1.3,0.38,1.91l-2.52,0.98l1.4,3.38l2.53-0.98c0.39,0.66,0.82,1.3,1.31,1.91l-1.93,1.86l2.65,2.56l1.93-1.85
				c0.56,0.42,1.16,0.8,1.77,1.14l-1.06,2.44l3.48,1.4l1.05-2.44c0.69,0.19,1.4,0.33,2.11,0.42v2.61h3.77v-2.59
				c0.78-0.08,1.53-0.24,2.26-0.44l1.05,2.44l3.46-1.4l-1.03-2.44c0.61-0.34,1.2-0.71,1.76-1.14l1.92,1.84l2.66-2.56l-1.91-1.86
				c0.47-0.61,0.91-1.25,1.3-1.91l2.54,0.98l1.38-3.38l-2.53-0.98c0.17-0.62,0.3-1.26,0.38-1.91h2.64v-0.29v-3.37H713.56z
				 M701.03,427.87c-0.38-0.01-0.64-0.28-0.69-0.63v-0.16v-6.58c0.78-0.38,1.42-0.98,1.82-1.76h6.79h0.17
				c0.37,0.05,0.65,0.33,0.65,0.66c-0.04,0.14-0.06,0.28-0.1,0.38l-0.01,0.02v0.01c-1.04,3.87-4.18,6.93-8.2,7.95
				C701.3,427.79,701.16,427.84,701.03,427.87 M687.38,419.8L687.38,419.8c-0.03-0.13-0.06-0.26-0.09-0.4
				c0.01-0.34,0.27-0.61,0.64-0.66h0.18h6.79c0.39,0.78,1.03,1.38,1.81,1.76v6.58v0.16c-0.03,0.35-0.32,0.62-0.69,0.63
				c-0.12-0.04-0.28-0.08-0.42-0.12h-0.01C691.59,426.73,688.43,423.67,687.38,419.8 M687.39,414.16c1.06-3.88,4.22-6.93,8.23-7.93
				l0.01,0c0.15-0.04,0.28-0.09,0.41-0.1c0.35,0,0.64,0.28,0.67,0.61v0.17v6.57c-0.78,0.38-1.41,0.99-1.81,1.75h-6.81h-0.17
				c-0.37-0.04-0.63-0.3-0.64-0.66C687.32,414.44,687.35,414.31,687.39,414.16 M700.06,416.99c0,0.81-0.68,1.48-1.54,1.48
				c-0.85,0-1.54-0.67-1.54-1.48c0-0.81,0.69-1.49,1.54-1.49C699.38,415.51,700.06,416.18,700.06,416.99 M709.66,414.16
				L709.66,414.16c0.03,0.15,0.07,0.28,0.11,0.41c-0.01,0.36-0.28,0.63-0.65,0.66h-0.16h-6.81c-0.38-0.76-1.03-1.38-1.81-1.75v-6.57
				v-0.17c0.03-0.34,0.31-0.6,0.68-0.61c0.12,0.01,0.25,0.06,0.4,0.1h0.01v0C705.45,407.24,708.6,410.28,709.66,414.16"/>
			
				<path style="clip-path:url(#SVGID_00000076585361021634107230000011826980421136107687_);fill-rule:evenodd;clip-rule:evenodd;fill:#B78E00;" d="
				M715.93,418.5v-3.08h-2.62c-0.09-0.79-0.25-1.57-0.47-2.32l2.5-0.97l-1.17-2.84l-2.5,0.96c-0.44-0.81-0.98-1.58-1.57-2.3
				l1.89-1.82l-2.24-2.18l-1.89,1.86c-0.67-0.54-1.4-1.02-2.16-1.42h0.01l1.01-2.4l-2.91-1.17l-1.04,2.39
				c-0.88-0.25-1.8-0.43-2.73-0.53v-2.62h-3.17v2.64c-0.88,0.1-1.75,0.26-2.59,0.51l-1.04-2.39l-2.93,1.17l1.04,2.4
				c-0.76,0.4-1.49,0.88-2.17,1.42l-1.91-1.86l-2.23,2.18l1.9,1.82c-0.6,0.72-1.12,1.49-1.57,2.3l-2.49-0.96l-1.17,2.84l2.49,0.97
				c-0.22,0.74-0.37,1.52-0.46,2.32h-2.77v3.08h2.76c0.07,0.81,0.25,1.62,0.47,2.38l-2.49,0.97l1.17,2.85l2.49-0.96
				c0.46,0.8,0.97,1.58,1.57,2.3l-1.9,1.83l2.23,2.15l1.91-1.82c0.67,0.53,1.41,1,2.17,1.39l-1.04,2.41l2.93,1.18l1.04-2.4
				c0.84,0.24,1.71,0.42,2.59,0.51v2.58h3.17v-2.56c0.93-0.08,1.85-0.28,2.73-0.53l1.04,2.4l2.91-1.18l-1.01-2.41
				c0.75-0.39,1.48-0.86,2.15-1.39l1.89,1.82l2.24-2.15l-1.89-1.83c0.59-0.72,1.13-1.5,1.57-2.3l2.5,0.96l1.17-2.85l-2.5-0.97
				c0.22-0.77,0.39-1.57,0.48-2.38H715.93z M698.52,418.76L698.52,418.76c-1.01,0-1.83-0.79-1.83-1.77s0.82-1.78,1.83-1.78
				c1.01,0,1.84,0.8,1.84,1.78S699.53,418.76,698.52,418.76 M695.08,418.45L695.08,418.45c0.38,0.85,1.07,1.51,1.93,1.88v6.75v0.19
				c-0.04,0.5-0.47,0.9-1,0.9c-0.16-0.04-0.33-0.09-0.48-0.14c-4.12-1.05-7.35-4.19-8.43-8.16c-0.03-0.15-0.06-0.31-0.11-0.45
				c0.01-0.51,0.4-0.9,0.91-0.97h0.22H695.08z M709.15,418.45L709.15,418.45c0.5,0.07,0.91,0.46,0.91,0.97
				c-0.03,0.14-0.06,0.3-0.12,0.45c-1.07,3.98-4.29,7.12-8.41,8.16c-0.17,0.05-0.33,0.1-0.48,0.14c-0.54,0-0.96-0.4-1.01-0.9v-0.19
				v-6.75c0.86-0.37,1.57-1.03,1.95-1.88h6.96H709.15z M697.01,413.65L697.01,413.65c-0.86,0.37-1.55,1.04-1.93,1.88h-6.98h-0.18
				c-0.52-0.05-0.92-0.45-0.92-0.97c0.04-0.15,0.08-0.3,0.13-0.47c1.08-3.98,4.31-7.11,8.44-8.13c0.15-0.05,0.3-0.1,0.47-0.12
				c0.51,0,0.94,0.39,0.98,0.88v0.2V413.65z M701.99,415.53L701.99,415.53c-0.38-0.83-1.08-1.51-1.95-1.88v-6.74v-0.2
				c0.06-0.49,0.47-0.88,0.99-0.88c0.16,0.02,0.31,0.08,0.47,0.12c4.12,1.02,7.36,4.15,8.45,8.13c0.04,0.17,0.08,0.32,0.12,0.47
				c0,0.52-0.41,0.92-0.92,0.97h-0.19H701.99z"/>
		</g>
	</g>
</g>
</svg>
