<?xml version="1.0" encoding="utf-8"?>
<svg version="1.1" id="head-brains" xmlns="http://www.w3.org/2000/svg" xmlns:xlink="http://www.w3.org/1999/xlink" x="0px" y="0px" viewBox="0 0 945.9384 1009.9997" enable-background="new 0 0 945.9384 1009.9997" xml:space="preserve">
<g id="head-brains-head-brains">
	<g id="head-brains-fill">
		<path fill="#EBEEF0" d="M289.2973,1003.1882c1.6861-73.5791-22.3276-113.7549-59.6606-123.2129c-14.624-8.586-31.041-14.6045-52.4278-19.0635l-9.958-1.8037c-12.1738-2.0479-24.5625-3.3623-37.0005-4.6846c-16.3583-1.7148-31.7661-3.3818-46.9682-6.6748l-7.8897-1.5c-18.5742-3.3818-27.6206-5.9005-30.4531-13.4668c-3.9306-11.3214,0.5-22.8662,8.3701-40.6367l3.4209-7.9189c6.9981-16.418,12.6045-34.3839,6.273-54.0352c-1.7837-5.5674-4.5088-10.958-8.0767-16.0937c2.5977-2.0586,5.3613-4.6758,8.0767-8.253c15.604-23.4248-1.4116-42.4209-7.7827-49.5556c-0.4209-0.4903-0.9209-1.0197-1.3228-1.4512c0.8525-1.2734,1.6763-2.5576,2.5288-3.832c9.7617-14.8497,19.4263-33.3057,16.917-57.5147c-0.0781-0.7939-0.3725-2.2441-0.5098-3.0976c-6.4882-29.0508-29.8842-38.1856-45.331-44.2627c-7.7432-3.0186-15.0352-5.8516-18.3975-9.4385c-0.7251-0.8916-1.4209-2.8428-1.4209-4.5967l89.4082-95.1719c12.3887-13.1728,24.6109-26.3457,36.7159-39.5288c1.6464-1.8032,2.9892-3.9106,3.9301-6.165l4.2242-10.3208c9.145-23.5723-0.4898-41.607-7.5176-54.8189l-3.166-6.1357c-1.0879-2.2153-2.1465-4.4795-2.8321-6.8218c-0.706-2.4604-0.9218-4.5576-0.9707-4.646c4.4009-20.6611,11.0562-40.999,20.3086-62.1699c7.7627-17.8482,17.3975-36.0396,28.5615-54.084c10.2618-16.5742,21.7393-33.0112,35.1475-50.3989c10.3208-13.3784,21.0928-26.4634,30.3154-37.3921c10.7325-9.5855,22.4258-18.7305,34.7168-27.1694c5.1455-3.4991,10.419-6.8609,15.7408-10.1441c6.9785-4.2344,13.9965-8.2236,21.1909-11.9385c22.1211-11.4379,46.0366-21.0337,71.1572-28.4336c47.1743-14.0258,98.6411-20.7299,151.48-19.8769c67.8935,5.459,124.3301,16.3486,172.5234,33.2949c8.0469,2.813,16.0254,5.8516,23.8272,9.0469c10.3222,4.3613,20.5254,9.0762,30.4922,14.2119c21.4062,11.0757,41.4121,23.9448,60.0136,38.7056c4.9805,3.6655,9.7227,7.4297,14.252,11.3403c7.4687,6.4102,14.4471,13.2119,20.9355,20.3477c9.0371,9.9873,17.5156,21.0922,25.1602,33.0698c23.377,36.5493,39.1758,80.7241,48.3203,135.0332c0.9414,5.4497,1.7441,10.9092,2.5,16.2114l2.4687,22.6709c3.715,43.5767,1.2266,83.439-7.4472,118.5278c-0.9805,3.9991-2.0684,7.8506-3.2051,11.7715c-1.5977,5.312-3.3242,10.6441-5.8613,17.7896c-5.2832,19.8081-13.5957,39.8227-25.4746,61.102c-3.2246,5.7725-6.6446,11.4473-10.1446,17.0439c-2.9492,4.7148-5.9394,9.4297-9.0761,14.1143c-8.7911,13.0752-18.2207,25.9053-27.9141,38.6368c-6.3125,8.3808-12.8106,16.6728-19.25,25.0527c-18.9844,24.4931-38.6758,49.8301-55.584,76.2646c-15.25,23.6993-26.6582,45.7921-34.9316,67.5118c-6.293,16.2802-10.8897,32.7656-13.9375,51.0156c-0.6465,9.3808-1.1964,21.5146-1.6563,35.1972c-0.9023,25.3457-1.6074,55.9161-2.1562,82.92l-0.167,8.8994c-0.3037,15.2998,3.8221,36.5293,3.6455,36.5293"/>
		<path fill="#FFAB00" d="M378.4799,221.5485c6.1944,0,12.2124,0.647,18.1226,1.6758c7.6943-68.5898,65.8164-121.9287,136.4839-121.9287c58.9648,0,109.0791,37.1963,128.6133,89.3296c8.3213-2.1563,17.0058-3.4404,26.0127-3.4404c56.9072,0,103.0615,46.1645,103.0615,103.081c0,13.8296-2.7539,26.9732-7.6738,38.9995c34.2851,11.2617,59.2187,43.1656,59.2187,81.2534c0,47.4483-38.4492,85.8995-85.8887,85.8995c-56.9464,0-120.2627,46.1547-120.2627,103.0708l0,0V496.4182c0-37.9512-30.7763-68.7178-68.7177-68.7178H378.4799c-56.9067,0-103.0615-46.1543-103.0615-103.0708C275.4184,267.6931,321.5732,221.5485,378.4799,221.5485z"/>
	</g>
</g>
</svg>
