<?xml version="1.0" encoding="utf-8"?>
<svg version="1.1" id="checkboard-graph" xmlns="http://www.w3.org/2000/svg" xmlns:xlink="http://www.w3.org/1999/xlink" x="0px" y="0px" viewBox="0 0 857.2935 1010" enable-background="new 0 0 857.2935 1010" xml:space="preserve">
<g id="checkboard-graph-checkboard-graph">
	<g id="checkboard-graph-fill">
		<polyline fill="#F7F8F9" points="603.6216,99.7944 835.8618,99.7944 835.8618,988.5674 21.4326,988.5674 21.4326,99.7944 259.7002,99.7944 		"/>
		<polygon fill="#AEBCC4" points="610.4243,107.7896 610.2368,107.4966 610.2368,102.4941 607.1177,102.4941 557.0943,21.4321 300.1367,21.4321 250.1558,102.4941 247.1001,102.4941 247.1001,107.4131 246.8491,107.7896 247.1001,107.7896 247.1001,181.1704 610.2368,181.1704 610.2368,107.7896 		"/>
	</g>
	<g id="checkboard-graph-line">
		<g>
			<path fill="#43525B" d="M835.8618,1010H21.4326C9.586,1010,0,1000.4141,0,988.5674V99.7944c0-11.8462,9.586-21.4326,21.4326-21.4326h238.2676v42.8648H42.8648v845.9082h771.5654V121.2266H603.6216V78.3618h232.2402c11.8457,0,21.4317,9.5864,21.4317,21.4326v888.7729C857.2935,1000.4141,847.7075,1010,835.8618,1010L835.8618,1010z"/>
		</g>
		<g>
			<polygon fill="#43525B" points="751.0122,845.9922 72.3345,845.9922 72.3345,803.127 751.0122,803.127 751.0122,845.9922 			"/>
		</g>
		<g>
			<polygon fill="#43525B" points="172.9449,903.7168 130.0806,903.7168 130.0806,225.0396 172.9449,225.0396 172.9449,903.7168 			"/>
		</g>
	</g>
</g>
</svg>
